<?xml version="1.0" encoding="utf-8"?>
<!-- Generator: Adobe Illustrator 22.1.0, SVG Export Plug-In . SVG Version: 6.00 Build 0)  -->
<svg version="1.1" id="Layer_1" xmlns="http://www.w3.org/2000/svg" xmlns:xlink="http://www.w3.org/1999/xlink" x="0px" y="0px"
	 viewBox="0 0 495.522 285.522" style="enable-background:new 0 0 495.522 285.522;" xml:space="preserve">
<style type="text/css">
	.st0{fill:#FFEE96;}
	.st1{fill:#FFFFFF;}
	.st2{fill:#FFC808;}
	.st3{fill:#1B1B1B;}
	.st4{fill:#1B6044;}
	.st5{fill:#FFFEFE;}
	.st6{fill:#E9E9E9;}
	.st7{fill:#754C24;}
	.st8{fill:#175541;}
	.st9{fill:#C6B8A9;}
	.st10{fill:#FF7C26;}
	.st11{fill:#CB6800;}
	.st12{fill:#232122;}
	.st13{fill:#FFE100;}
	.st14{fill:#D2C0C1;}
	.st15{fill:#0D0D0D;}
	.st16{fill:#944E34;}
	.st17{fill:#74371E;}
</style>
<rect x="182" y="10" class="st0" width="134.761" height="242.761"/>
<g>
	<g>
		<g>
			<g>
				<path class="st1" d="M293.873,250.998c-4.884-16.247-6.589-41.442-4.991-58.331c0.684-7.229,1.967-14.439,1.712-21.696
					c-0.664-18.888-11.506-35.74-16.745-53.899c-6.87-23.812-3.939-49.24-0.288-73.754c1.468-9.855,3.034-23.001,0.691-32.686
					l36.533-0.041l2,240L293.873,250.998z"/>
			</g>
			<g>
				<path class="st1" d="M218.361,10.041c1.261,15.072,2.521,37.145,3.782,52.217c0.781,9.338,1.562,18.726,0.799,28.065
					c-2.103,25.716-15.713,49.298-18.81,74.913c-3.285,27.176,5.26,62.181-5.49,87.356l-15.857-0.001v-242L218.361,10.041z"/>
			</g>
			<g>
				<path class="st2" d="M310.688,144.777c-7.932,3.943-15.295,9.03-21.79,15.054c-0.702,0.651-1.421,1.356-1.703,2.271
					s0.048,2.092,0.945,2.429c0.613,0.23,1.295,0.02,1.913-0.2c6.902-2.453,13.392-6.061,19.118-10.629"/>
			</g>
			<g>
				<path class="st2" d="M183.784,147.21c6.453,3.053,12.829,6.268,19.12,9.641c1.443,0.774,2.937,1.604,3.861,2.957
					s1.067,3.387-0.126,4.508c-1.337,1.256-3.486,0.79-5.213,0.17c-5.696-2.043-11.096-4.907-15.983-8.476"/>
			</g>
		</g>
		<g>
			<g>
				<path class="st3" d="M318.95,7.877l-0.121-2.1c-46.722-1.158-93.479-0.938-140.188,0.662l-2.588,0.023
					c1.292,84.236,1.183,166.494-0.328,250.726l0.966,0.195c10.613-0.313,24.226,0.373,34.839,0.06
					c36.436-1.076,107.617,0.711,107.617,0.711C320.075,174.065,320.01,91.965,318.95,7.877z M252.584,14.667
					c0,0,11.781-0.079,17.083-0.382c12.117-0.694,35.965,1.3,35.965,1.3c-0.179,18.433-0.357,37.867-0.536,56.3l0.177,4.043
					c-16.983,0.245-53.111,0.361-53.111,0.361C251.784,71.591,252.217,31.603,252.584,14.667z M305.012,197.136
					c0,0-47.947,0.306-51.24-0.512L253.28,85.659c16.468-1.437,51.915-0.279,51.915-0.279
					C304.801,120.632,305.406,161.884,305.012,197.136z M244.11,15.19l0.304,1.913c1.37,23.489,0.18,59.763,0.18,59.763
					c-18.573-1.015-34.81-1.274-54.758-0.325l-1.852,0.204c-0.432-20.38-1.121-61.661-1.121-61.661
					C205.943,15.419,225.029,15.455,244.11,15.19z M243.022,197.164l-55.394,0.373c0.473-37.03,0.543-74.066,0.211-111.098
					l0.003-0.635c17.942-1.214,55.878-0.362,55.878-0.362C243.488,121.017,241.784,169.591,243.022,197.164z M307.345,249.48
					l-120.353,0.46c-0.464-14.227,0.354-45.431,0.354-45.431c39.122-1.188,80.287-0.928,119.39,0.778
					C306.737,205.287,307.784,234.591,307.345,249.48z"/>
			</g>
		</g>
	</g>
	<g id="XMLID_3_">
		<g>
			<path class="st4" d="M463.166,119.53c0.118,1.224-1.082,2.111-2.141,2.732c-1.395,0.81-2.791,1.626-4.181,2.442
				c-0.745,0.438-1.608,1.118-1.401,1.957c0.296,1.242,2.407,1.011,2.998,2.146c0.455,0.869-0.302,1.868-1.023,2.531
				c-4.589,4.216-10.271,7.226-16.326,8.657c-0.171-0.591-0.455-1.135-0.875-1.614c-0.343-0.384-0.751-0.71-1.165-1.023
				c4.281-4.287,9.981-10.98,12.743-15.037c0.183-0.272,0.118-0.639-0.154-0.822s-0.639-0.118-0.822,0.154
				c-2.75,4.039-8.444,10.714-12.683,14.954c-0.225-0.213-0.426-0.438-0.591-0.698c-1.478-2.288,0.479-5.718-1.129-7.918
				c-0.207-0.278-0.455-0.514-0.727-0.721c-0.355-1.295-0.603-2.631-0.367-3.944c0.278-1.567,1.455-3.087,3.033-3.246
				c1.395-0.142,2.655,0.751,3.92,1.354c0.313,0.148,0.698,0.272,0.987,0.083c0.189-0.13,0.272-0.367,0.325-0.591
				c0.337-1.366,0.006-2.797-0.302-4.169c-0.307-1.378-0.579-2.832-0.142-4.169c0.443-1.336,1.863-2.46,3.211-2.064
				c1.206,0.349,1.815,1.644,2.436,2.732c0.621,1.094,1.721,2.223,2.933,1.886c1.106-0.302,1.526-1.597,1.934-2.667
				c0.999-2.59,2.939-4.807,5.375-6.15c0.532-0.29,1.177-0.538,1.709-0.26c0.319,0.166,0.526,0.485,0.656,0.822
				c1.224,3.069-2.708,6.818-0.822,9.538C461.363,117.555,463.036,118.158,463.166,119.53z"/>
			<path class="st5" d="M403.812,209.1c1.194,0.266,2.513,0.526,3.932,0.769c11.442,1.957,29.465,2.85,41.563-0.177
				c0.343-0.083,0.686-0.171,1.017-0.266c1.863-0.514,3.571-1.135,5.073-1.863c0.083,13.287-1.685,30.221-4.027,40.185
				c-1.283,5.458-7.332,7.764-7.332,7.764c-8.527,0.798-17.077,0.727-25.639,0.97c-2.483,0.065-6.286,0.083-8.467-1.106
				c-2.495-1.36-3.808-4.104-5.133-6.617c-4.281-8.107-6.055-21.115-6.244-30.162c-0.053-2.549,0.39-10.839,0.39-10.839
				c0.03-0.018,0.059-0.035,0.089-0.059C400.216,208.178,401.843,208.657,403.812,209.1z"/>
			<path class="st6" d="M455.397,207.208c0,0.118,0,0.237,0,0.355c-1.502,0.727-3.211,1.348-5.073,1.863
				c-0.284-0.065-0.568-0.13-0.851-0.207c0.166-0.55,0.272-1.118,0.325-1.691c0.065-0.668,0.059-1.342,0.03-2.01
				C451.731,206.014,453.593,206.581,455.397,207.208z"/>
			<path class="st5" d="M449.827,205.517c0.03,0.668,0.035,1.342-0.03,2.01c-0.053,0.574-0.16,1.141-0.325,1.691
				c-2.058-0.532-4.08-1.39-6.197-1.656c-1.555-0.195-3.14-0.077-4.689-0.325c-1.1-0.171-2.158-0.532-3.24-0.804
				c-0.154-0.035-0.307-0.071-0.461-0.106c-1.662-0.361-3.364-0.414-5.073-0.367c0.047-1.076,0.077-2.223,0.089-3.424
				C436.564,202.85,443.435,203.832,449.827,205.517z"/>
			<path class="st7" d="M450.323,209.425c-0.331,0.095-0.674,0.183-1.017,0.266c0.059-0.154,0.118-0.313,0.166-0.473
				C449.756,209.295,450.039,209.36,450.323,209.425z"/>
			<path class="st8" d="M438.137,136.607c4.24-4.24,9.934-10.915,12.683-14.954c0.183-0.272,0.55-0.337,0.822-0.154
				s0.337,0.55,0.154,0.822c-2.761,4.056-8.461,10.75-12.743,15.037C438.734,137.115,438.42,136.873,438.137,136.607z"/>
			<path class="st8" d="M436.747,138.759c-0.225-0.237-0.213-0.609,0.03-0.834c0.432-0.402,0.887-0.846,1.36-1.319
				c0.284,0.266,0.597,0.509,0.917,0.751c-0.514,0.514-1.005,0.993-1.472,1.431c-0.112,0.106-0.254,0.16-0.402,0.16
				C437.019,138.948,436.865,138.883,436.747,138.759z"/>
			<path class="st7" d="M434.884,206.327c0.154,0.035,0.307,0.071,0.461,0.106l-0.248,1.431c-1.035,0.242-2.07,0.491-3.11,0.715
				c-1.035,0.219-1.384-0.313-2.3-0.692c0.047-0.609,0.089-1.254,0.124-1.928C431.52,205.913,433.223,205.966,434.884,206.327z"/>
			<path class="st9" d="M429.9,202.537c-0.012,1.2-0.041,2.347-0.089,3.424c-0.822,0.018-1.644,0.065-2.466,0.112
				c-0.999,0.053-2.005,0.112-3.004,0.177c0.077-1.194,0.136-2.483,0.189-3.826C426.293,202.407,428.09,202.442,429.9,202.537z"/>
			<path class="st4" d="M455.763,169.637c-4.453,2.135-16.261,5.535-23.096,5.535c-1.703,0-3.092-0.207-3.985-0.704
				c-0.29-0.16-0.39-0.514-0.237-0.804c0.16-0.284,0.52-0.39,0.804-0.231c1.662,0.917,6.108,0.704,12.199-0.585
				c5.156-1.094,10.833-2.85,13.807-4.275c0.296-0.142,0.645-0.018,0.786,0.278C456.183,169.14,456.059,169.495,455.763,169.637z"/>
			<path class="st4" d="M428.309,167.331c0.059,0,0.112-0.006,0.171-0.024c0.313-0.095,0.491-0.426,0.396-0.739
				c-3.051-10.182-13.269-20.778-19.087-26.189c-0.242-0.225-0.615-0.213-0.84,0.03c-0.219,0.237-0.207,0.615,0.03,0.834
				c5.736,5.328,15.794,15.752,18.762,25.668C427.818,167.165,428.055,167.331,428.309,167.331z M402.186,134.626
				c0.237-0.698,0.597-1.342,1.082-1.904c1.295-1.502,3.637-2.087,5.381-1.325c0.432,0.183,0.828,0.455,1.159,0.81
				c0.81,0.869,1.153,2.07,1.756,3.087c0.544,0.917,1.502,1.744,2.519,1.691c0.118,0,0.242-0.018,0.367-0.053
				c0.899-0.242,1.437-1.129,2.081-1.803c1.455-1.508,3.885-2.034,5.777-1.135s3.033,3.223,2.46,5.239
				c0.278-0.313,0.609-0.55,0.97-0.715c0.248,0.934,0.538,1.774,0.851,2.454c0.101,0.213,0.313,0.343,0.538,0.343
				c0.083,0,0.171-0.018,0.248-0.053c0.296-0.142,0.426-0.491,0.29-0.786c-0.29-0.615-0.55-1.384-0.781-2.253
				c1.342-0.118,2.832,0.455,3.772,1.472c1.502,1.632,1.928,3.968,2.129,6.179c0.585,6.634-0.302,13.292-1.283,19.891
				c-0.065,0.449-0.136,0.893-0.201,1.342c-0.059,0.426-0.142,0.881-0.449,1.183c-0.331,0.313-0.828,0.367-1.283,0.39
				c-1.141,0.053-2.288,0.018-3.424-0.095c-0.562-0.911-1.265-1.679-2.135-2.241c-1.33-0.857-2.957,0.035-4.334-0.751
				c-1.425-0.804-2.566-3.299-4.127-3.79c-0.633-0.195-1.372-0.142-2.005,0.106c-0.089-0.55-0.154-1.106-0.39-1.602
				c-0.668-1.39-2.413-1.78-3.867-2.312c-1.591-0.579-3.294-1.461-4.293-2.791c-0.331-0.443-0.585-0.934-0.733-1.478
				c-0.786-2.951,3.347-5.156,1.579-7.598c-1.449-1.999-2.933-4.039-3.648-6.398C401.695,138.085,401.63,136.228,402.186,134.626z"
				/>
			<path class="st8" d="M428.682,174.468c0.893,0.497,2.282,0.704,3.985,0.704c6.835,0,18.644-3.4,23.096-5.535
				c0.296-0.142,0.42-0.497,0.278-0.786c-0.142-0.296-0.491-0.42-0.786-0.278c-2.974,1.425-8.651,3.181-13.807,4.275
				c-6.09,1.289-10.537,1.502-12.199,0.585c-0.284-0.16-0.645-0.053-0.804,0.231C428.291,173.953,428.392,174.308,428.682,174.468z
				 M429.486,180.57c-0.562-0.213-1.088-0.461-1.573-0.763h-0.035c0.035-0.656,0.071-1.378,0.124-2.176
				c0.183-2.897-0.272-6.498-1.857-9.047c1.135,0.112,2.282,0.148,3.424,0.095c0.455-0.024,0.952-0.077,1.283-0.39
				c0.307-0.302,0.39-0.757,0.449-1.183c0.065-0.449,0.136-0.893,0.201-1.342l0.071,0.012c2.07-1.803,4.133-3.607,6.197-5.41
				c0.42-0.367,0.851-0.745,1.218-1.165c1.088,0.325,2.2,0.662,2.206,1.336c0,1.141,0.633,2.578,1.762,2.436
				c0.449-0.053,0.822-0.367,1.183-0.65c1.324-1.035,2.874-1.792,4.512-2.2c0.81-0.201,1.916-0.166,2.188,0.627
				c0.266,0.781-0.55,1.744-0.059,2.407c0.207,0.278,0.579,0.378,0.922,0.414c1.691,0.195,3.323-0.574,4.943-1.1
				c1.626-0.526,3.571-0.757,4.884,0.325c1.035,0.846,1.384,2.336,1.153,3.654c-0.231,1.319-0.958,2.501-1.762,3.566
				c-5.96,7.906-13.57,11.584-23.469,11.649C435.428,181.676,432.129,181.569,429.486,180.57z"/>
			<path class="st9" d="M427.913,179.807c0.485,0.302,1.011,0.55,1.573,0.763c-0.006,5.943,0.503,14.818,0.414,21.967
				c-1.809-0.095-3.607-0.13-5.369-0.112c0.231-5.387,0.355-11.69,0.621-16.332c2.265-1.591,2.543-3.252,2.726-6.286H427.913z"/>
			<path class="st8" d="M425.152,186.093c-3.512,2.466-8.355,0.402-11.791-2.17s-7.107-5.759-11.371-5.251
				c-2.253,0.272-4.447,1.602-6.664,1.112c-4.316-0.946-4.6-7.267-7.994-10.088c-1.827-1.52-4.352-1.839-6.487-2.88
				s-4.021-3.601-2.856-5.671c0.769-1.366,3.087-2.424,4.648-2.566c3.772-0.343,7.054,1.07,10.36,2.921
				c0.207-3.772,1.644-8.367,5.375-8.958c2.282-0.361,4.328,1.005,5.925,2.803c0.562,0.621,1.064,1.301,1.508,1.975
				c1.709,2.608,3.353,5.641,6.303,6.646c-0.177-0.952,0.514-1.703,1.437-2.058c0.047,0.278,0.101,0.55,0.189,0.816
				c0.432,1.289,1.626,2.152,2.809,2.82c2.945,1.667,6.238,2.708,9.603,3.039c1.585,2.549,2.04,6.15,1.857,9.047
				c-0.053,0.798-0.089,1.52-0.124,2.176C427.694,182.84,427.416,184.502,425.152,186.093z M426.316,179.878
				c-6.244-4.996-26.059-10.442-31.215-11.406c-0.325-0.065-0.633,0.148-0.692,0.467c-0.059,0.325,0.154,0.633,0.473,0.692
				c5.617,1.053,24.894,6.528,30.694,11.17c0.106,0.089,0.237,0.13,0.367,0.13c0.171,0,0.343-0.077,0.461-0.225
				C426.612,180.452,426.571,180.079,426.316,179.878z"/>
			<path class="st4" d="M427.665,140.474c0.136,0.296,0.006,0.645-0.29,0.786c-0.077,0.035-0.166,0.053-0.248,0.053
				c-0.225,0-0.438-0.13-0.538-0.343c-0.313-0.68-0.603-1.52-0.851-2.454c0.361-0.166,0.745-0.266,1.147-0.296
				C427.115,139.09,427.375,139.859,427.665,140.474z"/>
			<path class="st4" d="M425.548,123.503c-0.343,3.359,0.148,10.33,1.336,14.717c-0.402,0.03-0.786,0.13-1.147,0.296
				c-1.248-4.618-1.715-11.702-1.366-15.137c0.035-0.319,0.331-0.562,0.65-0.526C425.347,122.889,425.583,123.178,425.548,123.503z"
				/>
			<path class="st9" d="M427.345,206.073c0.822-0.047,1.644-0.095,2.466-0.112c-0.035,0.674-0.077,1.319-0.124,1.928
				c-0.461-0.195-1.064-0.349-1.969-0.349c-0.993,0-2.235,0.065-3.477,0.166c0.035-0.467,0.071-0.952,0.101-1.455
				C425.341,206.185,426.346,206.126,427.345,206.073z"/>
			<path class="st5" d="M424.531,202.424c-0.053,1.342-0.112,2.631-0.189,3.826c-3.152,0.201-6.297,0.497-9.372,1.171
				c-1.189,0.26-2.371,0.579-3.583,0.739c-1.697,0.225-3.471,0.148-5.162,0.355c-0.822-0.952-1.425-2.099-1.727-3.317
				C409.855,203.412,416.915,202.466,424.531,202.424z"/>
			<path class="st7" d="M414.969,207.421c3.075-0.674,6.22-0.97,9.372-1.171c-0.03,0.503-0.065,0.987-0.101,1.455
				c1.242-0.101,2.483-0.166,3.477-0.166c0.905,0,1.508,0.154,1.969,0.349c0.917,0.378,1.265,0.911,2.3,0.692
				c1.041-0.225,2.075-0.473,3.11-0.715l0.248-1.431c1.082,0.272,2.141,0.633,3.24,0.804c1.549,0.248,3.134,0.13,4.689,0.325
				c2.117,0.266,4.139,1.123,6.197,1.656c-0.047,0.16-0.106,0.319-0.166,0.473c-12.098,3.027-30.121,2.135-41.563,0.177
				c-0.568-0.378-1.076-0.84-1.52-1.354c1.691-0.207,3.465-0.13,5.162-0.355C412.598,208,413.781,207.681,414.969,207.421z"/>
			<path class="st8" d="M427.192,97.534c-1.626,9.236-4.577,18.117-8.225,25.03c-0.432,0.378-0.875,0.745-1.313,1.1
				c-0.408,0.331-0.828,0.668-1.236,1.011c4.275-7.084,7.782-16.982,9.609-27.348c0.053-0.319,0.367-0.538,0.686-0.479
				S427.245,97.208,427.192,97.534z"/>
			<path class="st4" d="M419.676,165.592c1.378,0.786,3.004-0.106,4.334,0.751c0.869,0.562,1.573,1.33,2.135,2.241
				c-3.365-0.331-6.658-1.372-9.603-3.039c-1.183-0.668-2.377-1.531-2.809-2.82c-0.089-0.266-0.142-0.538-0.189-0.816
				c0.633-0.248,1.372-0.302,2.005-0.106C417.11,162.293,418.251,164.788,419.676,165.592z"/>
			<path class="st8" d="M414.236,127.95c0.745-1.005,1.472-2.099,2.182-3.276c0.408-0.343,0.828-0.68,1.236-1.011
				c0.438-0.355,0.881-0.721,1.313-1.1c-1.194,2.259-2.466,4.311-3.784,6.09c-0.112,0.16-0.29,0.242-0.473,0.242
				c-0.124,0-0.248-0.041-0.349-0.118C414.094,128.583,414.041,128.216,414.236,127.95z"/>
			<path class="st8" d="M412.261,129.612c0.869-1.993,2.472-3.524,4.157-4.937c-0.71,1.177-1.437,2.271-2.182,3.276
				c-0.195,0.266-0.142,0.633,0.124,0.828c0.101,0.077,0.225,0.118,0.349,0.118c0.183,0,0.361-0.083,0.473-0.242
				c1.319-1.78,2.59-3.832,3.784-6.09c1.626-1.419,3.122-3.016,3.826-5.032c0.721-2.064,0.946-4.884,3.063-5.446
				c1.75-0.467,3.323,1.189,3.95,2.927c0.041,0.118,0.083,0.231,0.112,0.343c1.017,3.506,0.201,7.965,3.051,10.241
				c0.828,0.662,1.892,1.041,2.72,1.673c0.272,0.207,0.52,0.443,0.727,0.721c1.608,2.2-0.349,5.629,1.129,7.918
				c0.166,0.26,0.367,0.485,0.591,0.698c-0.473,0.473-0.928,0.917-1.36,1.319c-0.242,0.225-0.254,0.597-0.03,0.834
				c0.118,0.124,0.272,0.189,0.432,0.189c0.148,0,0.29-0.053,0.402-0.16c0.467-0.438,0.958-0.917,1.472-1.431
				c0.414,0.313,0.822,0.639,1.165,1.023c0.42,0.479,0.704,1.023,0.875,1.614c0.497,1.667,0.118,3.66-0.491,5.369
				c-0.822,2.306-1.987,4.665-1.573,7.078c0.284,1.703,1.348,3.347,0.94,5.02c-0.16,0.662-0.526,1.23-0.982,1.738
				c-0.367,0.42-0.798,0.798-1.218,1.165c-2.064,1.803-4.127,3.607-6.197,5.41l-0.071-0.012c0.982-6.599,1.869-13.257,1.283-19.891
				c-0.201-2.211-0.627-4.547-2.129-6.179c-0.94-1.017-2.43-1.591-3.772-1.472c-1.189-4.387-1.679-11.359-1.336-14.717
				c0.035-0.325-0.201-0.615-0.526-0.65c-0.319-0.035-0.615,0.207-0.65,0.526c-0.349,3.435,0.118,10.519,1.366,15.137
				c-0.361,0.166-0.692,0.402-0.97,0.715c0.574-2.016-0.568-4.34-2.46-5.239s-4.322-0.373-5.777,1.135
				c-0.645,0.674-1.183,1.561-2.081,1.803c-0.124,0.035-0.248,0.053-0.367,0.053l-0.012-0.237
				C411.676,135.495,411.173,132.089,412.261,129.612z"/>
			<path class="st8" d="M387.161,106.852c0.987-0.438,2.064-0.532,3.092-0.106c2.288,0.946,3.707,4.169,6.138,3.725
				c1.265-0.225,1.91-1.259,2.448-2.483c0.432,0.42,0.851,0.828,1.265,1.23c0.118,0.106,0.266,0.166,0.414,0.166
				c0.154,0,0.307-0.059,0.426-0.183c0.225-0.231,0.219-0.609-0.012-0.834c-0.52-0.503-1.058-1.023-1.608-1.561
				c0.343-0.851,0.715-1.703,1.259-2.365c0.438-0.526,0.993-0.911,1.614-1.159c1.555-0.633,3.506-0.408,4.937,0.538
				c2.005,1.319,3.087,3.713,3.418,6.09c0.106,0.763,0.065,1.543-0.03,2.318c-0.189,1.638-0.585,3.288-0.171,4.866
				c0.846,3.223,2.046,7.947-0.142,12.092c-8.462-4.937-20.234-10.176-27.762-13.015c-0.307-0.112-0.645,0.041-0.763,0.343
				c-0.118,0.307,0.041,0.65,0.343,0.763c7.716,2.909,19.513,8.225,27.572,12.92c-0.278,0.408-0.591,0.81-0.952,1.2
				c-1.744-0.763-4.086-0.177-5.381,1.325c-0.485,0.562-0.846,1.206-1.082,1.904c-1.969,0.177-4.263,0.828-5.742,0.958
				c-3.323,0.296-4.027-5.393-7.249-6.28c-2.359-0.65-4.861,1.662-7.155,0.816c-2.785-1.029-2.229-5.127-3.548-7.787
				c-1.029-2.087-3.258-3.24-5.05-4.724s-3.294-3.991-2.194-6.043c0.851-1.591,2.957-2.123,4.724-1.786
				c1.774,0.343,3.323,1.354,4.92,2.194c0.455,0.242,0.97,0.473,1.466,0.337c0.686-0.195,0.982-0.97,1.248-1.632
				C384.263,109.052,385.605,107.532,387.161,106.852z"/>
			<path class="st8" d="M409.79,140.379c5.818,5.41,16.036,16.007,19.087,26.189c0.095,0.313-0.083,0.645-0.396,0.739
				c-0.059,0.018-0.112,0.024-0.171,0.024c-0.254,0-0.491-0.166-0.568-0.42c-2.968-9.916-13.026-20.341-18.762-25.668
				c-0.237-0.219-0.248-0.597-0.03-0.834C409.175,140.166,409.547,140.154,409.79,140.379z"/>
			<path class="st4" d="M410.872,129.57c0.284,0.166,0.373,0.526,0.207,0.81c-0.112,0.183-0.307,0.29-0.509,0.29
				c-0.101,0-0.207-0.03-0.302-0.083c-0.219-0.13-0.443-0.26-0.668-0.39c0.231-0.331,0.432-0.668,0.609-1.011
				C410.434,129.31,410.653,129.44,410.872,129.57z"/>
			<path class="st4" d="M412.261,129.612c-1.088,2.478-0.585,5.883,1.809,7.137l0.012,0.237c-1.017,0.053-1.975-0.775-2.519-1.691
				c-0.603-1.017-0.946-2.217-1.756-3.087c-0.331-0.355-0.727-0.627-1.159-0.81c0.361-0.39,0.674-0.792,0.952-1.2
				c0.225,0.13,0.449,0.26,0.668,0.39c0.095,0.053,0.201,0.083,0.302,0.083c0.201,0,0.396-0.106,0.509-0.29
				c0.166-0.284,0.077-0.645-0.207-0.81c-0.219-0.13-0.438-0.26-0.662-0.384c2.188-4.145,0.987-8.87,0.142-12.092
				c-0.414-1.579-0.018-3.229,0.171-4.866h0.006c2.874-1.792,2.466-5.972,2.265-9.354c-0.136-2.217-0.03-4.447,0.319-6.64
				c0.367-2.33,1.147-4.819,3.128-6.102c1.975-1.283,5.328-0.373,5.54,1.975c1.786-5.404,4.216-10.596,7.22-15.433
				c0.745-1.2,1.579-2.424,2.832-3.069c1.254-0.645,3.045-0.461,3.767,0.751c0.378,0.633,0.396,1.425,0.319,2.158
				c-0.367,3.365-2.56,6.351-2.744,9.727c-0.254,4.807,3.548,8.834,4.748,13.493c0.207,0.804,0.337,1.65,0.13,2.454
				c-0.278,1.076-1.106,1.904-1.857,2.726c-2.59,2.838-4.577,6.226-5.801,9.869l-0.591,0.231c-0.627-1.738-2.2-3.394-3.95-2.927
				c-2.117,0.562-2.342,3.382-3.063,5.446c-0.704,2.016-2.2,3.613-3.826,5.032c3.648-6.912,6.599-15.794,8.225-25.03
				c0.053-0.325-0.16-0.627-0.479-0.686s-0.633,0.16-0.686,0.479c-1.827,10.366-5.334,20.264-9.609,27.348
				C414.733,126.087,413.13,127.619,412.261,129.612z"/>
			<path class="st4" d="M395.102,168.472c5.156,0.964,24.971,6.41,31.215,11.406c0.254,0.201,0.296,0.574,0.089,0.828
				c-0.118,0.148-0.29,0.225-0.461,0.225c-0.13,0-0.26-0.041-0.367-0.13c-5.801-4.642-25.077-10.117-30.694-11.17
				c-0.319-0.059-0.532-0.367-0.473-0.692C394.469,168.62,394.777,168.407,395.102,168.472z"/>
			<path class="st7" d="M406.224,208.515c0.443,0.514,0.952,0.976,1.52,1.354c-1.419-0.242-2.738-0.503-3.932-0.769
				C404.58,208.793,405.39,208.621,406.224,208.515z"/>
			<path class="st6" d="M404.498,205.198c0.302,1.218,0.905,2.365,1.727,3.317c-0.834,0.106-1.644,0.278-2.413,0.585
				c-1.969-0.443-3.595-0.922-4.778-1.401C400.548,206.741,402.392,205.907,404.498,205.198z"/>
			<path class="st4" d="M402.664,89.652c2.43,3.979-2.288,9.479-0.467,13.629c-0.621,0.248-1.177,0.633-1.614,1.159
				c-0.544,0.662-0.917,1.514-1.259,2.365c-2.223-2.146-4.636-4.494-7.042-6.83c-3.004-2.915-6.008-5.836-8.645-8.391
				c-0.237-0.225-0.609-0.219-0.84,0.012c-0.225,0.237-0.219,0.609,0.012,0.84c2.643,2.554,5.647,5.47,8.651,8.391
				c2.537,2.46,5.067,4.92,7.379,7.161c-0.538,1.224-1.183,2.259-2.448,2.483c-2.43,0.443-3.849-2.779-6.138-3.725
				c-1.029-0.426-2.105-0.331-3.092,0.106c-0.946-1.514-3.37-3.093-4.849-3.317c-1.738-0.26-3.849-0.958-4.074-2.702
				c-0.059-0.485,0.053-0.976,0.041-1.466c-0.047-1.709-1.508-2.98-2.696-4.216c-1.455-1.514-2.637-3.282-3.483-5.203
				c-0.751-1.703-1.23-3.666-0.591-5.416c0.633-1.75,2.744-3.039,4.423-2.241c1.372,0.656,2.034,2.395,3.471,2.874
				c1.845,0.615,3.849-1.177,5.7-0.574c1.768,0.579,2.259,2.945,3.832,3.932c2.046,1.289,4.6-0.278,6.924-0.94
				C398.307,86.884,401.334,87.476,402.664,89.652z"/>
			<path class="st8" d="M400.932,108.366c0.231,0.225,0.237,0.603,0.012,0.834c-0.118,0.124-0.272,0.183-0.426,0.183
				c-0.148,0-0.296-0.059-0.414-0.166c-0.414-0.402-0.834-0.81-1.265-1.23c0.166-0.384,0.319-0.781,0.485-1.183
				C399.874,107.343,400.412,107.864,400.932,108.366z"/>
			<path class="st4" d="M409.6,130.197c-8.059-4.695-19.856-10.011-27.572-12.92c-0.302-0.112-0.461-0.455-0.343-0.763
				c0.118-0.302,0.455-0.455,0.763-0.343c7.527,2.838,19.3,8.077,27.762,13.015C410.032,129.529,409.831,129.866,409.6,130.197z"/>
			<path class="st8" d="M391.459,100.827c-3.004-2.921-6.008-5.836-8.651-8.391c-0.231-0.231-0.237-0.603-0.012-0.84
				c0.231-0.231,0.603-0.237,0.84-0.012c2.637,2.554,5.641,5.475,8.645,8.391c2.407,2.336,4.819,4.683,7.042,6.83
				c-0.166,0.402-0.319,0.798-0.485,1.183C396.527,105.747,393.996,103.287,391.459,100.827z"/>
		</g>
	</g>
	<g id="XMLID_5_">
		<g>
			<path class="st10" d="M144.156,183.711c0.792,3.962,1.322,6.607-2.083,10.296c-0.05-0.111-0.103-0.223-0.156-0.334
				c-0.745-1.529-1.996-2.56-1.996-2.56C142.319,189.367,143.626,187.157,144.156,183.711z"/>
			<path class="st1" d="M135.765,226.964c-0.769,1.211-1.397,2.454-2.279,3.721c-1.315,1.884-3.907,6.032-3.907,6.032
				c-0.13,1.696-0.196,3.843-0.231,5.931c-0.034,2.155-0.034,4.251-0.034,5.73c0,1.325,0.183,3.769,1.325,4.506
				c0.543,0.35,1.603,0.734,2.25,0.753c1.46,0.042,1.855,1.519,1.574,2.844c-0.284,1.323-1.569,1.741-2.907,1.945
				c-1.338,0.201-2.703-0.22-3.907-0.837c-4.89-2.505-7.612-7.885-8.606-13.172c-0.066,2.372-1.042,3.546-2.041,4.784
				c-1.471,1.829-1.736,2.094-3.591,3.154c2.385-0.265,4.32-0.05,6.053,0.628c1.103,0.432,2.096,2.03,2.287,3.408
				c0.14,0.999-0.832,1.781-1.45,1.794c-6.822,0.138-12.056-0.199-20.262-0.543c-0.686-0.029-1.397-0.058-2.128-0.087
				c-0.087-0.135-0.17-0.276-0.246-0.413c-0.954-1.699-1.908-3.398-2.865-5.097c-0.289-0.517-0.591-1.044-0.994-1.474
				c0.008-0.008,0.019-0.013,0.027-0.019c0,0-2.772-6.512-3.724-11.799c0.607-0.201,1.254-0.289,1.892-0.249
				c0.262,0.016,0.533,0.056,0.763,0.188c0.692,0.403,0.681,1.378,0.724,2.179c0.04,0.753,0.209,1.521,0.649,2.133
				s1.187,1.039,1.937,0.949c0.623-0.074,1.153-0.477,1.646-0.867c1.044-0.822,2.091-1.643,3.135-2.465
				c0.599-0.472,1.23-0.986,1.46-1.712c0.148-0.469,0.111-0.975,0.148-1.466c0.14-1.895,1.503-3.642,3.308-4.238
				c1.235-0.405,2.573-0.302,3.854-0.525c1.28-0.225,2.642-0.951,2.929-2.218c0.307-1.362-0.731-2.621-1.121-3.962
				c-0.297-1.026-0.199-2.16,0.27-3.119c0.549-1.124,1.561-1.974,2.051-3.122c0.607-1.418,0.323-3.045-0.069-4.535
				c-0.286-1.089-0.649-2.205-1.421-3.029c-0.83-0.891-2.027-1.328-3.045-1.993c3.135-0.811,6.006-1.05,8.696-3.668
				c0.18-0.172,0.39-0.578,0.58-1.002c0.79-0.419,1.516-0.965,2.134-1.611c0.729-0.761,1.309-1.659,2.086-2.375
				c1.11-1.023,2.547-1.609,3.978-2.091c0.795-0.27,1.63-0.53,2.226-1.121c0.75-0.742,0.975-1.868,0.97-2.923
				c-0.005-1.055-0.204-2.107-0.143-3.159c0.072-1.28,0.519-2.505,0.819-3.75c0.191-0.792,0.318-1.63,0.252-2.436
				c2.536,0.011,5.165,0.591,6.711,1.916c2.359-1.985,4.15-2.934,6.626-4.771c-0.53,3.445-1.837,5.656-4.235,7.402
				c0,0,1.251,1.031,1.996,2.56c0.053,0.111,0.106,0.223,0.156,0.334c1.052,2.332,1.33,4.911,0.832,7.087
				c-0.604,2.642-2.118,3.636-2.99,6.204c-0.922,2.711-0.62,6.681-0.636,9.544c-0.021,3.803-1.044,6.97-2.2,8.314
				C136.573,225.751,136.149,226.352,135.765,226.964z M136.735,197.713c1.59-0.236,2.915-2.584,2.915-2.584
				s-0.514-0.729-1.352-1.28c-0.326-0.519-0.906-0.861-1.564-0.861c-0.459,0-0.88,0.167-1.203,0.445
				c-1.206,0.498-1.81,1.916-2.242,2.87C133.82,197.241,135.145,197.946,136.735,197.713z M135.386,211.73
				c1.012-1.171,1.349-3.371,0.641-4.084c-0.618-0.082-0.978,0.546-1.161,0.745c-0.954,1.039-1.654,0.814-3.051,1.012
				c-0.464,0.064-0.933,0.125-1.399,0.08c-0.432-0.042-0.851-0.175-1.254-0.339c-1.018-0.413-1.948-1.028-2.725-1.802
				c-0.44-0.437-1.365-1.137-1.77-1.124c-0.655,0.021-0.607,1.089-0.612,1.28c-0.026,1.275,0.681,1.903,1.11,3.104
				c0.424,1.193,0.337,2.507,1.081,3.533c0.36,0.496,1.103,1.426,1.609,1.776c0.835,0.58,1.892,1.044,2.849,0.697
				c0.48-0.175,1.397-0.798,1.757-1.158c0.739-0.75,0.36-1.558,1.137-2.269C134.024,212.793,135.01,212.168,135.386,211.73z
				 M132.786,200.042c0.278-0.236,0.236-0.676-0.08-0.859c-0.326-0.188-0.769-0.366-1.272-0.366c-0.504,0-0.946,0.178-1.275,0.366
				c-0.315,0.183-0.355,0.623-0.08,0.859l1.01,0.867c0.027,0.021,0.053,0.04,0.08,0.056v1.034c0,0.146,0.119,0.265,0.265,0.265
				s0.265-0.119,0.265-0.265v-1.034c0.027-0.016,0.053-0.034,0.077-0.056L132.786,200.042z"/>
			<path class="st11" d="M138.354,261.991c0.843,0.583,1.699,1.662,1.678,2.685c-0.019,0.912-0.769,1.68-1.622,2.009
				c-0.851,0.329-2.852,0.048-3.766,0.034c-3.294-0.045-6.75-0.003-10.222,0.05c-0.504-0.514-0.84-1.195-0.922-1.911
				c-0.045-0.374-0.024-0.753-0.072-1.126c-0.143-1.145-0.922-2.126-1.853-2.807c-0.167-0.122-0.342-0.241-0.514-0.363
				C127.109,259.963,133.496,258.625,138.354,261.991z"/>
			<path class="st11" d="M138.855,249.792c0.315,0.88,0.215,1.9-0.262,2.706c-0.376,0.631-0.975,1.153-1.418,1.733
				c-1.063-0.686-2.004-1.635-2.902-2.809c-1.672-2.192-3.443-4.996-4.63-7.993l0.188-0.074c-0.125-0.922,0.125-1.892,0.678-2.64
				c0.191-0.257,0.413-0.49,0.565-0.771c0.146-0.273,0.228-0.594,0.456-0.803c0.191-0.175,0.453-0.241,0.705-0.299
				c0.443-0.106,0.92-0.212,1.341-0.045c0.36,0.14,0.623,0.453,0.843,0.771c0.4,0.567,0.731,1.198,0.867,1.879
				c0.183,0.898,0.019,1.845,0.236,2.732c0.188,0.774,0.647,1.447,1.097,2.102c0.474,0.692,0.949,1.381,1.423,2.073
				C138.354,248.808,138.67,249.269,138.855,249.792z"/>
			<path class="st12" d="M138.299,193.849c0.186,0.286,0.292,0.628,0.292,0.994c0,1.023-0.832,1.855-1.855,1.855
				c-0.771,0-1.431-0.472-1.712-1.14c0.151-0.003,0.31-0.058,0.448-0.167c0.289-0.225,0.376-0.596,0.193-0.827
				c-0.162-0.207-0.48-0.231-0.75-0.072c0.08-0.424,0.302-0.795,0.618-1.06c0.281-0.114,0.591-0.18,0.938-0.18
				C137.167,193.252,137.792,193.517,138.299,193.849z"/>
			<path class="st1" d="M136.735,192.987c0.657,0,1.238,0.342,1.564,0.861c-0.506-0.331-1.132-0.596-1.829-0.596
				c-0.347,0-0.657,0.066-0.938,0.18C135.855,193.154,136.276,192.987,136.735,192.987z"/>
			<path class="st12" d="M136.027,207.646c0.708,0.713,0.371,2.913-0.641,4.084c-0.376,0.437-1.362,1.063-1.786,1.45
				c-0.777,0.71-0.398,1.519-1.137,2.269c-0.36,0.36-1.277,0.983-1.757,1.158c-0.957,0.347-2.014-0.117-2.849-0.697
				c-0.506-0.35-1.248-1.28-1.609-1.776c-0.745-1.026-0.657-2.34-1.081-3.533c-0.429-1.201-1.137-1.829-1.11-3.104
				c0.005-0.191-0.042-1.259,0.612-1.28c0.405-0.013,1.33,0.686,1.77,1.124c0.777,0.774,1.707,1.389,2.725,1.802
				c0.403,0.164,0.822,0.297,1.254,0.339c0.466,0.045,0.936-0.016,1.399-0.08c1.397-0.199,2.096,0.027,3.051-1.012
				C135.049,208.192,135.41,207.564,136.027,207.646z"/>
			<path class="st1" d="M135.664,194.564c0.183,0.231,0.095,0.602-0.193,0.827c-0.138,0.109-0.297,0.164-0.448,0.167
				c-0.093-0.22-0.143-0.461-0.143-0.716c0-0.119,0.011-0.236,0.034-0.35C135.184,194.334,135.502,194.357,135.664,194.564z"/>
			<path class="st1" d="M134.914,194.493c-0.024,0.114-0.034,0.231-0.034,0.35c0,0.254,0.05,0.496,0.143,0.716
				c-0.159,0.003-0.305-0.056-0.4-0.175c-0.18-0.231-0.093-0.599,0.193-0.824C134.848,194.535,134.88,194.511,134.914,194.493z"/>
			<path class="st13" d="M134.816,194.559c-0.286,0.225-0.374,0.594-0.193,0.824c0.095,0.119,0.241,0.178,0.4,0.175
				c0.281,0.668,0.941,1.14,1.712,1.14c1.023,0,1.855-0.832,1.855-1.855c0-0.366-0.106-0.708-0.292-0.994
				c0.837,0.551,1.352,1.28,1.352,1.28s-1.325,2.348-2.915,2.584c-1.59,0.233-2.915-0.472-3.445-1.41
				c0.432-0.954,1.036-2.372,2.242-2.87c-0.315,0.265-0.538,0.636-0.618,1.06C134.88,194.511,134.848,194.535,134.816,194.559z"/>
			<path class="st12" d="M132.706,199.184c0.315,0.183,0.358,0.623,0.08,0.859l-1.01,0.867c-0.024,0.021-0.05,0.04-0.077,0.056
				v-0.292h-0.53v0.292c-0.027-0.016-0.053-0.034-0.08-0.056l-1.01-0.867c-0.276-0.236-0.236-0.676,0.08-0.859
				c0.329-0.188,0.771-0.366,1.275-0.366C131.938,198.818,132.38,198.996,132.706,199.184z"/>
			<path class="st12" d="M131.699,200.965v1.034c0,0.146-0.119,0.265-0.265,0.265s-0.265-0.119-0.265-0.265v-1.034
				C131.334,201.06,131.538,201.06,131.699,200.965z"/>
			<path class="st12" d="M131.699,200.673v0.292c-0.162,0.095-0.366,0.095-0.53,0v-0.292H131.699z"/>
			<path class="st11" d="M130.819,186.566c0.066,0.806-0.061,1.643-0.252,2.436c-0.299,1.246-0.747,2.47-0.819,3.75
				c-0.061,1.052,0.138,2.104,0.143,3.159s-0.22,2.181-0.97,2.923c-0.596,0.591-1.431,0.851-2.226,1.121
				c-1.431,0.482-2.868,1.068-3.978,2.091c-0.777,0.716-1.357,1.614-2.086,2.375c-0.618,0.647-1.344,1.193-2.134,1.611
				c0.196-0.435,0.374-0.885,0.48-1.118c1.018-2.234-1.33-3.716-1.124-6.159c0.183-2.171,0.917-3.952,1.76-5.29
				c0.676-1.073,1.423-1.861,2.014-2.332c-0.098-0.681-1.004-1.248-1.325-1.855c-0.726-1.376-2.12-3.975-2.12-6.096
				c0.265,0.265,1.839,0.954,2.645,1.553c1.301,0.962,2.391,1.892,3.716,3.217c0.795-0.265,3.186-1.19,4.771-1.325
				C129.807,186.584,130.311,186.563,130.819,186.566z M128.254,196.303c-0.276-0.61-0.623-1.41-1.153-2.038
				c-0.244-0.742-0.941-1.277-1.762-1.277c-0.437,0-0.843,0.151-1.161,0.408c-1.373,0.44-2.285,1.733-2.285,1.733
				s1.325,2.348,2.915,2.584C126.399,197.946,127.724,197.241,128.254,196.303z"/>
			<path class="st14" d="M129.643,243.428c-0.103-0.26-0.201-0.517-0.294-0.779c0.034-2.088,0.101-4.235,0.231-5.931
				c0,0,2.592-4.148,3.907-6.032c0.883-1.267,1.511-2.51,2.279-3.721c0.792,7.519,1.617,16.072,4.68,21.945
				c0.223,0.429,0.951,1.529,1.397,1.72c0.395,0.167,1.108,0.352,1.535,0.352c1.129-0.003,2.03,0.435,2.322,1.524
				c0.27,0.997,0.021,2.088-0.8,2.711c-0.822,0.623-2.155,0.307-3.183,0.305c-1.786-0.005-3.252-0.456-4.54-1.291
				c0.443-0.58,1.042-1.103,1.418-1.733c0.477-0.806,0.578-1.826,0.262-2.706c-0.186-0.522-0.501-0.983-0.814-1.439
				c-0.474-0.692-0.949-1.381-1.423-2.073c-0.451-0.655-0.909-1.328-1.097-2.102c-0.217-0.888-0.053-1.834-0.236-2.732
				c-0.135-0.681-0.466-1.312-0.867-1.879c-0.22-0.318-0.482-0.631-0.843-0.771c-0.421-0.167-0.898-0.061-1.341,0.045
				c-0.252,0.058-0.514,0.125-0.705,0.299c-0.228,0.209-0.31,0.53-0.456,0.803c-0.151,0.281-0.374,0.514-0.565,0.771
				c-0.554,0.747-0.803,1.717-0.678,2.64L129.643,243.428z"/>
			<path class="st13" d="M127.101,194.265c0.53,0.628,0.877,1.429,1.153,2.038c-0.53,0.938-1.855,1.643-3.445,1.41
				c-1.59-0.236-2.915-2.584-2.915-2.584s0.912-1.293,2.285-1.733c-0.337,0.27-0.578,0.655-0.66,1.097
				c-0.034,0.019-0.066,0.042-0.098,0.066c-0.286,0.225-0.374,0.594-0.193,0.824c0.095,0.119,0.241,0.178,0.4,0.175
				c0.281,0.668,0.941,1.14,1.712,1.14c1.023,0,1.855-0.832,1.855-1.855C127.194,194.641,127.162,194.445,127.101,194.265z"/>
			<path class="st12" d="M127.194,194.842c0,1.023-0.832,1.855-1.855,1.855c-0.771,0-1.431-0.472-1.712-1.14
				c0.151-0.003,0.31-0.058,0.448-0.167c0.289-0.225,0.376-0.596,0.193-0.827c-0.162-0.207-0.48-0.231-0.75-0.072
				c0.082-0.443,0.323-0.827,0.66-1.097c0.281-0.09,0.58-0.143,0.896-0.143c0.891,0,1.537,0.432,2.027,1.012
				C127.162,194.445,127.194,194.641,127.194,194.842z"/>
			<path class="st11" d="M125.339,192.987c0.822,0,1.519,0.535,1.762,1.277c-0.49-0.58-1.137-1.012-2.027-1.012
				c-0.315,0-0.615,0.053-0.896,0.143C124.496,193.138,124.901,192.987,125.339,192.987z"/>
			<path class="st1" d="M124.268,194.564c0.183,0.231,0.095,0.602-0.193,0.827c-0.138,0.109-0.297,0.164-0.448,0.167
				c-0.093-0.22-0.143-0.461-0.143-0.716c0-0.119,0.011-0.236,0.034-0.35C123.788,194.334,124.106,194.357,124.268,194.564z"/>
			<path class="st1" d="M123.499,264.859c0.082,0.716,0.419,1.397,0.922,1.911c-10.084,0.148-20.346,0.371-27.441-1.333
				c-1.317-0.318-2.685-0.678-3.915-1.246c0.111-0.064,0.223-0.133,0.334-0.199c0.374-0.228,0.753-0.461,1.06-0.771
				c0.398-0.406,0.66-0.922,0.888-1.442c0.379-0.869,0.678-1.858,0.366-2.754c-0.045-0.133-0.106-0.273-0.064-0.405
				c0.077-0.254,0.424-0.276,0.686-0.246c0.625,0.074,1.251,0.17,1.879,0.156c0.024,0,0.048,0,0.072-0.003
				c0.003,0,0.003,0.003,0.005,0.003c3.194,2.041,12.47,2.571,20.1,2.234c0.877-0.04,1.77-0.111,2.669-0.201
				c0.172,0.122,0.347,0.241,0.514,0.363c0.93,0.681,1.709,1.662,1.853,2.807C123.475,264.106,123.454,264.485,123.499,264.859z"/>
			<path class="st1" d="M123.483,194.842c0,0.254,0.05,0.496,0.143,0.716c-0.159,0.003-0.305-0.056-0.4-0.175
				c-0.18-0.231-0.093-0.599,0.193-0.824c0.032-0.024,0.064-0.048,0.098-0.066C123.494,194.607,123.483,194.723,123.483,194.842z"/>
			<path class="st10" d="M120.303,189.277c0.321,0.607,1.227,1.174,1.325,1.855c-0.591,0.472-1.338,1.259-2.014,2.332
				c-2.873-1.998-2.491-8.428-1.431-10.283C118.183,185.301,119.577,187.901,120.303,189.277z"/>
			<path class="st11" d="M113.688,215.724c0.392,1.489,0.676,3.117,0.069,4.535c-0.49,1.148-1.503,1.998-2.051,3.122
				c-0.469,0.959-0.567,2.094-0.27,3.119c0.39,1.341,1.429,2.6,1.121,3.962c-0.286,1.267-1.648,1.993-2.929,2.218
				c-1.28,0.223-2.619,0.119-3.854,0.525c-1.805,0.596-3.167,2.343-3.308,4.238c-0.037,0.49,0,0.997-0.148,1.466
				c-0.231,0.726-0.861,1.24-1.46,1.712c-1.044,0.822-2.091,1.643-3.135,2.465c-0.493,0.39-1.023,0.792-1.646,0.867
				c-0.75,0.09-1.497-0.337-1.937-0.949c-0.44-0.612-0.61-1.381-0.649-2.133c-0.042-0.8-0.032-1.776-0.724-2.179
				c-0.231-0.133-0.501-0.172-0.763-0.188c-0.639-0.04-1.285,0.048-1.892,0.249c-0.156-0.859-0.262-1.686-0.302-2.446
				c-0.13-2.547-0.061-6.469,0.811-8.865c3.18-8.746,11.444-13.654,14.842-15.372c1.296-0.657,2.55-1.055,3.761-1.368
				c1.018,0.665,2.216,1.103,3.045,1.993C113.038,213.519,113.401,214.635,113.688,215.724z"/>
			<path class="st12" d="M97.746,257.549c0,0-0.175,0.517,0.541,0.978c-0.024,0.003-0.048,0.003-0.072,0.003
				c-0.628,0.013-1.254-0.082-1.879-0.156c-0.262-0.029-0.61-0.008-0.686,0.246c-0.042,0.133,0.019,0.273,0.064,0.405
				c0.313,0.896,0.013,1.884-0.366,2.754c-0.228,0.519-0.49,1.036-0.888,1.442c-0.307,0.31-0.686,0.543-1.06,0.771
				c-0.111,0.066-0.223,0.135-0.334,0.199c-1.156-0.527-2.192-1.235-2.958-2.247c-1.381-1.823-1.627-3.835-0.885-5.998
				c0.742-2.152,2.637-4.19,4.585-5.375c0.403,0.429,0.705,0.957,0.994,1.474c0.957,1.699,1.911,3.398,2.865,5.097
				c0.077,0.138,0.159,0.278,0.246,0.413C97.857,257.554,97.802,257.552,97.746,257.549z"/>
		</g>
	</g>
	<path class="st15" d="M375.205,138.643c-37.378,0.414-74.759,0.264-112.139,0.114c-84.637-0.34-167.321,0.175-251.958-0.166h-3.32
		c-0.377,0-0.683,0.306-0.688,0.682c-0.409,31.122-0.588,59.649-1,90.81c-0.21,15.857-0.781,29.651-0.991,45.508l-0.071,4.136
		c-0.007,0.384,0.302,0.699,0.686,0.7c71.66,0.155,143.319,0.311,214.979,0.466c90.88,0.197,172.477,0.548,263.354,0.697
		c0.034,0,0.069-0.002,0.103-0.008l2.901-0.433c0.334-0.05,0.582-0.337,0.586-0.675c0.493-47.301,1.978-91.607,2.463-138.885
		c0.009-0.849,0.24-2.042,0.373-3.23c0.047-0.418-0.29-1.776-0.711-1.758C451.6,138.192,413.406,138.22,375.205,138.643z
		 M380.853,144.569c1.457,35.644-0.053,71.324,1.02,106.973c0.012,0.383-0.293,0.701-0.676,0.706
		c-10.88,0.14-21.759,0.28-32.639,0.42c-0.374,0.005-0.685-0.29-0.699-0.664c-1.361-35.831-1.09-71.717,0.842-107.518
		c0.02-0.366,0.324-0.654,0.691-0.653c10.251,0.014,20.509,0.038,30.772,0.073C380.533,143.907,380.838,144.2,380.853,144.569z
		 M212.605,144.954c-0.797,35.86-1.487,71.724-2.072,107.59c-0.006,0.376-0.314,0.677-0.69,0.676
		c-8.672-0.04-17.344-0.076-26.015-0.105c-0.368-0.001-0.671-0.292-0.686-0.66c-1.504-35.768-1.829-71.618,0.648-107.345
		c0.025-0.36,0.324-0.64,0.684-0.643c9.148-0.078,18.295-0.149,27.44-0.214C212.3,144.248,212.613,144.566,212.605,144.954z
		 M114.771,145.175c9.558-0.112,19.111-0.218,28.659-0.318c0.388-0.004,0.703,0.314,0.696,0.702
		c-0.688,35.627-1.469,71.251-2.34,106.873c-0.009,0.372-0.312,0.669-0.685,0.67c-8.818,0.034-17.635,0.102-26.452,0.202
		c-0.382,0.004-0.694-0.303-0.695-0.684c-0.167-35.587-0.122-71.175,0.136-106.762C114.092,145.484,114.395,145.179,114.771,145.175
		z M110.276,253.357c-10.255,0.132-20.508,0.323-30.759,0.582c-0.389,0.01-0.708-0.305-0.704-0.694
		c0.414-35.656,0.828-71.312,1.242-106.969c0.004-0.374,0.306-0.676,0.68-0.68c9.893-0.129,19.779-0.252,29.658-0.37
		c0.385-0.005,0.698,0.308,0.695,0.693c-0.258,35.583-0.303,71.166-0.135,106.749C110.955,253.045,110.653,253.352,110.276,253.357z
		 M77.055,146.348c-0.414,35.675-0.829,71.349-1.243,107.024c-0.004,0.369-0.299,0.668-0.668,0.678
		c-9.205,0.251-18.408,0.567-27.61,0.949c-0.38,0.016-0.702-0.28-0.717-0.661c-1.405-35.861-1.43-71.762-0.078-107.626
		c0.014-0.367,0.314-0.659,0.681-0.664c9.654-0.138,19.299-0.27,28.937-0.397C76.745,145.647,77.059,145.962,77.055,146.348z
		 M18.515,255.298c-0.215-0.104-0.362-0.312-0.388-0.549c-2.489-22.776-1.81-45.769-1.127-68.672
		c0.396-13.293-0.207-24.585,0.189-37.878l0.058-1.064c0.02-0.361,0.316-0.646,0.677-0.651c8.38-0.127,16.751-0.25,25.116-0.371
		c0.393-0.006,0.71,0.319,0.695,0.712c-1.35,35.872-1.322,71.78,0.087,107.65c0.015,0.377-0.277,0.695-0.654,0.711
		c-7.459,0.327-14.918,0.686-22.374,1.117c-0.116,0.007-0.232-0.016-0.337-0.067L18.515,255.298z M144.786,252.387
		c0.871-35.631,1.652-71.265,2.34-106.901c0.007-0.372,0.309-0.671,0.681-0.675c10.765-0.111,21.526-0.214,32.282-0.308
		c0.4-0.003,0.717,0.334,0.69,0.733c-2.465,35.662-2.142,71.446-0.642,107.149c0.016,0.391-0.296,0.716-0.687,0.715
		c-11.326-0.033-22.652-0.042-33.977-0.01C145.088,253.092,144.777,252.774,144.786,252.387z M213.531,252.539
		c0.585-35.885,1.276-71.767,2.074-107.647c0.008-0.373,0.312-0.671,0.684-0.674c9.742-0.067,19.484-0.127,29.225-0.178
		c0.382-0.002,0.693,0.307,0.694,0.689c0.053,36-0.64,71.994-2.07,107.961c-0.015,0.371-0.321,0.664-0.691,0.663
		c-9.743-0.027-19.486-0.068-29.23-0.113C213.833,253.238,213.525,252.923,213.531,252.539z M247.139,252.648
		c1.428-35.96,2.122-71.948,2.068-107.942c-0.001-0.379,0.305-0.686,0.683-0.688c9.337-0.047,18.674-0.085,28.012-0.116
		c0.385-0.001,0.696,0.314,0.689,0.699c-0.641,36.016-0.667,72.04-0.087,108.057c0.006,0.383-0.302,0.697-0.685,0.699
		c-9.998,0.03-19.996,0.029-29.996,0.006C247.435,253.362,247.124,253.038,247.139,252.648z M281.505,252.661
		c-0.579-36.029-0.553-72.065,0.088-108.094c0.007-0.375,0.313-0.677,0.688-0.678c10.837-0.033,21.676-0.053,32.519-0.064
		c0.385,0,0.695,0.315,0.689,0.7c-0.591,35.967-1.182,71.935-1.773,107.902c-0.006,0.373-0.308,0.673-0.681,0.677
		c-7.525,0.083-15.05,0.155-22.575,0.201c-2.754,0.017-5.508,0.024-8.262,0.034C281.82,253.341,281.511,253.039,281.505,252.661z
		 M316.717,252.356c0.591-35.952,1.182-71.904,1.773-107.856c0.006-0.376,0.312-0.677,0.688-0.677
		c8.609-0.006,17.221-0.005,25.836,0.004c0.394,0,0.706,0.33,0.685,0.723c-1.929,35.782-2.2,71.65-0.839,107.461
		c0.015,0.386-0.29,0.707-0.676,0.712c-1.699,0.022-3.398,0.044-5.098,0.066c-7.224,0.093-14.448,0.184-21.672,0.267
		C317.026,253.061,316.711,252.744,316.717,252.356z M385.576,252.192c-0.273-0.26-0.431-0.41-0.704-0.671
		c-1.071-35.621,0.435-71.272-1.017-106.888c-0.016-0.391,0.296-0.715,0.687-0.714c8.661,0.033,17.329,0.075,26.001,0.125
		c0.393,0.002,0.703,0.332,0.682,0.724c-1.934,35.499-1.909,71.076,0.062,106.572c0.022,0.394-0.29,0.724-0.684,0.723
		C402.361,252.052,394.05,252.071,385.576,252.192z M414.292,251.423c-1.976-35.538-2.002-71.159-0.064-106.701
		c0.02-0.368,0.326-0.655,0.694-0.653c9.956,0.06,19.919,0.13,29.893,0.214c0.382,0.003,0.689,0.318,0.683,0.7
		c-0.6,35.49-1.199,70.98-1.799,106.469c-0.006,0.375-0.313,0.677-0.689,0.678c-9.347,0.018-18.654-0.031-28.03-0.055
		C414.615,252.073,414.312,251.787,414.292,251.423z M477.108,251.591c-10.075,0.344-19.929,0.474-29.718,0.517
		c-0.386,0.002-0.698-0.315-0.691-0.701l1.798-106.413c0.006-0.378,0.316-0.68,0.694-0.677c9.203,0.08,18.415,0.17,27.636,0.271
		c0.18,0.002,0.352,0.074,0.48,0.202l0.596,0.596c0.131,0.131,0.204,0.312,0.201,0.498c-0.543,35.766-0.699,69.279,0.971,104.987
		c0.018,0.392-0.293,0.721-0.685,0.721L477.108,251.591L477.108,251.591z"/>
	<g>
		<path class="st16" d="M29.125,61.464c-0.27,4.123-0.016,6.128,1.367,6.379c14.735-0.46,28.47,0.081,43.204-0.379
			c0.238-0.007,1.492-0.02,1.684-0.162c0.291-0.216,0.321-1.633,0.324-1.996c0.025-2.958,0.051-5.917,0.076-8.875
			c0.006-0.694-0.026-1.478-0.544-1.94c-0.369-0.329-0.891-0.456-1.385-0.453c-8.241,0.053-15.005-0.205-22.53-0.065
			c-6.32,0.117-12.554,0.13-18.87,0.359C28.485,54.476,29.608,54.091,29.125,61.464z"/>
	</g>
	<g>
		<path class="st17" d="M368.125,11.464c-0.27,4.123-0.016,6.128,1.367,6.379c14.735-0.46,28.47,0.081,43.204-0.379
			c0.238-0.007,1.492-0.02,1.684-0.162c0.291-0.216,0.321-1.633,0.324-1.996c0.025-2.958,0.051-5.917,0.076-8.875
			c0.006-0.694-0.026-1.478-0.544-1.94c-0.369-0.329-0.891-0.456-1.385-0.453c-8.241,0.053-15.005-0.205-22.53-0.065
			c-6.32,0.117-12.554,0.13-18.87,0.359C367.485,4.476,368.608,4.091,368.125,11.464z"/>
	</g>
	<g>
		<path class="st16" d="M28.125,95.464c-0.27,4.123-0.016,6.128,1.367,6.379c14.735-0.46,28.47,0.081,43.204-0.379
			c0.238-0.007,1.492-0.02,1.684-0.162c0.291-0.216,0.321-1.633,0.324-1.996c0.025-2.958,0.051-5.917,0.076-8.875
			c0.006-0.694-0.026-1.478-0.544-1.94c-0.369-0.329-0.891-0.456-1.385-0.453c-8.241,0.053-15.005-0.205-22.53-0.065
			c-6.32,0.117-12.554,0.13-18.87,0.359C27.485,88.476,28.608,88.091,28.125,95.464z"/>
	</g>
	<g>
		<path class="st17" d="M57.136,77.808c-0.209,4.127,0.074,6.127,1.461,6.358c14.726-0.677,28.468-0.34,43.194-1.018
			c0.238-0.011,1.492-0.042,1.681-0.187c0.288-0.22,0.297-1.638,0.294-2c-0.018-2.958-0.037-5.917-0.055-8.875
			c-0.004-0.694-0.048-1.478-0.573-1.932c-0.374-0.323-0.898-0.443-1.392-0.432c-8.24,0.175-15.006,0.017-22.528,0.268
			c-6.317,0.21-12.55,0.316-18.863,0.638C56.393,70.83,57.51,70.429,57.136,77.808z"/>
	</g>
</g>
</svg>
