<?xml version="1.0" encoding="utf-8"?>
<!-- Generator: Adobe Illustrator 22.1.0, SVG Export Plug-In . SVG Version: 6.00 Build 0)  -->
<svg version="1.1" id="Layer_1" xmlns="http://www.w3.org/2000/svg" xmlns:xlink="http://www.w3.org/1999/xlink" x="0px" y="0px"
	 viewBox="0 0 615 169" style="enable-background:new 0 0 615 169;" xml:space="preserve">
<style type="text/css">
	.st0{fill:#FFFFFF;}
</style>
<g>
	<path class="st0" d="M33.473,124.917V111.21c0-13.532-3.99-22.034-21.86-22.034c-2.775,0-4.164-1.388-4.164-3.296
		s1.389-3.297,4.164-3.297c17.87,0,21.86-8.501,21.86-22.034V46.844c0-17.87,5.552-28.974,34.873-34.872
		c1.908-0.347,3.643,0.694,3.643,2.776c0,1.388-1.04,2.429-2.08,2.776c-25.157,6.593-27.934,13.185-27.934,30.362v13.012
		c0,15.441-7.112,21.687-18.043,24.983c11.624,3.817,18.043,9.542,18.043,24.983v13.012c0,17.176,2.777,23.769,27.934,30.362
		c1.04,0.347,2.08,1.388,2.08,2.776c0,2.082-1.735,3.123-3.643,2.776C39.024,153.891,33.473,142.787,33.473,124.917z"/>
	<path class="st0" d="M578.027,46.844V60.55c0,13.533,3.99,22.034,21.86,22.034c2.775,0,4.164,1.388,4.164,3.297
		s-1.389,3.296-4.164,3.296c-17.87,0-21.86,8.501-21.86,22.034v13.707c0,17.87-5.552,28.973-34.873,34.872
		c-1.908,0.347-3.643-0.694-3.643-2.776c0-1.388,1.04-2.429,2.08-2.776c25.157-6.593,27.934-13.186,27.934-30.362v-13.012
		c0-15.442,7.112-21.687,18.043-24.983c-11.624-3.817-18.043-9.543-18.043-24.983V47.885c0-17.177-2.777-23.769-27.934-30.362
		c-1.04-0.347-2.08-1.388-2.08-2.776c0-2.082,1.735-3.123,3.643-2.776C572.476,17.87,578.027,28.973,578.027,46.844z"/>
	<path class="st0" d="M133.727,18.387l-9.897,24.276c-0.041,0.125-0.122,0.291-0.202,0.376l-0.041,0.041
		c-0.041,0.083-0.122,0.166-0.202,0.251c0,0.083-0.041,0.083-0.041,0.124c-0.081,0.042-0.202,0.125-0.283,0.208h-0.041
		c-0.12,0.083-0.202,0.208-0.363,0.251h-0.041c0,0-0.041,0-0.041,0.041c-0.081,0-0.202,0.042-0.324,0.083c-0.041,0-0.081,0-0.081,0
		c-0.12,0.042-0.242,0.042-0.403,0.042c-0.122,0-0.242,0-0.364-0.042c-0.08,0-0.12,0-0.12,0c-0.122-0.041-0.202-0.083-0.283-0.083
		c-0.041-0.041-0.041-0.041-0.081-0.041c-0.161-0.042-0.283-0.168-0.363-0.251c-0.041,0-0.041,0-0.041,0
		c-0.122-0.083-0.202-0.166-0.283-0.208c-0.041-0.041-0.041-0.041-0.081-0.124c-0.041-0.085-0.12-0.168-0.161-0.251
		c-0.081,0-0.081-0.041-0.081-0.041c-0.081-0.085-0.12-0.251-0.161-0.376l-5.293-12.908l-5.291,12.908
		c-0.041,0.125-0.122,0.291-0.163,0.376c-0.041,0-0.041,0.041-0.041,0.041c-0.08,0.083-0.161,0.166-0.242,0.251
		c0,0.083-0.039,0.083-0.039,0.124c-0.081,0.042-0.163,0.125-0.244,0.208c-0.08,0-0.08,0-0.08,0
		c-0.122,0.083-0.242,0.208-0.324,0.251c-0.041,0-0.041,0-0.041,0s-0.041,0-0.041,0.041c-0.161,0-0.242,0.042-0.322,0.083
		c-0.041,0-0.081,0-0.122,0c-0.12,0.042-0.242,0.042-0.363,0.042c-0.122,0-0.283,0-0.405-0.042c-0.041,0-0.081,0-0.12,0
		c-0.122-0.041-0.203-0.083-0.283-0.083c-0.041-0.041-0.041-0.041-0.081-0.041c-0.122-0.042-0.283-0.168-0.364-0.251
		c-0.041,0-0.041,0-0.041,0c-0.12-0.083-0.161-0.166-0.281-0.208c-0.041-0.041-0.041-0.041-0.081-0.124
		c-0.081-0.085-0.122-0.168-0.202-0.251v-0.041c-0.081-0.085-0.122-0.251-0.203-0.376l-9.936-24.276
		c-0.444-1.123,0.041-2.497,1.211-2.956c1.091-0.5,2.424,0.042,2.868,1.208l7.919,19.28l5.21-12.784
		c0.364-0.917,1.213-1.415,2.101-1.415c0.849,0,1.698,0.498,2.101,1.415l5.211,12.784l7.876-19.28
		c0.486-1.166,1.779-1.708,2.95-1.208C133.686,15.89,134.211,17.264,133.727,18.387z"/>
	<path class="st0" d="M168.093,18.555c2.504,2.748,4.08,6.413,4.08,10.535s-1.576,7.829-4.08,10.535
		c-2.384,2.707-5.94,4.456-9.655,4.456c-3.878,0-7.432-1.748-9.897-4.456c-2.504-2.706-3.998-6.413-3.998-10.535
		s1.494-7.787,3.998-10.535c2.465-2.75,6.019-4.456,9.897-4.456C162.153,14.099,165.71,15.805,168.093,18.555z M167.568,29.089
		c0-2.831-1.091-5.455-2.748-7.287c-1.696-1.874-3.959-2.956-6.382-2.956c-2.585,0-4.847,1.083-6.545,2.956
		c-1.696,1.831-2.746,4.456-2.746,7.287s1.05,5.455,2.746,7.244c1.698,1.874,3.959,2.999,6.545,2.999
		c2.423,0,4.686-1.125,6.382-2.999C166.477,34.545,167.568,31.92,167.568,29.089z"/>
	<path class="st0" d="M209.047,17.222v24.568c0,1.25-1.05,2.291-2.263,2.291c-1.252,0-2.221-1.04-2.221-2.291v-17.53l-5.816,8.327
		c-0.446,0.625-1.091,0.959-1.818,0.959h-0.041h-0.041c-0.727,0-1.415-0.334-1.859-0.959l-5.777-8.327v17.53
		c0,1.25-1.01,2.291-2.262,2.291c-1.211,0-2.221-1.04-2.221-2.291V17.222c0-1.249,1.01-2.291,2.221-2.291c0.041,0,0.041,0,0.122,0
		c0.645,0,1.372,0.334,1.777,0.959l8.039,11.492l8.039-11.492c0.444-0.625,1.089-0.959,1.818-0.959c0,0,0,0,0.039,0
		C207.997,14.973,209.047,15.973,209.047,17.222z"/>
	<path class="st0" d="M223.016,41.789V17.222c0-1.291,0.969-2.291,2.221-2.291h0.041c0,0,0,0,0.081,0h13.088
		c1.172,0,2.221,1,2.221,2.291c0,1.291-1.049,2.331-2.221,2.331h-10.948v7.62h9.413c1.211,0,2.221,1.083,2.221,2.291
		c0,1.291-1.01,2.331-2.221,2.331h-9.413v7.663h10.948c1.172,0,2.221,1.04,2.221,2.331c0,1.25-1.049,2.291-2.221,2.291h-13.088
		c-0.081,0-0.081-0.042-0.081-0.042l-0.041,0.042C223.985,44.08,223.016,43.039,223.016,41.789z"/>
	<path class="st0" d="M257.628,41.789c0,1.25-1.011,2.291-2.182,2.291c-1.252,0-2.221-1.04-2.221-2.291V17.596c0,0,0,0,0-0.041
		c-0.041-0.708,0.283-1.459,0.888-1.916c1.01-0.708,2.384-0.5,3.07,0.5l13.049,18.614V17.596c0-1.206,0.969-2.248,2.18-2.248
		c1.213,0,2.223,1.042,2.223,2.248v24.193c0,1.25-1.01,2.291-2.223,2.291c-0.646,0-1.252-0.334-1.655-0.834
		c-0.081-0.083-0.163-0.166-0.202-0.249l-12.927-18.489V41.789z"/>
	<path class="st0" d="M289.008,31.338c0-1.374,1.089-2.499,2.382-2.499h7.595c1.293,0,2.384,1.125,2.384,2.499
		c0,1.333-1.091,2.457-2.384,2.457h-7.595C290.097,33.794,289.008,32.671,289.008,31.338z"/>
	<path class="st0" d="M311.988,29.089c0.039-8.246,6.746-14.95,14.824-14.99c3.554,0,6.787,1.208,9.332,3.248
		c0.969,0.832,1.132,2.291,0.405,3.331c-0.808,1.042-2.302,1.208-3.233,0.457c-1.777-1.498-3.998-2.289-6.504-2.289
		c-2.787,0-5.372,1.166-7.271,2.997c-1.818,1.916-2.948,4.415-2.948,7.246s1.13,5.413,2.948,7.244
		c1.899,1.833,4.485,2.999,7.271,2.999c2.506,0,4.686-0.791,6.504-2.291c0.93-0.708,2.424-0.54,3.233,0.459
		c0.727,1.04,0.564,2.54-0.405,3.331c-2.545,2.04-5.777,3.248-9.332,3.248C318.734,44.08,312.027,37.376,311.988,29.089z"/>
	<path class="st0" d="M350.599,41.789V17.222c0-1.291,0.969-2.291,2.221-2.291h0.041c0,0,0,0,0.081,0h13.088
		c1.172,0,2.221,1,2.221,2.291c0,1.291-1.049,2.331-2.221,2.331h-10.948v7.62h9.413c1.211,0,2.221,1.083,2.221,2.291
		c0,1.291-1.01,2.331-2.221,2.331h-9.413v7.663h10.948c1.172,0,2.221,1.04,2.221,2.331c0,1.25-1.049,2.291-2.221,2.291h-13.088
		c-0.081,0-0.081-0.042-0.081-0.042l-0.041,0.042C351.568,44.08,350.599,43.039,350.599,41.789z"/>
	<path class="st0" d="M385.211,41.789c0,1.25-1.011,2.291-2.182,2.291c-1.252,0-2.221-1.04-2.221-2.291V17.596c0,0,0,0,0-0.041
		c-0.041-0.708,0.283-1.459,0.888-1.916c1.01-0.708,2.384-0.5,3.07,0.5l13.049,18.614V17.596c0-1.206,0.969-2.248,2.18-2.248
		c1.213,0,2.223,1.042,2.223,2.248v24.193c0,1.25-1.01,2.291-2.223,2.291c-0.646,0-1.252-0.334-1.655-0.834
		c-0.081-0.083-0.163-0.166-0.202-0.249l-12.927-18.489V41.789z"/>
	<path class="st0" d="M435.01,19.553h-6.423v22.236c0,1.291-0.971,2.291-2.223,2.291c-1.211,0-2.221-1-2.221-2.291V19.553h-6.382
		c-1.254,0-2.223-1.083-2.223-2.331c0-1.291,0.969-2.291,2.223-2.291h17.249c1.211,0,2.221,1,2.221,2.291
		C437.231,18.47,436.222,19.553,435.01,19.553z"/>
	<path class="st0" d="M468.815,40.623c0.405,1.208-0.242,2.499-1.413,2.914c-0.161,0.042-0.485,0.125-0.889,0.125c0,0,0,0-0.041,0
		c-0.403,0-1.01-0.083-1.574-0.457c-0.525-0.334-0.971-0.874-1.293-1.457c-0.566-1.208-0.849-2.707-0.849-4.998
		c-0.041-0.791-0.202-1.332-0.485-1.791c-0.242-0.457-0.727-0.874-1.213-1.206c-0.847-0.583-1.897-0.917-2.262-1h-4.766v9.035
		c0,1.25-1.011,2.291-2.263,2.291s-2.221-1.04-2.221-2.291V17.222c0-1.291,0.969-2.291,2.221-2.291c0,0,0,0,0.041,0h7.19
		c4.808,0,8.645,3.998,8.645,8.954c0,2.748-1.211,5.162-3.151,6.828c0.525,0.417,1.01,0.917,1.415,1.542
		c0.808,1.208,1.333,2.748,1.333,4.496c-0.041,1.25,0.08,2.042,0.161,2.457C468.047,39.416,468.572,39.915,468.815,40.623z
		 M463.159,23.885c0-2.416-1.859-4.332-4.161-4.332h-4.967v8.579h4.967C461.301,28.132,463.159,26.216,463.159,23.885z"/>
	<path class="st0" d="M481.857,17.222c0-1.291,0.969-2.291,2.221-2.291c1.211,0,2.262,1,2.262,2.291v24.568
		c0,1.291-1.05,2.291-2.262,2.291c-1.252,0-2.221-1-2.221-2.291V17.222z"/>
	<path class="st0" d="M498.859,29.089c0.039-8.246,6.745-14.95,14.824-14.99c3.556,0,6.787,1.208,9.332,3.248
		c0.969,0.832,1.132,2.291,0.405,3.331c-0.808,1.042-2.304,1.208-3.232,0.457c-1.777-1.498-3.998-2.289-6.504-2.289
		c-2.787,0-5.372,1.166-7.271,2.997c-1.818,1.916-2.948,4.415-2.948,7.246s1.13,5.413,2.948,7.244
		c1.899,1.833,4.485,2.999,7.271,2.999c2.506,0,4.686-0.791,6.504-2.291c0.928-0.708,2.424-0.54,3.232,0.459
		c0.727,1.04,0.564,2.54-0.405,3.331c-2.545,2.04-5.776,3.248-9.332,3.248C505.604,44.08,498.898,37.376,498.859,29.089z"/>
	<path class="st0" d="M117.09,82.891v9.52c0,1.41-1.166,2.575-2.575,2.575c-1.262,0-2.235-0.923-2.526-2.089
		c-1.845,1.311-4.032,2.089-6.46,2.089c-3.304,0-6.17-1.36-8.258-3.546c-2.089-2.235-3.304-5.247-3.304-8.549
		c0-3.353,1.215-6.363,3.304-8.551c2.087-2.233,4.954-3.643,8.258-3.643c2.428,0,4.615,0.825,6.46,2.138
		c0.291-1.215,1.264-2.138,2.526-2.138c1.41,0,2.575,1.166,2.575,2.623V82.891z M111.939,82.891c0-2.042-0.729-3.79-1.894-5.003
		c-1.166-1.313-2.817-1.992-4.517-1.992c-1.748,0-3.4,0.679-4.518,1.992c-1.166,1.213-1.845,2.961-1.845,5.003
		c0,1.991,0.679,3.739,1.845,5.003c1.118,1.215,2.77,1.894,4.518,1.894c1.699,0,3.351-0.679,4.517-1.894
		C111.211,86.63,111.939,84.882,111.939,82.891z"/>
	<path class="st0" d="M138.897,60.983c1.506,0,2.721,1.213,2.721,2.672v28.659c0,1.457-1.215,2.672-2.721,2.672
		c-1.457,0-2.672-1.215-2.672-2.672V63.655C136.226,62.197,137.44,60.983,138.897,60.983z"/>
	<path class="st0" d="M172.291,60.983c1.506,0,2.721,1.213,2.721,2.672v28.659c0,1.457-1.215,2.672-2.721,2.672
		c-1.457,0-2.672-1.215-2.672-2.672V63.655C169.619,62.197,170.834,60.983,172.291,60.983z"/>
	<path class="st0" d="M198.276,80.121c0-1.603,1.311-2.914,2.867-2.914h9.132c1.555,0,2.867,1.311,2.867,2.914
		c0,1.555-1.311,2.867-2.867,2.867h-9.132C199.588,82.988,198.276,81.676,198.276,80.121z"/>
	<path class="st0" d="M241.726,64.626c0,1.457-1.118,2.672-2.624,2.672c-1.457,0-2.623-1.215-2.623-2.672v-1.02
		c0-1.457,1.166-2.623,2.623-2.623c1.506,0,2.624,1.166,2.624,2.623V64.626z M241.726,73.419v18.944
		c0,1.457-1.118,2.623-2.624,2.623c-1.457,0-2.623-1.166-2.623-2.623V73.419c0-1.555,1.166-2.672,2.623-2.672
		C240.607,70.747,241.726,71.864,241.726,73.419z"/>
	<path class="st0" d="M282.624,80.802v11.609c0,1.41-1.118,2.575-2.526,2.575c-1.36,0-2.575-1.166-2.575-2.575V80.802
		c0-2.721-2.282-4.906-5.052-4.906c-2.719,0-4.857,2.186-4.857,4.906v11.609c0,0.146,0,0.291-0.097,0.486
		c-0.244,1.166-1.311,2.089-2.575,2.089c-1.457,0-2.575-1.166-2.575-2.575V80.802v-7.529c0-1.41,1.118-2.575,2.575-2.575
		c1.02,0,1.943,0.583,2.38,1.506c1.457-0.923,3.255-1.506,5.149-1.506C278.106,70.698,282.624,75.313,282.624,80.802z"/>
	<path class="st0" d="M295.356,82.891c0-6.753,5.635-12.144,12.339-12.193c2.914,0,5.635,1.069,7.722,2.672
		c1.118,0.874,1.313,2.526,0.535,3.595c-0.972,1.166-2.526,1.36-3.644,0.485c-1.262-0.922-2.817-1.554-4.613-1.554
		c-3.936,0-7.19,3.255-7.19,6.995c0,3.739,3.255,6.946,7.19,6.946c1.748,0,3.351-0.632,4.613-1.555
		c1.069-0.825,2.672-0.63,3.644,0.535c0.778,1.067,0.583,2.623-0.535,3.593c-2.087,1.506-4.808,2.575-7.722,2.575
		C300.991,94.986,295.356,89.546,295.356,82.891z"/>
	<path class="st0" d="M339.258,60.983c1.506,0,2.721,1.213,2.721,2.672v28.659c0,1.457-1.215,2.672-2.721,2.672
		c-1.457,0-2.672-1.215-2.672-2.672V63.655C336.586,62.197,337.801,60.983,339.258,60.983z"/>
	<path class="st0" d="M372.604,94.986c-5.538,0-10.104-4.566-10.104-10.104V73.273c0-1.36,1.166-2.575,2.573-2.575
		c1.459,0,2.575,1.215,2.575,2.575v11.609c0,2.77,2.186,4.956,4.956,4.956c2.816,0,5.05-2.186,5.1-4.956V73.273
		c0-1.36,1.069-2.575,2.526-2.575c1.36,0,2.623,1.215,2.623,2.575v11.609C382.852,90.42,378.19,94.986,372.604,94.986z"/>
	<path class="st0" d="M397.173,88.04c0.874-1.166,2.575-1.311,3.644-0.388c1.262,1.067,3.448,2.186,5.343,2.136
		c1.311,0,2.526-0.437,3.302-0.923c0.681-0.583,0.874-1.067,0.874-1.457c0-0.242-0.047-0.341-0.146-0.486
		c-0.047-0.146-0.242-0.339-0.63-0.583c-0.681-0.485-2.138-1.02-3.887-1.359h-0.049c-1.506-0.291-2.963-0.681-4.225-1.264
		c-1.311-0.632-2.477-1.506-3.353-2.817c-0.534-0.874-0.825-1.943-0.825-3.06c0-2.235,1.264-4.129,2.867-5.343
		c1.699-1.166,3.739-1.798,5.974-1.798c3.353,0,5.733,1.603,7.287,2.672c1.166,0.778,1.506,2.38,0.778,3.595
		c-0.778,1.166-2.38,1.506-3.595,0.679c-1.554-1.02-2.914-1.798-4.469-1.798c-1.213,0-2.282,0.39-2.914,0.874
		c-0.632,0.437-0.778,0.874-0.778,1.118c0,0.195,0,0.242,0.098,0.388c0.047,0.098,0.193,0.291,0.534,0.486
		c0.632,0.437,1.894,0.874,3.546,1.166l0.049,0.049h0.047c1.604,0.291,3.109,0.729,4.518,1.408c1.311,0.583,2.623,1.506,3.449,2.867
		c0.583,0.971,0.922,2.089,0.922,3.205c0,2.38-1.311,4.373-3.06,5.635c-1.748,1.215-3.934,1.943-6.314,1.943
		c-3.79-0.049-6.704-1.798-8.647-3.351C396.445,90.761,396.299,89.109,397.173,88.04z"/>
	<path class="st0" d="M442.086,64.626c0,1.457-1.118,2.672-2.624,2.672c-1.457,0-2.623-1.215-2.623-2.672v-1.02
		c0-1.457,1.166-2.623,2.623-2.623c1.506,0,2.624,1.166,2.624,2.623V64.626z M442.086,73.419v18.944
		c0,1.457-1.118,2.623-2.624,2.623c-1.457,0-2.623-1.166-2.623-2.623V73.419c0-1.555,1.166-2.672,2.623-2.672
		C440.968,70.747,442.086,71.864,442.086,73.419z"/>
	<path class="st0" d="M483.13,74.584l-7.966,18.846c-0.049,0.147-0.146,0.293-0.195,0.341c0,0.049-0.049,0.049-0.049,0.049
		c-0.097,0.097-0.193,0.242-0.291,0.341c0,0.047-0.047,0.047-0.047,0.047c-0.098,0.146-0.195,0.195-0.291,0.291
		c0,0-0.049,0-0.049,0.049c-0.097,0.097-0.195,0.195-0.341,0.242c0,0,0,0-0.097,0c0,0,0,0,0,0.049c-0.146,0-0.291,0.049-0.388,0.097
		c-0.049,0-0.049,0-0.098,0c-0.195,0.049-0.341,0.049-0.486,0.049c-0.097,0-0.242,0-0.437-0.049c-0.047,0-0.047,0-0.097,0
		c-0.146-0.047-0.242-0.097-0.388-0.097c0-0.049,0-0.049,0-0.049c-0.098,0-0.098,0-0.098,0c-0.146-0.047-0.242-0.146-0.437-0.242
		c0-0.049-0.047-0.049-0.047-0.049c-0.098-0.097-0.195-0.146-0.291-0.291c-0.049,0-0.049,0-0.098-0.047
		c-0.047-0.098-0.146-0.244-0.242-0.341c-0.049,0-0.049,0-0.049-0.049c-0.097-0.047-0.146-0.193-0.193-0.341l-7.87-18.846
		c-0.583-1.311,0.047-2.721,1.408-3.304c1.166-0.583,2.672,0.097,3.255,1.41l5.586,13.211l5.635-13.211
		c0.535-1.313,1.992-1.992,3.255-1.41C483.081,71.864,483.713,73.273,483.13,74.584z"/>
	<path class="st0" d="M494.47,82.842c0.049-6.606,5.198-12.144,11.853-12.144c6.314,0,11.317,4.712,11.707,11.27
		c0,0.049,0,0.146,0,0.242c0,0.098,0,0.341-0.049,0.437c-0.146,1.166-1.166,1.943-2.526,1.943h-15.446
		c0.242,1.118,0.776,2.38,1.65,3.207c1.022,1.166,2.963,2.04,4.664,2.186c1.748,0.146,3.837-0.291,5.052-1.215
		c1.02-1.069,3.011-0.923,3.642-0.146c0.632,0.679,1.118,2.138,0,3.158c-2.38,2.186-5.245,3.205-8.695,3.205
		C499.668,94.937,494.519,89.448,494.47,82.842z M499.764,80.462h13.747c-0.485-1.943-2.963-4.808-7.188-5.149
		C502.194,75.508,500.154,78.471,499.764,80.462z"/>
	<path class="st0" d="M96.376,153.664v-32.752c0-1.721,1.332-3.053,3.053-3.053c1.72,0,3.109,1.332,3.109,3.053v13.323h14.377
		v-13.323c0-1.721,1.332-3.053,3.053-3.053c1.721,0,3.109,1.332,3.109,3.053v32.752c0,1.721-1.388,3.053-3.109,3.053
		c-1.721,0-3.053-1.332-3.053-3.053v-13.323h-14.377v13.323c0,1.721-1.389,3.053-3.109,3.053
		C97.708,156.717,96.376,155.386,96.376,153.664z"/>
	<path class="st0" d="M165.481,147.559h-13.489l-2.721,7.216c-0.5,1.222-1.665,1.943-2.885,1.943c-0.39,0-0.722-0.056-1.055-0.166
		c-1.609-0.612-2.387-2.387-1.831-3.997l12.268-32.696c0.5-1.222,1.721-1.999,2.943-1.943c1.276-0.056,2.441,0.722,2.941,1.943
		l12.268,32.696c0.556,1.609-0.222,3.385-1.831,3.997c-0.278,0.11-0.666,0.166-1.054,0.166c-1.222,0-2.387-0.722-2.833-1.943
		L165.481,147.559z M163.206,141.451l-4.496-11.934l-4.496,11.934H163.206z"/>
	<path class="st0" d="M190.504,136.733c0.056-10.99,9.271-19.927,20.373-19.983c4.884,0,9.325,1.609,12.823,4.329
		c1.332,1.111,1.554,3.055,0.554,4.442c-1.11,1.388-3.163,1.609-4.44,0.61c-2.443-1.997-5.496-3.053-8.937-3.053
		c-3.831,0-7.383,1.554-9.992,3.997c-2.497,2.553-4.053,5.884-4.053,9.659c0,3.775,1.555,7.217,4.053,9.66
		c2.609,2.441,6.162,3.997,9.992,3.997c3.441,0,6.44-1.055,8.937-3.053c1.277-0.944,3.331-0.722,4.44,0.61
		c1,1.388,0.778,3.387-0.554,4.44c-3.499,2.721-7.939,4.33-12.823,4.33C199.775,156.717,190.56,147.78,190.504,136.733z"/>
	<path class="st0" d="M242.024,153.664V121.19c0-1.609,1.332-3.053,3.053-3.053c1.72,0,3.053,1.443,3.053,3.053v15.932
		l17.986-18.041c1.222-1.222,3.109-1.222,4.33,0c1.166,1.166,1.166,3.109,0,4.33l-12.213,12.156l12.324,16.154
		c1.11,1.277,0.888,3.219-0.444,4.274c-0.556,0.5-1.222,0.722-1.943,0.722c-0.832,0-1.665-0.388-2.275-1.11l-11.992-15.71
		l-5.772,5.884v7.883c0,1.665-1.333,3.053-3.053,3.053C243.355,156.717,242.024,155.33,242.024,153.664z"/>
	<path class="st0" d="M312.426,147.559h-13.489l-2.721,7.216c-0.498,1.222-1.665,1.943-2.885,1.943c-0.39,0-0.722-0.056-1.055-0.166
		c-1.609-0.612-2.387-2.387-1.831-3.997l12.268-32.696c0.5-1.222,1.721-1.999,2.943-1.943c1.276-0.056,2.441,0.722,2.941,1.943
		l12.268,32.696c0.556,1.609-0.222,3.385-1.831,3.997c-0.278,0.11-0.666,0.166-1.054,0.166c-1.222,0-2.387-0.722-2.833-1.943
		L312.426,147.559z M310.15,141.451l-4.496-11.934l-4.496,11.934H310.15z"/>
	<path class="st0" d="M366.487,124.021h-8.825v29.643c0,1.721-1.333,3.053-3.055,3.053c-1.665,0-3.053-1.332-3.053-3.053v-29.643
		h-8.771c-1.72,0-3.053-1.443-3.053-3.109c0-1.721,1.333-3.053,3.053-3.053h23.703c1.665,0,3.053,1.332,3.053,3.053
		C369.54,122.578,368.152,124.021,366.487,124.021z"/>
	<path class="st0" d="M390.266,153.664v-32.752c0-1.721,1.332-3.053,3.053-3.053c1.72,0,3.109,1.332,3.109,3.053v13.323h14.377
		v-13.323c0-1.721,1.332-3.053,3.053-3.053s3.109,1.332,3.109,3.053v32.752c0,1.721-1.388,3.053-3.109,3.053
		s-3.053-1.332-3.053-3.053v-13.323h-14.377v13.323c0,1.721-1.389,3.053-3.109,3.053
		C391.598,156.717,390.266,155.386,390.266,153.664z"/>
	<path class="st0" d="M465.976,122.689c3.443,3.663,5.608,8.549,5.608,14.043c0,5.496-2.165,10.436-5.608,14.045
		c-3.275,3.609-8.159,5.94-13.267,5.94c-5.328,0-10.214-2.331-13.599-5.94c-3.443-3.609-5.496-8.549-5.496-14.045
		c0-5.494,2.053-10.38,5.496-14.043c3.385-3.665,8.271-5.94,13.599-5.94C457.816,116.75,462.701,119.025,465.976,122.689z
		 M465.254,136.733c0-3.775-1.498-7.271-3.775-9.715c-2.331-2.497-5.44-3.941-8.771-3.941c-3.553,0-6.662,1.443-8.993,3.941
		c-2.331,2.443-3.775,5.94-3.775,9.715c0,3.775,1.443,7.273,3.775,9.66c2.331,2.497,5.44,3.997,8.993,3.997
		c3.331,0,6.44-1.499,8.771-3.997C463.756,144.006,465.254,140.507,465.254,136.733z"/>
	<path class="st0" d="M492.923,153.664c0,1.665-1.388,3.053-2.997,3.053c-1.721,0-3.055-1.388-3.055-3.053v-32.252c0,0,0,0,0-0.056
		c-0.054-0.944,0.39-1.943,1.221-2.553c1.388-0.944,3.275-0.666,4.219,0.666l17.931,24.815v-22.872c0-1.609,1.332-2.997,2.997-2.997
		c1.665,0,3.053,1.388,3.053,2.997v32.252c0,1.665-1.388,3.053-3.053,3.053c-0.888,0-1.721-0.444-2.275-1.11
		c-0.112-0.112-0.222-0.222-0.278-0.334l-17.764-24.647V153.664z"/>
</g>
</svg>
