<?xml version="1.0" encoding="utf-8"?>
<!-- Generator: Adobe Illustrator 22.1.0, SVG Export Plug-In . SVG Version: 6.00 Build 0)  -->
<svg version="1.1" id="Layer_1" xmlns="http://www.w3.org/2000/svg" xmlns:xlink="http://www.w3.org/1999/xlink" x="0px" y="0px"
	 viewBox="0 0 301.493 263.493" style="enable-background:new 0 0 301.493 263.493;" xml:space="preserve">
<style type="text/css">
	.st0{fill:#4A3532;}
	.st1{fill:#FFE6B8;}
	.st2{fill:#5E4441;}
	.st3{fill:#D5BD98;}
	.st4{fill:#00A8BD;}
	.st5{fill:#393A3E;}
	.st6{fill:#0E0402;}
</style>
<g id="XMLID_1_">
	<g>
		<path class="st0" d="M294.642,4.286c8.41,2.236,1.944,15.575-11.667,14.603c-16.917-1.206-28.311,13.222-37.285,27.63
			c-8.935,14.331-14.058,32.015-18.074,48.426c-3.442-8.867-14.447-15.837-15.099-16.256c6.008-18.346,24.393-60.579,51.012-72.44
			C274.42,1.408,280.603,0.543,294.642,4.286z"/>
		<path class="st1" d="M141.128,162.194c-15.478,5.318-32.686,16.285-30.236,33.639c0.029,0.185,0.049,0.36,0.068,0.554
			c-5.736-1.118-15.303-1.565-21.408-0.593c-0.01-0.856-0.029-1.701-0.049-2.557c0-0.087,0-0.185,0-0.272
			c-0.019-1.089-0.068-2.265-0.71-3.16c-0.632-0.865-1.624-1.585-2.693-1.643c-5.785-0.321-11.132-1.381-16.071-3.082
			c-23.217-7.962-37.236-29.993-43.614-55.164c-2.615-10.306-4.19-28.865-4.19-28.865C9.402,88.646,7.574,69.668,12.484,53.5
			c2.975-5.357,9.392-15.419,15.935-16.333c0.019,0,0.039-0.01,0.058-0.01c1.536-0.224,3.228-0.856,4.472-1.05
			c9.586-1.458,15.235-1.925,24.83-0.612c2.275,0.311,6.669,1.06,9.1,1.069c4.919,1.944,13.426,7.661,15.721,14.136l-0.214,0.185
			c4.2,4.949,5.6,10.412,6.135,16.557c0.603,6.835-0.894,15.312-0.894,15.312c33.026-15.983,80.014-17.879,124.843-3.928
			c0.01-0.049,0.029-0.087,0.049-0.136c0.651,0.418,11.657,7.389,15.099,16.256c-0.019,0.078-0.039,0.146-0.058,0.224
			c0,0,6.319,21.428,7.953,37.751c1.419,14.214-3.646,31.101-7.039,44.975c-1.342,5.512-1.293,15.206,1.624,23.265
			c-10.14-1.021-28.661,0.525-35.71,3.636c-0.525-0.369-1.05-0.758-1.575-1.157c-5.493-4.142-10.539-8.993-14.914-14.379
			c-7.36-9.042-12.853-19.59-15.517-30.761C158.891,157.848,150.316,159.025,141.128,162.194z M51.101,102.986
			c9.722,0,27.222-9.722,27.222-27.222c0-22.682-17.821-30.139-31.111-30.139c-12.308,0-29.167,11.997-29.167,30.139
			C18.045,96.511,41.378,102.986,51.101,102.986z M65.655,119.533c2.829-3.996,2.936-7.992,3.422-12.862
			c-4.365,4.093-14.087,7.01-17.976,7.01c-3.996,0-10.442-2.304-13.329-5.561c-0.35,5.999,7.496,18.2,15.342,18.433
			C58.003,126.698,62.835,123.529,65.655,119.533z"/>
		<path class="st2" d="M232.838,211.496c0,1.935-0.875,5.687-1.731,7.408c-3.033,6.106-4.112,7.36-7.136,13.465
			c-3.665,7.389-8.662,12.921-13.621,19.512c-5.328,7.078-14.107,6.621-22.857,7.165c-5.911,0.36-11.112-3.694-9.09-9.45
			c0.204-0.583,0.564-1.157,1.04-1.721c2.061-2.44,6.174-4.647,8.342-6.232c5.532-4.006,9.032-9.051,11.822-15.41
			c1.906-4.356,4.706-9.061,2.761-13.397c-1.361-3.024-3.403-4.89-6.144-6.747c-0.622-0.418-1.235-0.846-1.837-1.293
			c7.049-3.111,25.569-4.657,35.71-3.636c0.185,0.525,0.379,1.04,0.593,1.546C231.788,205.322,232.838,208.666,232.838,211.496z"/>
		<path class="st0" d="M192.811,203.64c-2.246,7.583-4.939,15.915-6.067,19.474c-2.149,6.776-2.975,14.049-6.329,20.319
			c-0.739,1.39-1.604,2.703-2.586,3.937c-5.512,6.961-14.457,11.21-23.362,10.782c-2.975-0.146-6.135-0.875-8.167-3.062
			c-2.032-2.188-2.294-6.154,0.107-7.933c0.972-0.719,2.197-0.982,3.306-1.468c4.151-1.799,8.186-6.368,9.829-10.587
			c2.207-5.678,3.685-7.35,4.171-14.292c0.058-0.953,0.583-4.783,0.379-5.717c-0.253-1.108-2.119-3.889-2.956-4.667
			c-3.646-3.403-7.224-10.199-10.422-18.132c6.961-2.314,18.297-3.15,27.183-3.033C182.273,194.647,187.318,199.498,192.811,203.64z
			"/>
		<path class="st3" d="M177.898,189.261c-8.886-0.117-20.222,0.719-27.183,3.033c-3.918-9.683-7.282-21.078-9.586-30.1
			c9.187-3.169,17.762-4.346,21.253-3.694C165.045,169.671,170.538,180.219,177.898,189.261z"/>
		<path class="st2" d="M75.912,259.27c-2.606-1.167-4.375-2.956-4.569-5.289c-0.311-6.621,8.487-8.351,12.814-12.94
			c3.306-3.49,6.076-6.125,5.989-10.937c-0.194-11.433-0.399-22.867-0.593-34.31c6.106-0.972,15.672-0.525,21.408,0.593
			c1.283,9.975-0.107,26.824-2.012,35.418c-2.158,9.751-2.8,18.006-10.218,24.704C93.276,261.448,82.173,262.119,75.912,259.27z"/>
		<path class="st0" d="M89.552,195.794c0.194,11.443,0.399,22.876,0.593,34.31c0.088,4.812-2.683,7.447-5.989,10.937
			c-4.326,4.589-13.125,6.319-12.814,12.94c0.194,2.333,1.964,4.122,4.569,5.289c-2.946,1.138-7.515,1.196-14,1.069
			c-3.694-0.078-6.018-1.701-6.436-5.376c-0.486-4.2,6.319-10.033,10.199-12.299c3.412-1.993,3.782-6.796,4.025-12.989
			c0.486-12.143,0.243-23.674,0.282-37.197l19.522,0.758C89.523,194.093,89.542,194.939,89.552,195.794z"/>
		<path class="st3" d="M89.503,192.965c0,0.087,0,0.185,0,0.272l-19.522-0.758c0-2.401,0.01-4.861,0.049-7.399
			c4.939,1.701,10.286,2.761,16.071,3.082c1.069,0.058,2.061,0.778,2.693,1.643C89.435,190.7,89.484,191.876,89.503,192.965z"/>
		<path class="st0" d="M82.844,21.572c4.287,0.729,9.081,19.911,2.771,26.483L82.601,50.7c-2.294-6.475-10.801-12.192-15.721-14.136
			c0.817,0,1.41-0.078,1.643-0.282C73.948,31.528,81.939,21.426,82.844,21.572z"/>
		<path class="st4" d="M73.462,68.958c0,0-1.944,4.861-6.806,6.806c-0.554,0.224-1.099,0.379-1.624,0.486l-0.107-0.515
			c1.089-0.243,2.703-2.304,2.703-4.832c0-2.683-1.837-4.861-2.917-4.861l-0.019-0.438C68.649,65.332,71.78,68.958,73.462,68.958z"
			/>
		<path class="st0" d="M78.323,75.764c0,17.5-17.5,27.222-27.222,27.222s-33.055-6.475-33.055-27.222
			c0-18.142,16.858-30.139,29.167-30.139C60.502,45.625,78.323,53.082,78.323,75.764z M66.656,75.764
			c4.861-1.944,6.806-6.806,6.806-6.806c-1.682,0-4.812-3.626-8.769-3.354c-0.622,0.039-1.264,0.175-1.925,0.438
			c-4.861,1.944-4.861,8.75-4.861,8.75s3.053,2.285,7.126,1.458C65.558,76.143,66.102,75.987,66.656,75.764z M52.053,85.399
			c2.557-0.311,3.908-1.449,3.908-2.829c0-1.604-1.857-2.917-5.347-2.917s-5.347,1.312-5.347,2.917c0,1.381,1.361,2.518,3.918,2.829
			h-0.049l0.019,5.085c0,0.467,0.379,0.836,0.846,0.836h1.225c0.476,0,0.856-0.369,0.856-0.836l0.019-5.085H52.053z M39.434,75.764
			c0,0,0-6.806-4.55-8.75c-0.622-0.262-1.225-0.399-1.808-0.438c-3.714-0.272-6.65,3.354-8.225,3.354c0,0,1.828,4.861,6.387,6.806
			c0.515,0.224,1.021,0.379,1.517,0.486C36.576,78.058,39.434,75.764,39.434,75.764z"/>
		<path class="st3" d="M69.077,106.671c-0.486,4.871-0.593,8.867-3.422,12.862c-2.819,3.996-7.651,7.165-12.542,7.019
			c-7.846-0.233-15.692-12.435-15.342-18.433c2.887,3.257,9.333,5.561,13.329,5.561C54.99,113.68,64.712,110.764,69.077,106.671z"/>
		<path class="st5" d="M64.712,66.042c1.079,0,2.917,2.178,2.917,4.861c0,2.528-1.614,4.589-2.703,4.832
			c-0.078,0.019-0.146,0.029-0.214,0.029c-1.069,0-2.917-2.168-2.917-4.861C61.795,68.219,63.642,66.042,64.712,66.042z"/>
		<path class="st4" d="M64.926,75.735l0.107,0.515c-4.074,0.826-7.126-1.458-7.126-1.458s0-6.806,4.861-8.75
			c0.661-0.262,1.303-0.399,1.925-0.438l0.019,0.438c-1.069,0-2.917,2.178-2.917,4.861c0,2.693,1.847,4.861,2.917,4.861
			C64.78,75.764,64.848,75.754,64.926,75.735z"/>
		<path class="st6" d="M55.962,82.569c0,1.381-1.351,2.518-3.908,2.829h-2.868c-2.557-0.311-3.918-1.449-3.918-2.829
			c0-1.604,1.857-2.917,5.347-2.917S55.962,80.965,55.962,82.569z"/>
		<path class="st6" d="M52.102,85.399l-0.019,5.085c0,0.467-0.379,0.836-0.856,0.836h-1.225c-0.467,0-0.846-0.369-0.846-0.836
			l-0.019-5.085h0.049h2.868H52.102z"/>
		<path class="st4" d="M34.884,67.014c4.55,1.944,4.55,8.75,4.55,8.75s-2.858,2.294-6.679,1.458l0.107-0.515
			c0.068,0.019,0.136,0.029,0.194,0.029c1.011,0,2.732-2.168,2.732-4.861c0-2.683-1.721-4.861-2.732-4.861l0.019-0.438
			C33.659,66.615,34.262,66.751,34.884,67.014z"/>
		<path class="st5" d="M33.056,67.014c1.011,0,2.732,2.178,2.732,4.861c0,2.693-1.721,4.861-2.732,4.861
			c-0.058,0-0.126-0.01-0.194-0.029c-1.021-0.243-2.537-2.304-2.537-4.832C30.324,69.192,32.055,67.014,33.056,67.014z"/>
		<path class="st4" d="M33.076,66.576l-0.019,0.438c-1.001,0-2.732,2.178-2.732,4.861c0,2.528,1.517,4.589,2.537,4.832l-0.107,0.515
			c-0.496-0.107-1.001-0.262-1.517-0.486c-4.56-1.944-6.387-6.806-6.387-6.806C26.426,69.931,29.362,66.304,33.076,66.576z"/>
		<path class="st0" d="M26.26,37.05c0.612,0.233,1.371,0.233,2.158,0.117c-6.543,0.914-12.96,10.976-15.935,16.333
			c0,0-9.022-7.875-9.372-15.001C2.84,33.083,4.735,24.343,9.198,21.251c3.821,4.006,7.651,7.039,11.482,11.044
			C21.749,33.414,24.812,36.506,26.26,37.05z"/>
	</g>
	<g>
	</g>
</g>
</svg>
