<?xml version="1.0" encoding="utf-8"?>
<!-- Generator: Adobe Illustrator 22.1.0, SVG Export Plug-In . SVG Version: 6.00 Build 0)  -->
<svg version="1.1" id="Layer_1" xmlns="http://www.w3.org/2000/svg" xmlns:xlink="http://www.w3.org/1999/xlink" x="0px" y="0px"
	 viewBox="0 0 141.037 256.037" style="enable-background:new 0 0 141.037 256.037;" xml:space="preserve">
<style type="text/css">
	.st0{fill:#FFD200;}
	.st1{fill:#DE7000;}
	.st2{fill:#393937;}
	.st3{fill:#FFFFFF;}
	.st4{fill:#FAA95E;}
	.st5{fill:#FABF71;}
	.st6{fill:#FF9A56;}
	.st7{fill:#E9E9E9;}
</style>
<g id="XMLID_2_">
	<g>
		<path class="st0" d="M59.236,62.567c-4.613-2.635-5.47-6.382-5.47-6.382c1.112-0.556,2.225-2.133,4.376-3.273
			c-0.611,1.112-0.957,2.379-0.957,3.729c0,2.917,1.614,5.461,4.002,6.774C60.549,63.224,59.892,62.941,59.236,62.567z"/>
		<path class="st1" d="M42.115,123.048c0.52,7.822-1.003,13.621-6.582,23.394c-3.565,6.236-8.205,14.587-12.764,20.057
			c-4.267,5.115-5.324,18.744,0.337,22.172c-0.419,0.52-0.839,1.03-1.249,1.532c-4.139,5.105-6.674,10.393-7.257,16.894
			c-4.485-1.103-7.695-4.312-9.153-8.688c-1.559-4.668-1.422-17.058-0.912-20.057c4.95-29.092,18.215-38.765,19.61-51.92
			c2.835,0.091,5.662,0.018,8.47-0.374C35.915,125.592,39.206,124.644,42.115,123.048z"/>
		<path class="st2" d="M68.581,55.803c0-1.258-1.021-2.279-2.279-2.279c-1.258,0-2.279,1.021-2.279,2.279
			c0,1.258,1.021,2.279,2.279,2.279C67.56,58.082,68.581,57.061,68.581,55.803z M63.794,51.627c6.382,0,8.205,4.558,8.205,7.293
			c-0.821,1.632-5.297,6.199-10.813,4.495c-2.389-1.313-4.002-3.856-4.002-6.774c0-1.349,0.346-2.617,0.957-3.729
			C59.509,52.183,61.306,51.627,63.794,51.627z"/>
		<path class="st3" d="M42.096,122.711c0.009,0.109,0.018,0.228,0.018,0.337c-2.908,1.595-6.199,2.544-9.5,3.009
			c-2.808,0.392-5.634,0.465-8.47,0.374c0.246-2.297,0.128-4.704-0.465-7.339c-0.83-3.72-0.474-13.256,1.823-15.499
			s7.166-4.176,10.029-2.735c1.313,0.666,2.316,2.334,3.009,3.638C41.476,109.984,41.64,116.502,42.096,122.711z"/>
		<path class="st4" d="M85.356,227.135c-1.03-2.133-2.115-4.312-3.273-6.646c-4.613-9.317-12.818-49.432-13.046-60.281
			c-0.137-6.719,1.623-14.45,6.792-18.735c3.419-2.835,9.099-4.239,13.539-4.121c6.209,0.173,13.73,1.523,18.106,5.926
			c5.935,5.981,6.892,16.392,6.199,24.789c-1.814,21.835-8.114,41.381-9.819,62.697c-0.228,2.908-0.374,5.853-0.41,8.843
			c-3.647-0.501-8.688-0.456-12.599-0.027C89.066,235.058,87.307,231.174,85.356,227.135z"/>
		<path class="st4" d="M23.106,188.671c8.397-10.229,20.048-23.713,24.734-36.385c0.219,8.479,1.285,16.957,2.571,25.691
			c1.532,10.402,9.737,32.283,13.657,43.351c0.702,1.969,1.96,4.896,2.398,7.512c0.237,1.404,0.237,2.717-0.21,3.747
			c-1.103,2.525-3.546,5.16-4.741,7.649c-1.915,4.002-1.003,8.552,2.088,10.621c-3.875,1.167-13.447,0.31-19.866,0.428
			c-2.58,0.046-6.765,0.137-9.117-0.912c-2.352-1.048-2.735-2.89-2.735-5.47c0-1.823,3.765-4.303,3.647-5.47
			c-0.191-1.96-5.078-5.233-7.868-8.716c-5.452-6.792-13.785-14.104-13.101-23.193c0.009-0.146,0.027-0.292,0.036-0.428
			c0.583-6.5,3.118-11.788,7.257-16.894C22.267,189.702,22.687,189.191,23.106,188.671z"/>
		<path class="st5" d="M68.645,84.557c-4.595-4.777-1.532-8.488-1.532-8.488c2.006-1.696,4.695-4.112,7.056-5.716
			c0.173,0.255,0.374,0.492,0.602,0.702c1.404,1.295,2.644,2.68,4.048,3.218c-0.009,0.401-0.046,0.875-0.146,1.468
			c-0.328,1.969-2.316,1.814-3.428,2.534c-0.976,0.456-0.784,2.279,0.565,2.352c2.89,0.164,5.844-0.173,8.725-0.319
			c1.386-0.073,1.559-1.987,0.492-2.389c-1.14-0.246-3.309-0.857-3.455-2.033c-0.091-0.766-0.109-1.285-0.109-1.723
			c1.222-0.629,2.079-2.106,4.048-4.267l4.075,2.17c5.744,3.264,9.691,5.999,6.072,11.387c-2.699,4.021-6.09,7.066-14.295,7.066
			C74.388,90.519,71.298,87.319,68.645,84.557z"/>
		<path class="st3" d="M90.844,239.58c0.1,0.246,0.201,0.511,0.301,0.766c1.796,4.65,1.823,10.94-2.972,11.332
			c-5.643,0.465-15.353,0.492-20.941,0.301c-1.422-0.055-2.635-0.456-3.629-1.121c-3.091-2.07-4.002-6.619-2.088-10.621
			c1.194-2.489,3.638-5.124,4.741-7.649c0.447-1.03,0.447-2.343,0.21-3.747c6.327-0.1,12.645-0.666,18.89-1.705
			C87.307,231.174,89.066,235.058,90.844,239.58z"/>
		<path class="st6" d="M78.819,74.273c-1.404-0.538-2.644-1.924-4.048-3.218c-0.228-0.21-0.428-0.447-0.602-0.702
			c1.158-0.793,2.234-1.386,3.109-1.595c0,0,1.039-0.492,2.735-0.492v2.544c-0.565-0.018-1.276,0.264-1.295,0.866
			C78.691,72.678,78.855,73.27,78.819,74.273z"/>
		<circle class="st7" cx="103.681" cy="55.803" r="2.279"/>
		<path class="st3" d="M103.444,239.607c0.036-2.99,0.182-5.935,0.41-8.843c5.662-0.383,11.323-0.693,16.985-0.93
			c-0.119,1.085,0.046,2.161,0.802,2.899c0.729,0.702,1.814,0.839,2.799,1.094c3.501,0.903,6.4,3.847,7.257,7.366
			s0.301,8.561-3.072,9.874c-4.713,1.832-11.952,2.006-17.924,1.222c-1.778-0.228-4.403-1.194-5.58-2.562
			c-1.605-1.851-1.714-7.257-1.687-9.7C103.434,239.89,103.434,239.744,103.444,239.607z"/>
		<path class="st4" d="M132.171,6.043c2.927,5.753,4.96,16.027,2.735,23.704c-1.869,6.418-3.993,10.548-8.187,15.371
			c-3.428-5.853-7.64-10.612-12.472-13.119c4.248-4.075,7.932-5.981,11.715-10.876C128.715,17.576,130.758,10.647,132.171,6.043z"/>
		<path class="st1" d="M72,58.92c0-2.735-1.823-7.293-8.205-7.293c-2.489,0-4.285,0.556-5.652,1.285
			c-2.152,1.14-3.264,2.717-4.376,3.273c0,0,0.857,3.747,5.47,6.382c0.656,0.374,1.313,0.656,1.951,0.848
			C66.703,65.12,71.179,60.552,72,58.92z M95.64,52.703c-2.699,1.523-3.583,4.312-3.583,6.218c0.62,1.24,3.337,4.157,7.02,4.759
			c1.741,0.292,3.692,0.055,5.744-1.112c4.613-2.635,5.47-6.382,5.47-6.382c-1.823-0.912-3.647-4.558-10.029-4.558
			C98.329,51.627,96.816,52.046,95.64,52.703z M47.84,152.286c-0.182-7.002,0.21-14.003,1.523-21.169
			c2.434-13.283,6.683-26.475,12.691-38.564c0,0-6.664-3.647-7.777-4.34c-5.981-3.765-13.739-11.925-13.484-16.966
			c0.21-4.121,2.152-7.549,3.856-9.591c4.558-5.47,2.644-7.959,3.027-11.861c0.164-1.641,0.702-3.464,1.459-5.306
			c2.152-5.288,6.017-10.658,7.366-12.007c0.748-0.748-1.659-4.458-1.896-5.488c-0.839-3.629-3.464-12.034-3.574-23.686
			c4.668,4.358,12.764,11.852,17.842,17.313c1.568,1.687,2.261,2.097,3.583,1.714c5.926-1.705,22.336-1.705,29.885,1.696
			c1.222,0.547,4.303-2.489,5.826-3.756c3.948-3.291,15.435-11.925,24.005-14.231c-1.413,4.604-3.455,11.533-6.209,15.079
			c-3.783,4.896-7.467,6.801-11.715,10.876c4.832,2.507,9.044,7.266,12.472,13.119c3.464,5.917,6.127,12.955,7.804,19.884
			c0.492,2.024,0.666,6.044-0.082,7.986c-0.693,1.805-3.1,5.889-4.549,7.175c-2.762,2.452-6.163,6.181-9.217,8.269
			c-2.179,1.486-0.346,3.957,0.83,4.768c9.755,6.746,16.41,29.083,13.584,63.426c-2.115,25.764-7.467,49.86-13.931,71.64
			c-0.146,0.492-0.264,1.03-0.319,1.568c-5.662,0.237-11.323,0.547-16.985,0.93c1.705-21.315,8.005-40.862,9.819-62.697
			c0.693-8.397-0.264-18.808-6.199-24.789c-4.376-4.403-11.897-5.753-18.106-5.926c-4.44-0.119-10.12,1.285-13.539,4.121
			c-5.169,4.285-6.929,12.016-6.792,18.735c0.228,10.849,8.433,50.963,13.046,60.281c1.158,2.334,2.243,4.513,3.273,6.646
			c-6.245,1.039-12.563,1.605-18.89,1.705c-0.438-2.617-1.696-5.543-2.398-7.512c-3.92-11.068-12.125-32.948-13.657-43.351
			C49.125,169.243,48.059,160.765,47.84,152.286z M67.113,76.069c0,0-3.063,3.711,1.532,8.488c2.653,2.762,5.744,5.962,12.718,5.962
			c8.205,0,11.597-3.045,14.295-7.066c3.619-5.388-0.328-8.123-6.072-11.387l-4.075-2.17c0.046-0.055,0.109-0.119,0.164-0.182
			c2.626-2.835-1.094-4.513-6.555-4.303c-5.616,0.228-6.181,3.072-4.95,4.941C71.808,71.958,69.119,74.374,67.113,76.069z
			 M109.351,95.78c0.046-0.474,0.036-0.985-0.237-1.377c-0.447-0.638-1.386-0.638-2.142-0.501c-3.145,0.593-5.871,1.541-8.807,2.808
			c-7.804,3.355-16.593,2.206-24.78-0.036c-1.386-0.374-4.394-0.119-4.85,1.413c-1.094,3.683,0.976,8.625,1.641,10.065
			c2.544,5.497,4.549,7.786,8.834,12.062c1.304,1.304,3.793,2.617,5.634,2.562c1.486-0.036,4.613-0.957,5.789-1.869
			c6.181-4.795,9.017-8.552,13.812-14.733C106.224,103.629,109.041,98.989,109.351,95.78z"/>
		<path class="st4" d="M109.114,94.403c0.274,0.392,0.283,0.903,0.237,1.377c-0.31,3.209-3.127,7.85-5.105,10.393
			c-4.795,6.181-7.631,9.937-13.812,14.733c-1.176,0.912-4.303,1.832-5.789,1.869c-1.842,0.055-4.331-1.258-5.634-2.562
			c-4.285-4.276-6.291-6.564-8.834-12.062c-0.666-1.44-2.735-6.382-1.641-10.065c0.456-1.532,3.464-1.787,4.85-1.413
			c8.187,2.243,16.976,3.391,24.78,0.036c2.936-1.267,5.662-2.215,8.807-2.808C107.728,93.765,108.668,93.765,109.114,94.403z"/>
		<path class="st2" d="M100.262,51.627c6.382,0,8.205,3.647,10.029,4.558c0,0-0.857,3.747-5.47,6.382
			c-2.051,1.167-4.002,1.404-5.744,1.112c-2.662-1.222-4.513-3.92-4.513-7.038c0-1.44,0.392-2.79,1.076-3.938
			C96.816,52.046,98.329,51.627,100.262,51.627z M105.96,55.803c0-1.258-1.021-2.279-2.279-2.279s-2.279,1.021-2.279,2.279
			c0,1.258,1.021,2.279,2.279,2.279S105.96,57.061,105.96,55.803z"/>
		<path class="st6" d="M80.013,68.265c1.222,0,2.79,0.255,4.549,1.13l0.948,0.501c-1.969,2.161-2.826,3.638-4.048,4.267
			c0.009-0.757,0.073-1.222-0.109-2.179c-0.155-0.784-0.675-1.203-1.285-1.176c-0.018,0-0.036,0-0.055,0V68.265z"/>
		<circle class="st7" cx="66.302" cy="55.803" r="2.279"/>
		<path class="st6" d="M81.463,74.164c-0.328,0.173-0.675,0.283-1.076,0.328c-0.556,0.064-1.067-0.027-1.568-0.219
			c0.036-1.003-0.128-1.595-0.1-2.598c0.018-0.602,0.729-0.884,1.295-0.866c0.018,0,0.036,0,0.055,0
			c0.611-0.027,1.13,0.392,1.285,1.176C81.536,72.942,81.472,73.407,81.463,74.164z"/>
		<path class="st4" d="M54.605,26.993c0.237,1.03,2.644,4.741,1.896,5.488c-1.349,1.349-5.215,6.719-7.366,12.007
			c-3.893-3.091-6.974-19.364-5.397-25.682c1.823-7.293,3.537-11.87,7.293-15.499C51.14,14.959,53.766,23.365,54.605,26.993z"/>
		<path class="st0" d="M94.564,56.641c0,3.118,1.851,5.817,4.513,7.038c-3.683-0.602-6.4-3.519-7.02-4.759
			c0-1.905,0.884-4.695,3.583-6.218C94.956,53.852,94.564,55.201,94.564,56.641z"/>
		<path class="st6" d="M84.563,69.396c-1.76-0.875-3.328-1.13-4.549-1.13c-1.696,0-2.735,0.492-2.735,0.492
			c-0.875,0.21-1.951,0.802-3.109,1.595c-1.231-1.869-0.666-4.713,4.95-4.941c5.461-0.21,9.181,1.468,6.555,4.303
			c-0.055,0.064-0.119,0.128-0.164,0.182L84.563,69.396z"/>
		<path class="st2" d="M81.572,75.887c0.146,1.176,2.316,1.787,3.455,2.033c1.067,0.401,0.893,2.316-0.492,2.389
			c-2.881,0.146-5.835,0.483-8.725,0.319c-1.349-0.073-1.541-1.896-0.565-2.352c1.112-0.72,3.1-0.565,3.428-2.534
			c0.1-0.593,0.137-1.067,0.146-1.468c0.501,0.191,1.012,0.283,1.568,0.219c0.401-0.046,0.748-0.155,1.076-0.328
			C81.463,74.601,81.481,75.121,81.572,75.887z"/>
	</g>
	<g>
	</g>
</g>
</svg>
