<?xml version="1.0" encoding="utf-8"?>
<!-- Generator: Adobe Illustrator 22.1.0, SVG Export Plug-In . SVG Version: 6.00 Build 0)  -->
<svg version="1.1" id="Layer_1" xmlns="http://www.w3.org/2000/svg" xmlns:xlink="http://www.w3.org/1999/xlink" x="0px" y="0px"
	 viewBox="0 0 141.037 256.037" style="enable-background:new 0 0 141.037 256.037;" xml:space="preserve">
<style type="text/css">
	.st0{fill:#FAA95E;}
	.st1{fill:#DE7000;}
	.st2{fill:#FFD200;}
	.st3{fill:#393937;}
	.st4{fill:#E9E9E9;}
	.st5{fill:#FFFFFF;}
	.st6{fill:#FABF71;}
	.st7{fill:#FF9A56;}
</style>
<path class="st0" d="M56.204,22.158c0.237,1.03,2.862,10.728,2.114,11.475c-1.349,1.349-7.032,5.567-9.183,10.855
	c-3.893-3.091-6.974-19.364-5.397-25.682c1.823-7.293,3.537-11.87,7.293-15.499C51.14,14.959,55.365,18.53,56.204,22.158z"/>
<path class="st0" d="M132.171,6.043c2.927,5.753,4.96,16.027,2.735,23.704c-1.869,6.418-3.993,10.548-8.187,15.371
	c-3.428-5.853-11.596-8.978-16.428-11.485c4.248-4.075,8.996-8.543,12.779-13.438C125.823,16.648,130.758,10.647,132.171,6.043z"/>
<path class="st1" d="M42.115,123.048c0.52,7.822-1.003,13.621-6.582,23.394c-3.565,6.236-8.205,14.587-12.764,20.057
	c-4.267,5.115-5.324,18.744,0.337,22.172c-0.419,0.52,4.125,7.345,3.715,7.847c-4.139,5.105-11.638,4.078-12.221,10.579
	c-4.485-1.103-7.695-4.312-9.153-8.688c-1.559-4.668-1.422-17.058-0.912-20.057c4.95-29.092,18.215-38.765,19.61-51.92
	c2.835,0.091,5.74-4.091,8.548-4.483C35.993,121.483,39.206,124.644,42.115,123.048z"/>
<path class="st0" d="M23.106,188.671c8.397-10.229,20.048-23.713,24.734-36.385c0.219,8.479,2.712,16.553,3.998,25.287
	c1.532,10.402,10.866,30.465,14.786,41.533c0.702,1.969-0.596,7.118-0.158,9.734c0.237,1.404,0.237,2.717-0.21,3.747
	c-1.103,2.525-3.546,5.16-4.741,7.649c-1.915,4.002-1.003,8.552,2.088,10.621c-3.875,1.167-13.447,0.31-19.866,0.428
	c-2.58,0.046-6.765,0.137-9.117-0.912c-2.352-1.048-2.735-2.89-2.735-5.47c0-1.823,3.765-4.303,3.647-5.47
	c-0.191-1.96-5.078-5.233-7.868-8.716c-5.452-6.792-13.785-14.104-13.101-23.193c0.009-0.146,0.027-0.292,0.036-0.428
	c0.583-6.5,3.118-11.788,7.257-16.894C22.267,189.702,22.687,189.191,23.106,188.671z"/>
<path class="st1" d="M47.84,152.286c-0.182-7.002,0.21-14.003,1.523-21.169c2.434-13.283,6.683-26.475,12.691-38.564
	c0,0-6.664-3.647-7.777-4.34c-5.981-3.765-13.739-11.925-13.484-16.966c0.21-4.121,2.152-7.549,3.856-9.591
	c4.558-5.47,2.644-7.959,3.027-11.861c0.164-1.641,0.702-3.464,1.459-5.306c2.152-5.288,6.017-10.658,7.366-12.007
	c0.748-0.748-1.659-4.458-1.896-5.488c-0.839-3.629-3.464-12.034-3.574-23.686c4.668,4.358,12.764,11.852,17.842,17.313
	c1.568,1.687,2.261,2.097,3.583,1.714c5.926-1.705,22.336-1.705,29.885,1.696c1.222,0.547,4.303-2.489,5.826-3.756
	c3.948-3.291,15.435-11.925,24.005-14.231c-1.413,4.604-3.455,11.533-6.209,15.079c-3.783,4.896-7.467,6.801-11.715,10.876
	c4.832,2.507,9.044,7.266,12.472,13.119c3.464,5.917,6.127,12.955,7.804,19.884c0.492,2.024,0.666,6.044-0.082,7.986
	c-0.693,1.805-3.1,5.889-4.549,7.175c-2.762,2.452-6.163,6.181-9.217,8.269c-2.179,1.486-0.346,3.957,0.83,4.768
	c9.755,6.746,16.41,29.083,13.584,63.426c-2.115,25.764-7.467,49.86-13.931,71.64c-0.146,0.492-0.264,1.03-0.319,1.568
	c-5.662,0.237-6.973,8.991-16.985,0.93c1.705-21.315-19.528-5.762-18.498-3.629c-6.245,1.039-8.97,7.37-18.89,1.705
	c-0.438-2.617-1.696-5.543-2.398-7.512c-3.92-11.068-12.125-32.948-13.657-43.351C49.125,169.243,48.059,160.765,47.84,152.286z"/>
<g>
	<path class="st2" d="M59.236,62.567c-4.613-2.635-5.47-6.382-5.47-6.382c1.112-0.556,2.225-2.133,4.376-3.273
		c-0.611,1.112,0.688,2.542,0.688,3.892c0,2.917-0.032,5.298,2.356,6.611C60.549,63.224,59.892,62.941,59.236,62.567z"/>
	<path class="st3" d="M63.794,51.627c6.382,0,8.205,4.558,8.205,7.293c-0.821,1.632-5.297,6.199-10.813,4.495
		c-2.389-1.313-4.002-3.856-4.002-6.774c0-1.349,0.346-2.617,0.957-3.729C59.509,52.183,61.306,51.627,63.794,51.627z"/>
	<circle class="st4" cx="66.302" cy="55.803" r="2.279"/>
</g>
<g>
	<path class="st2" d="M99.077,63.679c-3.683-0.602-6.4-3.519-7.02-4.759c0-1.905,0.884-4.695,3.583-6.218
		C94.956,53.852,96.415,62.458,99.077,63.679z"/>
	<path class="st3" d="M100.262,51.627c6.382,0,8.205,3.647,10.029,4.558c0,0-0.857,3.747-5.47,6.382
		c-2.051,1.167-4.002,1.404-5.744,1.112c-2.662-1.222-4.513-3.92-4.513-7.038c0-1.44,0.392-2.79,1.076-3.938
		C96.816,52.046,98.329,51.627,100.262,51.627z"/>
	<circle class="st4" cx="103.681" cy="55.803" r="2.279"/>
</g>
<path class="st5" d="M42.096,122.711c0.009,0.109,0.018,0.228,0.018,0.337c-2.908,1.595-6.199,2.544-9.5,3.009
	c-2.808,0.392-5.634,0.465-8.47,0.374c0.246-2.297,0.128-4.704-0.465-7.339c-0.83-3.72-0.474-13.256,1.823-15.499
	s7.166-4.176,10.029-2.735c1.313,0.666,2.316,2.334,3.009,3.638C41.476,109.984,41.64,116.502,42.096,122.711z"/>
<path class="st0" d="M85.356,227.135c-1.03-2.133-2.115-4.312-3.273-6.646c-4.613-9.317-12.818-49.432-13.046-60.281
	c-0.137-6.719,1.623-14.45,6.792-18.735c3.419-2.835,9.099-4.239,13.539-4.121c6.209,0.173,13.73,1.523,18.106,5.926
	c5.935,5.981,6.892,16.392,6.199,24.789c-1.814,21.835-8.114,41.381-9.819,62.697c-0.228,2.908-0.374,5.853-0.41,8.843
	c-3.647-0.501-8.688-0.456-12.599-0.027C89.066,235.058,87.307,231.174,85.356,227.135z"/>
<path class="st5" d="M90.844,239.58c0.1,0.246,0.201,0.511,0.301,0.766c1.796,4.65,1.823,10.94-2.972,11.332
	c-5.643,0.465-15.353,0.492-20.941,0.301c-1.422-0.055-2.635-0.456-3.629-1.121c-3.091-2.07-4.002-6.619-2.088-10.621
	c1.194-2.489,3.638-5.124,4.741-7.649c0.447-1.03,0.447-2.343,0.21-3.747c6.327-0.1,12.645-0.666,18.89-1.705
	C87.307,231.174,89.066,235.058,90.844,239.58z"/>
<path class="st5" d="M103.444,239.607c0.036-2.99,0.182-5.935,0.41-8.843c5.662-0.383,11.323-0.693,16.985-0.93
	c-0.119,1.085,0.046,2.161,0.802,2.899c0.729,0.702,1.814,0.839,2.799,1.094c3.501,0.903,6.4,3.847,7.257,7.366
	s0.301,8.561-3.072,9.874c-4.713,1.832-11.952,2.006-17.924,1.222c-1.778-0.228-4.403-1.194-5.58-2.562
	c-1.605-1.851-1.714-7.257-1.687-9.7C103.434,239.89,103.434,239.744,103.444,239.607z"/>
<path class="st0" d="M109.114,94.403c0.274,0.392,0.283,0.903,0.237,1.377c-0.31,3.209-3.127,7.85-5.105,10.393
	c-4.795,6.181-7.631,9.937-13.812,14.733c-1.176,0.912-4.303,1.832-5.789,1.869c-1.842,0.055-4.331-1.258-5.634-2.562
	c-4.285-4.276-6.291-6.564-8.834-12.062c-0.666-1.44-2.735-6.382-1.641-10.065c0.456-1.532,3.464-1.787,4.85-1.413
	c8.187,2.243,16.976,3.391,24.78,0.036c2.936-1.267,5.662-2.215,8.807-2.808C107.728,93.765,108.668,93.765,109.114,94.403z"/>
<g>
	<path class="st6" d="M68.645,84.557c-4.595-4.777-1.532-8.488-1.532-8.488c2.006-1.696,4.695-4.112,7.056-5.716
		c0.173,0.255,0.374,0.492,0.602,0.702c1.404,1.295,8.771,1.002,10.74-1.159l4.075,2.17c5.744,3.264,9.691,5.999,6.072,11.387
		c-2.699,4.021-6.09,7.066-14.295,7.066C74.388,90.519,71.298,87.319,68.645,84.557z"/>
	<path class="st7" d="M79.12,65.412c-5.615,0.228-6.181,3.072-4.95,4.941c0,0,0,0-0.001,0c0.174,0.255,0.374,0.492,0.602,0.702
		c1.404,1.294,2.644,2.68,4.048,3.218c0.036-1.003,0.036-1.003,0,0c0.501,0.192,1.012,0.283,1.568,0.219
		c0.401-0.045,0.748-0.155,1.076-0.328c0-0.001,0-0.001,0-0.002c1.221-0.629,2.078-2.106,4.047-4.266l0.001,0.001
		c0.045-0.054,0.109-0.118,0.164-0.182C88.301,66.88,84.581,65.202,79.12,65.412z"/>
	<path class="st3" d="M81.572,75.887c0.146,1.176,2.316,1.787,3.455,2.033c1.067,0.401,0.893,2.316-0.492,2.389
		c-2.881,0.146-5.835,0.483-8.725,0.319c-1.349-0.073-1.541-1.896-0.565-2.352c1.112-0.72,3.1-0.565,3.428-2.534
		c0.1-0.593,0.137-1.067,0.146-1.468c0.501,0.191,1.012,0.283,1.568,0.219c0.401-0.046,0.748-0.155,1.076-0.328
		C81.463,74.601,81.481,75.121,81.572,75.887z"/>
</g>
</svg>
