<?xml version="1.0" encoding="utf-8"?>
<!-- Generator: Adobe Illustrator 22.1.0, SVG Export Plug-In . SVG Version: 6.00 Build 0)  -->
<svg version="1.1" id="Layer_1" xmlns="http://www.w3.org/2000/svg" xmlns:xlink="http://www.w3.org/1999/xlink" x="0px" y="0px"
	 viewBox="0 0 250.059 130.059" style="enable-background:new 0 0 250.059 130.059;" xml:space="preserve">
<style type="text/css">
	.st0{fill:#FFFDFA;}
	.st1{fill:#333333;}
	.st2{fill:#9A8F7E;}
	.st3{fill:#EFEAE9;}
	.st4{fill:#D2BFA2;}
</style>
<g id="XMLID_4_">
	<g>
		<path class="st0" d="M53.549,117.289c-0.22-1.53,0.17-4.92,2.33-7.03c10.57,2.11,22.71-0.39,32.13-5.41
			c-0.04,0.18-0.07,0.37-0.1,0.56c-5.59,7.74-12.43,13.79-21.82,16.18c-2.05,0.52-5.95,0.51-8,0
			C56.039,121.079,53.839,119.379,53.549,117.289z"/>
		<path class="st1" d="M94.799,86.889c0.39,0.39,0.38,1.02-0.01,1.41c-0.06,0.06-1.54,1.5-3.61,1.09c-0.61-0.11-1.19-0.37-1.74-0.78
			c-0.02,0.24-0.06,0.49-0.11,0.74c-0.4,2-1.64,3.7-3.69,5.07c-0.17,0.11-0.36,0.17-0.55,0.17c-0.32,0-0.64-0.16-0.83-0.45
			c-0.31-0.46-0.18-1.08,0.27-1.39c3.53-2.35,3.14-5.36,2.53-7.04c-0.25-0.44-0.48-0.92-0.7-1.44c-0.02-0.04-0.03-0.08-0.04-0.12
			c0.7,0.02,1.33-0.4,1.62-1.02c0.06,0.06,0.11,0.12,0.16,0.19c0.04,0.05,0.41,0.62,0.76,1.52c0.85,1.52,1.78,2.41,2.7,2.59
			c1.02,0.2,1.82-0.55,1.83-0.56C93.779,86.489,94.419,86.489,94.799,86.889z"/>
		<path class="st0" d="M88.089,104.809c0.14-0.07,0.27-0.15,0.42-0.23c-0.19,0.28-0.39,0.56-0.6,0.83c0.03-0.19,0.06-0.38,0.1-0.56
			C88.039,104.839,88.059,104.819,88.089,104.809z"/>
		<path class="st1" d="M88.089,82.409c0,0.26-0.06,0.5-0.15,0.72c-0.31-0.28-0.77-0.34-1.15-0.13c-0.41,0.23-0.61,0.71-0.47,1.15
			c-0.12,0-0.24-0.01-0.36-0.04l-3.07-0.68c-1.43-0.32-1.78-2.19-0.56-3.01l3.17-2.11c1.11-0.74,2.59,0.06,2.59,1.38V82.409z"/>
		<path class="st2" d="M180.479,29.599c-23.83-1.56-48.16,6.97-65.75,23.11l-0.28,0.14c-2.94-5.9-7.73-12.96-12.64-16.5
			c0-0.04-0.01-0.07-0.01-0.11c-0.11-1.61-0.22-3.08-0.35-4.44c9.7,5.82,12.12,7.15,16.34,4.93c6.4-3.37,13.1-5.98,19.96-7.8
			c14.1-3.74,28.84-4.13,42.84-0.87L180.479,29.599z"/>
		<path class="st2" d="M210.779,94.619c-13.63,10.12-39.09,8.8-55.69,6.11c-0.65-0.11-1.31-0.21-1.96-0.33
			C171.669,95.439,191.829,94.409,210.779,94.619z"/>
		<path class="st3" d="M32.009,106.759c2-1.9,4.62-3,7.17-4.06l0.01-0.02c3.83,3.19,8.16,5.26,13.9,6.91
			c0.91,0.26,1.85,0.49,2.79,0.67c-2.16,2.11-2.55,5.5-2.33,7.03l-2.19,0.22c-5.03,4.68-13.52,5.02-18.91,0.76
			c-1.34-1.06-2.52-2.41-2.99-4.05C28.699,111.559,29.999,108.659,32.009,106.759z"/>
		<path class="st0" d="M103.819,94.719c-4.81,3.82-11.28,7.67-15.31,9.86c-0.15,0.08-0.28,0.16-0.42,0.23
			c-0.03,0.01-0.05,0.03-0.08,0.04c0.27-1.35,0.82-2.65,1.63-3.73c3.16-4.18,8.69-5.74,13.89-6.37
			C103.629,94.739,103.719,94.729,103.819,94.719z"/>
		<path class="st1" d="M86.789,82.999c0.38-0.21,0.84-0.15,1.15,0.13c-0.29,0.62-0.92,1.04-1.62,1.02
			C86.179,83.709,86.379,83.229,86.789,82.999z"/>
		<path class="st1" d="M52.749,91.919c3.8-7.6,10.66-8.48,15.81-6.76c0.79,0.27,1.21,1.11,0.95,1.9c-0.26,0.79-1.11,1.21-1.89,0.95
			c-2.47-0.82-8.59-1.96-12.19,5.25c-0.26,0.52-0.79,0.83-1.34,0.83c-0.23,0-0.46-0.05-0.67-0.16
			C52.679,93.559,52.379,92.659,52.749,91.919z"/>
		<path class="st0" d="M113.599,94.299c9.3,0.22,18.58,2.03,27.85,3.88c-1.23,2.13-2.02,4.49-2.38,6.92
			c-0.61,4.24,0.1,8.68,2.15,12.45l-0.05,0.62c-15.21-1.13-30.43-2.25-45.65-3.37c-1.06-0.08-2.14-0.16-3.16-0.5
			c-3.51-1.17-4.99-5.17-4.45-8.89c0.21-0.27,0.41-0.55,0.6-0.83c4.03-2.19,10.5-6.04,15.31-9.86
			C107.079,94.339,110.339,94.219,113.599,94.299z"/>
		<path class="st4" d="M55.429,93.259c3.6-7.21,9.72-6.07,12.19-5.25c0.78,0.26,1.63-0.16,1.89-0.95c0.26-0.79-0.16-1.63-0.95-1.9
			c-5.15-1.72-12.01-0.84-15.81,6.76c-0.37,0.74-0.07,1.64,0.67,2.01c0.21,0.11,0.44,0.16,0.67,0.16
			C54.639,94.089,55.169,93.779,55.429,93.259z M91.629,70.219c-0.2,0.81,0.29,1.62,1.1,1.82c0.12,0.03,0.24,0.05,0.36,0.05
			c0.67,0,1.28-0.46,1.45-1.14c0.83-3.29,4.14-5.86,7.55-5.86c0.83,0,1.5-0.68,1.5-1.5c0-0.83-0.67-1.5-1.5-1.5
			C97.369,62.089,92.769,65.659,91.629,70.219z M87.059,85.709c0.61,1.68,1,4.69-2.53,7.04c-0.45,0.31-0.58,0.93-0.27,1.39
			c0.19,0.29,0.51,0.45,0.83,0.45c0.19,0,0.38-0.06,0.55-0.17c2.05-1.37,3.29-3.07,3.69-5.07c0.05-0.25,0.09-0.5,0.11-0.74
			c0.55,0.41,1.13,0.67,1.74,0.78c2.07,0.41,3.55-1.03,3.61-1.09c0.39-0.39,0.4-1.02,0.01-1.41c-0.38-0.4-1.02-0.4-1.41-0.02
			c-0.01,0.01-0.81,0.76-1.83,0.56c-0.92-0.18-1.85-1.07-2.7-2.59c-0.35-0.9-0.72-1.47-0.76-1.52c-0.05-0.07-0.1-0.13-0.16-0.19
			c0.09-0.22,0.15-0.46,0.15-0.72v-2.72c0-1.32-1.48-2.12-2.59-1.38l-3.17,2.11c-1.22,0.82-0.87,2.69,0.56,3.01l3.07,0.68
			c0.12,0.03,0.24,0.04,0.36,0.04c0.01,0.04,0.02,0.08,0.04,0.12C86.579,84.789,86.809,85.269,87.059,85.709z M29.579,52.089
			c-5.52-0.14-20.32-6.69-27.35-9.73c3.87-0.75,12.76-0.53,17.94,0.28c4.89,0.77,7.92,0.95,12.66,1.62c0,0,7.26-9.67,21.52-14.33
			c8.33-2.72,23.91-1.01,23.91-1.01c1.84-6.76,1.79-10.83,4.53-17.27c1.3-3.06,4.54-8.05,6.3-9.06c0.19,0,0.38,0.02,0.56,0.05h0.01
			c0.84,8.16-1.09,23.56-2.07,28.45c0,0,7.14,2.39,14.21,5.15c0,0.04,0.01,0.07,0.01,0.11c4.91,3.54,9.7,10.6,12.64,16.5
			c1.43,2.85,2.42,5.42,2.8,7.19c0.58,2.72,0.67,5.43,0.38,8.13c-0.74,7.07-4.11,14.03-8.22,20.88c-1.03,1.72-3.09,3.7-5.59,5.67
			c-0.1,0.01-0.19,0.02-0.29,0.03c-5.2,0.63-10.73,2.19-13.89,6.37c-0.81,1.08-1.36,2.38-1.63,3.73
			c-9.42,5.02-21.56,7.52-32.13,5.41c-0.94-0.18-1.88-0.41-2.79-0.67c-5.74-1.65-10.07-3.72-13.9-6.91
			c-3.62-3.02-6.8-7.07-10.3-12.72c-4.42-7.14-4.29-18.52-4.12-22.04c0-0.02,0-0.04,0-0.07
			C25.589,60.319,28.989,52.089,29.579,52.089z"/>
		<path class="st2" d="M109.409,89.049c4.11-6.85,7.48-13.81,8.22-20.88l0.13,0.01c0.41,8.87-1.02,17.81-4.16,26.12
			c-3.26-0.08-6.52,0.04-9.78,0.42C106.319,92.749,108.379,90.769,109.409,89.049z"/>
		<path class="st4" d="M153.129,100.399c-4.81,1.29-9.52,2.84-14.06,4.7c0.36-2.43,1.15-4.79,2.38-6.92
			C145.339,98.949,149.239,99.729,153.129,100.399z"/>
		<path class="st4" d="M141.449,98.179c-9.27-1.85-18.55-3.66-27.85-3.88c3.14-8.31,4.57-17.25,4.16-26.12l-0.13-0.01
			c0.29-2.7,0.2-5.41-0.38-8.13c-0.38-1.77-1.37-4.34-2.8-7.19l0.28-0.14c17.59-16.14,41.92-24.67,65.75-23.11l0.11-1.54
			c-14-3.26-28.74-2.87-42.84,0.87c-6.86,1.82-13.56,4.43-19.96,7.8c-4.22,2.22-6.64,0.89-16.34-4.93c-0.39-3.95-0.89-7-1.62-10.03
			c29.69-13.02,63.42-19.43,95.13-12.84c7.25,1.51,14.49,3.57,20.88,7.3c14.08,8.22,23.55,14.08,29.25,29.36
			c3.63,9.74,5,30,1.77,39.82c-3.51,10.69-12.19,19.14-21.84,24.94c-6.82,4.1-15.74,6.24-23.38,8.45
			c-10.44,3.01-21.54,2.24-32.37,1.44c-9.37-0.69-18.73-1.39-28.1-2.07l0.05-0.62c-2.05-3.77-2.76-8.21-2.15-12.45
			c4.54-1.86,9.25-3.41,14.06-4.7c0.65,0.12,1.31,0.22,1.96,0.33c16.6,2.69,42.06,4.01,55.69-6.11
			c-18.95-0.21-39.11,0.82-57.65,5.78C149.239,99.729,145.339,98.949,141.449,98.179z"/>
		<path class="st3" d="M101.799,36.239c-7.07-2.76-14.21-5.15-14.21-5.15c0.98-4.89,2.91-20.29,2.07-28.45
			c2.81,0.47,5.56,4.33,7.43,9.95c1.17,3.52,2.06,6.34,2.74,9.18c0.73,3.03,1.23,6.08,1.62,10.03
			C101.579,33.159,101.689,34.629,101.799,36.239z"/>
		<path class="st1" d="M102.089,65.089c-3.41,0-6.72,2.57-7.55,5.86c-0.17,0.68-0.78,1.14-1.45,1.14c-0.12,0-0.24-0.02-0.36-0.05
			c-0.81-0.2-1.3-1.01-1.1-1.82c1.14-4.56,5.74-8.13,10.46-8.13c0.83,0,1.5,0.67,1.5,1.5
			C103.589,64.409,102.919,65.089,102.089,65.089z"/>
		<path class="st3" d="M2.229,42.359c7.03,3.04,21.83,9.59,27.35,9.73c-0.59,0-3.99,8.23-4.81,15.76c0.03-0.64,0.06-1.01,0.06-1.01
			c-9.74-5.25-13.74-9.25-17.25-12.78c-1.47-1.49-7.49-8.47-5.95-11.57C1.809,42.439,2.009,42.399,2.229,42.359z"/>
	</g>
	<g>
	</g>
</g>
</svg>
