<?xml version="1.0" encoding="utf-8"?>
<!-- Generator: Adobe Illustrator 22.1.0, SVG Export Plug-In . SVG Version: 6.00 Build 0)  -->
<svg version="1.1" id="Layer_1" xmlns="http://www.w3.org/2000/svg" xmlns:xlink="http://www.w3.org/1999/xlink" x="0px" y="0px"
	 viewBox="0 0 250.059 130.059" style="enable-background:new 0 0 250.059 130.059;" xml:space="preserve">
<style type="text/css">
	.st0{fill:#EFEAE9;}
	.st1{fill:#FFFDFA;}
	.st2{fill:#D2BFA2;}
	.st3{fill:#9A8F7E;}
	.st4{fill:#333333;}
</style>
<path class="st0" d="M32.009,106.759c2-1.9,4.62-3,7.17-4.06l0.01-0.02c3.83,3.19,8.566,1.893,14.306,3.543
	c0.91,0.26,5.819,4.464,6.759,4.644c-2.16,2.11-6.925,4.893-6.705,6.423l-2.19,0.22c-5.03,4.68-13.52,5.02-18.91,0.76
	c-1.34-1.06-2.52-2.41-2.99-4.05C28.699,111.559,29.999,108.659,32.009,106.759z"/>
<path class="st1" d="M53.549,117.289c-0.22-1.53,0.17-4.92,2.33-7.03c10.57,2.11,21.239-4.85,32.13-5.41
	c-0.04,0.18-0.07,0.37-0.1,0.56c-5.59,7.74-12.43,13.79-21.82,16.18c-2.05,0.52-5.95,0.51-8,0
	C56.039,121.079,53.839,119.379,53.549,117.289z"/>
<path class="st2" d="M245.089,45.589c-5.7-15.28-15.17-21.14-29.25-29.36c-6.39-3.73-13.63-5.79-20.88-7.3
	c-31.71-6.59-65.44-0.18-95.13,12.84c0.73,3.03-9.33-10.97-10.17-19.13h-0.01c-0.18-0.03-0.37-0.05-0.56-0.05
	c-1.76,1.01-5,6-6.3,9.06c-2.74,6.44-2.69,10.51-4.53,17.27c0,0-15.58-1.71-23.91,1.01c-14.26,4.66-21.52,14.33-21.52,14.33
	c-4.74-0.67-7.77-0.85-12.66-1.62c-5.18-0.81-14.07-1.03-17.94-0.28c7.03,3.04,23.36,17.96,22.54,25.49c0,0.03,0,0.05,0,0.07
	c-0.17,3.52-0.3,14.9,4.12,22.04c3.5,5.65,6.68,9.7,10.3,12.72c3.83,3.19,8.16,5.26,13.9,6.91c0.91,0.26,1.85,0.49,2.79,0.67
	c10.57,2.11,22.71-0.39,32.13-5.41c0.27-1.35,44.17-8.52,53.44-6.67c-1.23,2.13-2.02,4.49-2.38,6.92c-0.61,4.24,0.1,8.68,2.15,12.45
	l-0.05,0.62c9.37,0.68,18.73,1.38,28.1,2.07c10.83,0.8,21.93,1.57,32.37-1.44c7.64-2.21,16.56-4.35,23.38-8.45
	c9.65-5.8,18.33-14.25,21.84-24.94C250.089,75.589,248.719,55.329,245.089,45.589z"/>
<path class="st1" d="M88.089,104.809c0.14-0.07,0.27-0.15,0.42-0.23c-0.19,0.28-0.39,0.56-0.6,0.83c0.03-0.19,0.06-0.38,0.1-0.56
	C88.039,104.839,88.059,104.819,88.089,104.809z"/>
<path class="st3" d="M180.479,29.599c-23.83-1.56-48.16,6.97-65.75,23.11l-0.28,0.14c-2.94-5.9-7.73-12.96-12.64-16.5
	c0-0.04-0.01-0.07-0.01-0.11c-0.11-1.61-0.22-3.08-0.35-4.44c9.7,5.82,12.12,7.15,16.34,4.93c6.4-3.37,13.1-5.98,19.96-7.8
	c14.1-3.74,28.84-4.13,42.84-0.87L180.479,29.599z"/>
<path class="st3" d="M210.779,94.619c-13.63,10.12-39.09,8.8-55.69,6.11c-0.65-0.11-1.31-0.21-1.96-0.33
	C171.669,95.439,191.829,94.409,210.779,94.619z"/>
<path class="st4" d="M94.799,86.889c-0.38-0.4-1.02-0.4-1.41-0.02c-0.01,0.01-0.81,0.76-1.83,0.56c-0.92-0.18-1.85-1.07-2.7-2.59
	c-0.35-0.9-0.72-1.47-0.76-1.52c-0.05-0.07-0.1-0.13-0.16-0.19c0.09-0.22,0.15-0.46,0.15-0.72v-2.72c0-1.32-1.48-2.12-2.59-1.38
	l-3.17,2.11c-1.22,0.82-0.87,2.69,0.56,3.01l3.07,0.68c0.12,0.03,0.24,0.04,0.36,0.04c-0.14-0.44-0.14-0.44,0,0h0
	c0.01,0.04,0.02,0.08,0.04,0.12c0.22,0.52,0.45,1,0.7,1.44c0.61,1.68,1,4.69-2.53,7.04c-0.45,0.31-0.58,0.93-0.27,1.39
	c0.19,0.29,0.51,0.45,0.83,0.45c0.19,0,0.38-0.06,0.55-0.17c2.05-1.37,3.29-3.07,3.69-5.07c0.05-0.25,0.09-0.5,0.11-0.74
	c0.55,0.41,1.13,0.67,1.74,0.78c2.07,0.41,3.55-1.03,3.61-1.09C95.179,87.909,95.189,87.279,94.799,86.889z"/>
<path class="st4" d="M52.749,91.919c3.8-7.6,10.66-8.48,15.81-6.76c0.79,0.27,1.21,1.11,0.95,1.9s-1.11,1.21-1.89,0.95
	c-2.47-0.82-8.59-1.96-12.19,5.25c-0.26,0.52-0.79,0.83-1.34,0.83c-0.23,0-0.46-0.05-0.67-0.16
	C52.679,93.559,52.379,92.659,52.749,91.919z"/>
<path class="st1" d="M139.069,105.099c0.36-2.43,1.15-4.79,2.38-6.92c-9.27-1.85-18.55-3.66-27.85-3.88
	c-3.26-0.08-6.52,0.04-9.78,0.42l0,0c-0.1,0.01-0.19,0.02-0.29,0.03c-5.2,0.63-10.73,2.19-13.89,6.37
	c-0.81,1.08-1.36,2.38-1.63,3.73c0.03-0.01,0.05-0.03,0.08-0.04c0.14-0.07,0.27-0.15,0.42-0.23c-0.19,0.28-0.39,0.56-0.6,0.83
	c-0.54,3.72,0.94,7.72,4.45,8.89c1.02,0.34,2.1,0.42,3.16,0.5c15.22,1.12,30.44,2.24,45.65,3.37l0.05-0.62
	C139.169,113.779,138.459,109.339,139.069,105.099z"/>
<path class="st3" d="M109.409,89.049c4.11-6.85,7.48-13.81,8.22-20.88l0.13,0.01c0.41,8.87-1.02,17.81-4.16,26.12
	c-3.26-0.08-6.52,0.04-9.78,0.42C106.319,92.749,108.379,90.769,109.409,89.049z"/>
<path class="st0" d="M101.799,36.239c-7.07-2.76-14.21-5.15-14.21-5.15c0.98-4.89,2.91-20.29,2.07-28.45
	c2.81,0.47,5.56,4.33,7.43,9.95c1.17,3.52,2.06,6.34,2.74,9.18c0.73,3.03,1.23,6.08,1.62,10.03
	C101.579,33.159,101.689,34.629,101.799,36.239z"/>
<path class="st4" d="M102.089,65.089c-3.41,0-6.72,2.57-7.55,5.86c-0.17,0.68-0.78,1.14-1.45,1.14c-0.12,0-0.24-0.02-0.36-0.05
	c-0.81-0.2-1.3-1.01-1.1-1.82c1.14-4.56,5.74-8.13,10.46-8.13c0.83,0,1.5,0.67,1.5,1.5
	C103.589,64.409,102.919,65.089,102.089,65.089z"/>
<path class="st0" d="M2.229,42.359c7.03,3.04,21.83,9.59,27.35,9.73c-0.59,0-3.99,8.23-4.81,15.76c0.03-0.64,0.06-1.01,0.06-1.01
	c-9.74-5.25-13.74-9.25-17.25-12.78c-1.47-1.49-7.49-8.47-5.95-11.57C1.809,42.439,2.009,42.399,2.229,42.359z"/>
</svg>
