<?xml version="1.0" encoding="utf-8"?>
<!-- Generator: Adobe Illustrator 22.1.0, SVG Export Plug-In . SVG Version: 6.00 Build 0)  -->
<svg version="1.1" id="Layer_1" xmlns="http://www.w3.org/2000/svg" xmlns:xlink="http://www.w3.org/1999/xlink" x="0px" y="0px"
	 viewBox="0 0 1366 1303" style="enable-background:new 0 0 1366 1303;" xml:space="preserve">
<style type="text/css">
	.st0{fill:url(#SVGID_1_);}
	.st1{fill:#071728;}
	.st2{fill:url(#SVGID_2_);}
	.st3{fill:#071D2D;}
</style>
<linearGradient id="SVGID_1_" gradientUnits="userSpaceOnUse" x1="618.2259" y1="177.9209" x2="747.5038" y2="1219.2166">
	<stop  offset="0" style="stop-color:#113457"/>
	<stop  offset="0.3186" style="stop-color:#092B49"/>
	<stop  offset="0.4905" style="stop-color:#03243F"/>
	<stop  offset="0.7834" style="stop-color:#071D2D"/>
	<stop  offset="1" style="stop-color:#071728"/>
</linearGradient>
<polygon class="st0" points="1376,112.588 1339.743,112.588 1339.743,70.284 1302.383,70.284 1302.383,3.806 1276.766,3.806 
	1276.766,111.38 1257.265,111.38 1257.265,331.185 1233.634,331.185 1233.634,211.624 1079.78,292.755 1079.78,356.806 
	1066.707,357.28 1066.707,409.944 1013.914,409.944 1013.914,269.982 947.043,269.982 915.367,314.105 915.367,350.638 
	836.429,350.638 836.429,325.966 810.284,325.966 810.284,301.295 790.173,300.821 790.173,220.639 737.38,220.639 737.38,241.515 
	691.626,241.515 691.626,300.346 628.274,300.346 628.274,360.601 612.688,360.601 612.688,456.062 598.61,456.062 598.61,385.273 
	572.465,385.273 572.465,350.638 494.532,350.163 494.532,325.492 395.985,325.966 395.985,280.419 332.131,237.719 332.131,331.66 
	320.064,331.66 320.064,191.223 286.88,191.223 286.88,136.661 275.02,129.403 275.02,191.197 257.284,191.197 135.863,111.38 
	135.863,334.096 118.128,334.096 118.128,358.557 26.721,421.638 26.721,478.283 -9.942,482.308 -5,1327 1378.032,1327.152 "/>
<polygon class="st1" points="1369.727,665.51 1369.727,642.252 1345.774,642.163 1345.774,614.05 1263.159,614.05 1263.159,642.163 
	1165.888,642.163 1165.888,665.51 985.994,665.51 987.02,1362 1377,1362 1375.974,665.51 "/>
<linearGradient id="SVGID_2_" gradientUnits="userSpaceOnUse" x1="984.8134" y1="567.9118" x2="950.674" y2="1262.0797">
	<stop  offset="0" style="stop-color:#071D2D"/>
	<stop  offset="1" style="stop-color:#071728"/>
</linearGradient>
<polygon class="st2" points="1004.841,537.834 1004.841,505.764 802.239,505.764 802.239,535.367 744.727,535.367 744.727,581.004 
	760.865,581.004 760.865,1699.591 1170.844,1699.591 1170.844,581.004 1186.13,580.84 1186.13,537.646 1170.844,537.834 "/>
<g>
	<path class="st3" d="M1105.819,540.253c-0.125,0.112-0.285,0.171-0.457,0.174l-30.095,0.516c-1.397,0.024-2.839,0.04-4.13-0.463
		c-1.322-0.516-2.362-1.537-3.134-2.674c-3.072-4.524-0.933-10.361-1.013-15.734c-0.092-6.114-2.288-12.516-5.763-17.677
		c-4.011-5.957-1.53-9.249,1.542-8.612c1.74,0.361,5.868,7.566,6.842,11.415c1.094,4.323,2.858,8.86,2.381,13.273
		c-0.324,2.995-0.138,6.025,0.527,8.969c0.531,2.354,0.933,3.445,1.963,4.265c1.074,0.855,5.829,1.439,4.373-2.554
		c-0.618-1.693-1.342-3.777-2.056-5.521c-1.601-3.907-2.792-10.495-2.56-14.678c0.385-6.913,0.928-14.711,1.576-21.706
		c0.849-9.163,4.496-11.457,4.29-13.858c-0.285-3.329-3.441-3.334-4.291-11.672c-0.421-4.133-0.692-9.426,0.076-13.514
		c0.097-0.517,0.253-1.111,0.758-1.333c0.331-0.146,0.719-0.083,1.073-0.002c4.279,0.978,6.294,4.671,7.302,8.731
		c0.092,0.37,1.695,0.586,2.082,0.48c3.098-0.848,6.139-0.866,8.373-0.053c0.356,0.129,0.753-0.071,0.874-0.412
		c1.027-2.884,1.397-3.689,2.501-4.763c1.533-1.491,3.006-2.395,5.116-2.857c0.393-0.086,0.788,0.183,0.835,0.562
		c0.878,7.095-1.438,14.726-2.614,18.057c-1.348,3.815-0.787,12.047,0,14.912c2.831,10.302,8.188,11.559,11.025,21.86
		c1.508,5.477,2.347,10.258,1.774,16.885c-0.226,2.615-1.669,7.562-2.629,10.024C1111.173,535.34,1106.789,539.382,1105.819,540.253
		z"/>
</g>
<polygon class="st1" points="27.856,610.073 27.856,572.87 65.398,572.728 65.398,527.758 194.89,527.758 194.89,572.728 
	347.351,572.728 347.351,610.073 629.315,610.073 629.315,1377 18.064,1377 18.064,610.073 "/>
</svg>
