<?xml version="1.0" encoding="utf-8"?>
<!-- Generator: Adobe Illustrator 22.1.0, SVG Export Plug-In . SVG Version: 6.00 Build 0)  -->
<svg version="1.1" id="Layer_1" xmlns="http://www.w3.org/2000/svg" xmlns:xlink="http://www.w3.org/1999/xlink" x="0px" y="0px"
	 viewBox="0 0 1366 895" style="enable-background:new 0 0 1366 895;" xml:space="preserve">
<style type="text/css">
	.st0{display:none;}
	.st1{display:inline;fill:#09002E;}
	.st2{display:inline;}
	.st3{opacity:0.7;}
	.st4{fill:#FFFFFF;}
	.st5{opacity:0.7;fill:#FFFFFF;}
	.st6{fill:url(#SVGID_1_);}
	.st7{opacity:0.88;}
	.st8{fill:#F1F1F2;}
	.st9{fill:#D0D2D3;}
	.st10{fill:#BBBDBF;}
	.st11{fill:#E6E7E8;}
	.st12{fill:url(#SVGID_2_);}
	.st13{fill:#071728;}
	.st14{fill:url(#SVGID_3_);}
	.st15{fill:#071D2D;}
</style>
<g class="st0">
	<rect x="0.5" y="-0.5" class="st1" width="1365" height="767"/>
	<path class="st2" d="M1365,0v766H1V0H1365 M1366-1H0v768h1366V-1L1366-1z"/>
</g>
<g>
	<g class="st3">
		<g>
			<path class="st4" d="M1144.859,50.962c1.609,0,1.611-2.5,0-2.5C1143.251,48.462,1143.248,50.962,1144.859,50.962L1144.859,50.962
				z"/>
		</g>
	</g>
	<g class="st3">
		<g>
			<path class="st4" d="M235.478,211.29c1.609,0,1.611-2.5,0-2.5C233.87,208.79,233.867,211.29,235.478,211.29L235.478,211.29z"/>
		</g>
	</g>
	<g class="st3">
		<g>
			<path class="st4" d="M470.398,412.359c1.609,0,1.611-2.5,0-2.5C468.789,409.859,468.787,412.359,470.398,412.359L470.398,412.359
				z"/>
		</g>
	</g>
	<g class="st3">
		<g>
			<path class="st4" d="M118.505,83.086c1.609,0,1.611-2.5,0-2.5C116.896,80.586,116.894,83.086,118.505,83.086L118.505,83.086z"/>
		</g>
	</g>
	<g class="st3">
		<g>
			<path class="st4" d="M89.141,43.556c2.413,0,2.417-3.75,0-3.75C86.728,39.806,86.724,43.556,89.141,43.556L89.141,43.556z"/>
		</g>
	</g>
	<g class="st3">
		<g>
			<path class="st4" d="M162.492,138.678c0.804,0,0.806-1.25,0-1.25C161.687,137.428,161.686,138.678,162.492,138.678
				L162.492,138.678z"/>
		</g>
	</g>
	<g class="st3">
		<g>
			<path class="st4" d="M338.438,58.368c0.804,0,0.806-1.25,0-1.25C337.634,57.118,337.633,58.368,338.438,58.368L338.438,58.368z"
				/>
		</g>
	</g>
	<g class="st3">
		<g>
			<path class="st4" d="M499.722,154.74c0.804,0,0.806-1.25,0-1.25C498.918,153.49,498.917,154.74,499.722,154.74L499.722,154.74z"
				/>
		</g>
	</g>
	<g class="st3">
		<g>
			<path class="st4" d="M704.993,267.175c0.804,0,0.806-1.25,0-1.25C704.189,265.925,704.188,267.175,704.993,267.175
				L704.993,267.175z"/>
		</g>
	</g>
	<g class="st3">
		<g>
			<path class="st4" d="M690.331,186.865c0.804,0,0.806-1.25,0-1.25C689.527,185.615,689.525,186.865,690.331,186.865
				L690.331,186.865z"/>
		</g>
	</g>
	<g class="st3">
		<g>
			<path class="st4" d="M748.98,98.523c0.804,0,0.806-1.25,0-1.25C748.176,97.273,748.174,98.523,748.98,98.523L748.98,98.523z"/>
		</g>
	</g>
	<g class="st3">
		<g>
			<path class="st4" d="M411.425,106.261c0.804,0,0.806-1.25,0-1.25C410.62,105.011,410.619,106.261,411.425,106.261
				L411.425,106.261z"/>
		</g>
	</g>
	<g class="st3">
		<g>
			<path class="st4" d="M103.518,122.948c1.609,0,1.611-2.5,0-2.5C101.91,120.448,101.907,122.948,103.518,122.948L103.518,122.948z
				"/>
		</g>
	</g>
	<g class="st3">
		<g>
			<path class="st4" d="M264.803,259.476c1.609,0,1.611-2.5,0-2.5C263.194,256.976,263.191,259.476,264.803,259.476L264.803,259.476
				z"/>
		</g>
	</g>
	<g class="st3">
		<g>
			<path class="st4" d="M1203.184,171.135c1.609,0,1.611-2.5,0-2.5C1201.575,168.635,1201.573,171.135,1203.184,171.135
				L1203.184,171.135z"/>
		</g>
	</g>
	<g class="st3">
		<g>
			<path class="st4" d="M1291.157,227.352c1.609,0,1.611-2.5,0-2.5C1289.548,224.852,1289.546,227.352,1291.157,227.352
				L1291.157,227.352z"/>
		</g>
	</g>
	<g class="st3">
		<g>
			<path class="st4" d="M353.1,356.141c1.609,0,1.611-2.5,0-2.5C351.492,353.641,351.489,356.141,353.1,356.141L353.1,356.141z"/>
		</g>
	</g>
	<g class="st3">
		<g>
			<path class="st4" d="M294.452,107.179c1.609,0,1.611-2.5,0-2.5C292.843,104.679,292.84,107.179,294.452,107.179L294.452,107.179z
				"/>
		</g>
	</g>
	<g class="st3">
		<g>
			<path class="st4" d="M778.304,74.43c0.804,0,0.806-1.25,0-1.25C777.5,73.18,777.499,74.43,778.304,74.43L778.304,74.43z"/>
		</g>
	</g>
	<g class="st3">
		<g>
			<path class="st4" d="M1276.495,186.572c0.804,0,0.806-1.25,0-1.25C1275.691,185.322,1275.689,186.572,1276.495,186.572
				L1276.495,186.572z"/>
		</g>
	</g>
	<circle class="st5" cx="631.682" cy="250.488" r="3.361"/>
	<g class="st3">
		<g>
			<path class="st4" d="M895.602,124.491c3.217,0,3.223-5,0-5C892.385,119.491,892.379,124.491,895.602,124.491L895.602,124.491z"/>
		</g>
	</g>
	<g class="st3">
		<g>
			<path class="st4" d="M1027.562,299.924c1.609,0,1.611-2.5,0-2.5C1025.953,297.424,1025.951,299.924,1027.562,299.924
				L1027.562,299.924z"/>
		</g>
	</g>
	<g class="st3">
		<g>
			<path class="st4" d="M250.465,307.955c1.609,0,1.611-2.5,0-2.5C248.856,305.455,248.854,307.955,250.465,307.955L250.465,307.955
				z"/>
		</g>
	</g>
	<g class="st3">
		<g>
			<path class="st4" d="M704.669,267.507c1.609,0,1.611-2.5,0-2.5C703.06,265.007,703.058,267.507,704.669,267.507L704.669,267.507z
				"/>
		</g>
	</g>
	<g class="st3">
		<g>
			<path class="st4" d="M587.371,19.17c2.413,0,2.417-3.75,0-3.75C584.958,15.42,584.954,19.17,587.371,19.17L587.371,19.17z"/>
		</g>
	</g>
	<g class="st3">
		<g>
			<path class="st4" d="M15.87,170.802c0.804,0,0.806-1.25,0-1.25C15.065,169.552,15.064,170.802,15.87,170.802L15.87,170.802z"/>
		</g>
	</g>
	<g class="st3">
		<g>
			<path class="st4" d="M587.696,435.827c0.804,0,0.806-1.25,0-1.25C586.891,434.577,586.89,435.827,587.696,435.827
				L587.696,435.827z"/>
		</g>
	</g>
	<g class="st3">
		<g>
			<path class="st4" d="M558.047,178.541c0.804,0,0.806-1.25,0-1.25C557.243,177.291,557.241,178.541,558.047,178.541
				L558.047,178.541z"/>
		</g>
	</g>
	<g class="st3">
		<g>
			<path class="st4" d="M880.615,291.6c1.609,0,1.611-2.5,0-2.5C879.007,289.1,879.004,291.6,880.615,291.6L880.615,291.6z"/>
		</g>
	</g>
	<g class="st3">
		<g>
			<path class="st4" d="M338.114,307.662c1.609,0,1.611-2.5,0-2.5C336.505,305.162,336.502,307.662,338.114,307.662L338.114,307.662
				z"/>
		</g>
	</g>
	<g class="st3">
		<g>
			<path class="st4" d="M514.385,19.463c2.413,0,2.417-3.75,0-3.75C511.972,15.713,511.968,19.463,514.385,19.463L514.385,19.463z"
				/>
		</g>
	</g>
	<g class="st3">
		<g>
			<path class="st4" d="M59.856,228.27c2.413,0,2.417-3.75,0-3.75C57.443,224.52,57.439,228.27,59.856,228.27L59.856,228.27z"/>
		</g>
	</g>
	<g class="st3">
		<g>
			<path class="st4" d="M822.291,291.268c0.804,0,0.806-1.25,0-1.25C821.487,290.018,821.485,291.268,822.291,291.268
				L822.291,291.268z"/>
		</g>
	</g>
	<g class="st3">
		<g>
			<path class="st4" d="M74.194,138.385c0.804,0,0.806-1.25,0-1.25C73.39,137.135,73.388,138.385,74.194,138.385L74.194,138.385z"/>
		</g>
	</g>
	<g class="st3">
		<g>
			<path class="st4" d="M1144.535,274.913c0.804,0,0.806-1.25,0-1.25C1143.731,273.663,1143.729,274.913,1144.535,274.913
				L1144.535,274.913z"/>
		</g>
	</g>
	<g class="st3">
		<g>
			<path class="st4" d="M1320.481,250.82c0.804,0,0.806-1.25,0-1.25C1319.677,249.57,1319.676,250.82,1320.481,250.82
				L1320.481,250.82z"/>
		</g>
	</g>
	<g class="st3">
		<g>
			<path class="st4" d="M543.709,34.275c0.804,0,0.806-1.25,0-1.25C542.905,33.025,542.903,34.275,543.709,34.275L543.709,34.275z"
				/>
		</g>
	</g>
	<g class="st3">
		<g>
			<path class="st4" d="M690.007,146.417c0.804,0,0.806-1.25,0-1.25C689.202,145.167,689.201,146.417,690.007,146.417
				L690.007,146.417z"/>
		</g>
	</g>
	<g class="st3">
		<g>
			<path class="st4" d="M792.642,218.696c0.804,0,0.806-1.25,0-1.25C791.838,217.446,791.836,218.696,792.642,218.696
				L792.642,218.696z"/>
		</g>
	</g>
	<g class="st3">
		<g>
			<path class="st4" d="M177.154,340.079c1.609,0,1.611-2.5,0-2.5C175.545,337.579,175.543,340.079,177.154,340.079L177.154,340.079
				z"/>
		</g>
	</g>
	<g class="st3">
		<g>
			<path class="st4" d="M455.736,27.494c2.413,0,2.417-3.75,0-3.75C453.323,23.744,453.319,27.494,455.736,27.494L455.736,27.494z"
				/>
		</g>
	</g>
	<g class="st3">
		<g>
			<path class="st4" d="M573.033,284.487c2.413,0,2.417-3.75,0-3.75C570.621,280.737,570.617,284.487,573.033,284.487
				L573.033,284.487z"/>
		</g>
	</g>
	<g class="st3">
		<g>
			<path class="st4" d="M939.589,67.649c2.413,0,2.417-3.75,0-3.75C937.176,63.899,937.172,67.649,939.589,67.649L939.589,67.649z"
				/>
		</g>
	</g>
	<g class="st3">
		<g>
			<path class="st4" d="M866.278,163.396c1.609,0,1.611-2.5,0-2.5C864.669,160.896,864.666,163.396,866.278,163.396L866.278,163.396
				z"/>
		</g>
	</g>
	<g class="st3">
		<g>
			<path class="st4" d="M880.94,315.986c1.609,0,1.611-2.5,0-2.5C879.331,313.486,879.328,315.986,880.94,315.986L880.94,315.986z"
				/>
		</g>
	</g>
	<g class="st3">
		<g>
			<path class="st4" d="M485.06,114.585c0.804,0,0.806-1.25,0-1.25C484.256,113.335,484.255,114.585,485.06,114.585L485.06,114.585z
				"/>
		</g>
	</g>
	<g class="st3">
		<g>
			<path class="st4" d="M308.789,82.168c0.804,0,0.806-1.25,0-1.25C307.985,80.918,307.984,82.168,308.789,82.168L308.789,82.168z"
				/>
		</g>
	</g>
	<g class="st3">
		<g>
			<path class="st4" d="M983.575,404.328c1.609,0,1.611-2.5,0-2.5C981.967,401.828,981.964,404.328,983.575,404.328L983.575,404.328
				z"/>
		</g>
	</g>
	<g class="st3">
		<g>
			<path class="st4" d="M1335.144,203.259c1.609,0,1.611-2.5,0-2.5C1333.535,200.759,1333.532,203.259,1335.144,203.259
				L1335.144,203.259z"/>
		</g>
	</g>
	<g class="st3">
		<g>
			<path class="st4" d="M1335.468,243.707c1.609,0,1.611-2.5,0-2.5C1333.859,241.207,1333.857,243.707,1335.468,243.707
				L1335.468,243.707z"/>
		</g>
	</g>
	<g class="st3">
		<g>
			<path class="st4" d="M1130.197,451.889c0.804,0,0.806-1.25,0-1.25C1129.393,450.639,1129.392,451.889,1130.197,451.889
				L1130.197,451.889z"/>
		</g>
	</g>
	<g class="st3">
		<g>
			<path class="st4" d="M734.318,179.458c1.609,0,1.611-2.5,0-2.5C732.709,176.958,732.706,179.458,734.318,179.458L734.318,179.458
				z"/>
		</g>
	</g>
	<g class="st3">
		<g>
			<path class="st4" d="M30.207,114.917c1.609,0,1.611-2.5,0-2.5C28.599,112.417,28.596,114.917,30.207,114.917L30.207,114.917z"/>
		</g>
	</g>
	<g class="st3">
		<g>
			<path class="st4" d="M646.344,445.108c2.413,0,2.417-3.75,0-3.75C643.932,441.358,643.928,445.108,646.344,445.108
				L646.344,445.108z"/>
		</g>
	</g>
	<g class="st3">
		<g>
			<path class="st4" d="M1042.224,218.989c0.804,0,0.806-1.25,0-1.25C1041.42,217.739,1041.418,218.989,1042.224,218.989
				L1042.224,218.989z"/>
		</g>
	</g>
	<g class="st3">
		<g>
			<path class="st4" d="M1056.886,324.017c1.609,0,1.611-2.5,0-2.5C1055.278,321.517,1055.275,324.017,1056.886,324.017
				L1056.886,324.017z"/>
		</g>
	</g>
	<g class="st3">
		<g>
			<path class="st4" d="M396.763,130.354c0.804,0,0.806-1.25,0-1.25C395.958,129.104,395.957,130.354,396.763,130.354
				L396.763,130.354z"/>
		</g>
	</g>
	<g class="st3">
		<g>
			<path class="st4" d="M865.953,282.944c0.804,0,0.806-1.25,0-1.25C865.149,281.694,865.148,282.944,865.953,282.944
				L865.953,282.944z"/>
		</g>
	</g>
	<g class="st3">
		<g>
			<path class="st4" d="M1232.508,33.982c0.804,0,0.806-1.25,0-1.25C1231.704,32.732,1231.703,33.982,1232.508,33.982
				L1232.508,33.982z"/>
		</g>
	</g>
	<g class="st3">
		<g>
			<path class="st4" d="M910.264,259.144c0.804,0,0.806-1.25,0-1.25C909.46,257.894,909.459,259.144,910.264,259.144
				L910.264,259.144z"/>
		</g>
	</g>
	<g class="st3">
		<g>
			<path class="st4" d="M176.83,74.137c0.804,0,0.806-1.25,0-1.25C176.025,72.887,176.024,74.137,176.83,74.137L176.83,74.137z"/>
		</g>
	</g>
	<g class="st3">
		<g>
			<path class="st4" d="M1232.833,203.552c1.609,0,1.611-2.5,0-2.5C1231.224,201.052,1231.221,203.552,1232.833,203.552
				L1232.833,203.552z"/>
		</g>
	</g>
	<g class="st3">
		<g>
			<path class="st4" d="M1188.522,67.356c2.413,0,2.417-3.75,0-3.75C1186.109,63.606,1186.105,67.356,1188.522,67.356
				L1188.522,67.356z"/>
		</g>
	</g>
	<g class="st3">
		<g>
			<path class="st4" d="M30.532,332.048c1.609,0,1.611-2.5,0-2.5C28.923,329.548,28.921,332.048,30.532,332.048L30.532,332.048z"/>
		</g>
	</g>
	<g class="st3">
		<g>
			<path class="st4" d="M426.411,130.647c0.804,0,0.806-1.25,0-1.25C425.607,129.397,425.606,130.647,426.411,130.647
				L426.411,130.647z"/>
		</g>
	</g>
	<g class="st3">
		<g>
			<path class="st4" d="M294.127,162.479c0.804,0,0.806-1.25,0-1.25C293.323,161.229,293.322,162.479,294.127,162.479
				L294.127,162.479z"/>
		</g>
	</g>
	<g class="st3">
		<g>
			<path class="st4" d="M924.926,420.39c1.609,0,1.611-2.5,0-2.5C923.318,417.89,923.315,420.39,924.926,420.39L924.926,420.39z"/>
		</g>
	</g>
	<g class="st3">
		<g>
			<path class="st4" d="M1247.171,243.414c1.609,0,1.611-2.5,0-2.5C1245.562,240.914,1245.559,243.414,1247.171,243.414
				L1247.171,243.414z"/>
		</g>
	</g>
	<g class="st3">
		<g>
			<path class="st4" d="M89.181,91.117c1.609,0,1.611-2.5,0-2.5C87.572,88.617,87.569,91.117,89.181,91.117L89.181,91.117z"/>
		</g>
	</g>
	<g class="st3">
		<g>
			<path class="st4" d="M1115.211,58.075c0.804,0,0.806-1.25,0-1.25C1114.406,56.825,1114.405,58.075,1115.211,58.075
				L1115.211,58.075z"/>
		</g>
	</g>
	<g class="st3">
		<g>
			<path class="st4" d="M1320.806,195.521c1.609,0,1.611-2.5,0-2.5C1319.197,193.021,1319.195,195.521,1320.806,195.521
				L1320.806,195.521z"/>
		</g>
	</g>
	<g class="st3">
		<g>
			<path class="st4" d="M441.074,396.297c1.609,0,1.611-2.5,0-2.5C439.465,393.797,439.462,396.297,441.074,396.297L441.074,396.297
				z"/>
		</g>
	</g>
	<g class="st3">
		<g>
			<path class="st4" d="M646.02,43.263c2.413,0,2.417-3.75,0-3.75C643.607,39.513,643.603,43.263,646.02,43.263L646.02,43.263z"/>
		</g>
	</g>
	<g class="st3">
		<g>
			<path class="st4" d="M1012.9,235.051c0.804,0,0.806-1.25,0-1.25C1012.095,233.801,1012.094,235.051,1012.9,235.051
				L1012.9,235.051z"/>
		</g>
	</g>
	<g class="st3">
		<g>
			<path class="st4" d="M1364.792,380.234c1.609,0,1.611-2.5,0-2.5C1363.184,377.734,1363.181,380.234,1364.792,380.234
				L1364.792,380.234z"/>
		</g>
	</g>
	<g class="st3">
		<g>
			<path class="st4" d="M352.776,154.448c0.804,0,0.806-1.25,0-1.25C351.972,153.198,351.97,154.448,352.776,154.448
				L352.776,154.448z"/>
		</g>
	</g>
	<g class="st3">
		<g>
			<path class="st4" d="M836.629,299.006c0.804,0,0.806-1.25,0-1.25C835.824,297.756,835.823,299.006,836.629,299.006
				L836.629,299.006z"/>
		</g>
	</g>
	<g class="st3">
		<g>
			<path class="st4" d="M1217.846,50.044c0.804,0,0.806-1.25,0-1.25C1217.042,48.794,1217.04,50.044,1217.846,50.044
				L1217.846,50.044z"/>
		</g>
	</g>
	<g class="st3">
		<g>
			<path class="st4" d="M792.967,275.206c0.804,0,0.806-1.25,0-1.25C792.162,273.956,792.161,275.206,792.967,275.206
				L792.967,275.206z"/>
		</g>
	</g>
	<g class="st3">
		<g>
			<path class="st4" d="M968.913,387.641c0.804,0,0.806-1.25,0-1.25C968.109,386.391,968.107,387.641,968.913,387.641
				L968.913,387.641z"/>
		</g>
	</g>
	<g class="st3">
		<g>
			<path class="st4" d="M1100.873,211.583c1.609,0,1.611-2.5,0-2.5C1099.264,209.083,1099.262,211.583,1100.873,211.583
				L1100.873,211.583z"/>
		</g>
	</g>
	<g class="st3">
		<g>
			<path class="st4" d="M220.816,91.449c2.413,0,2.417-3.75,0-3.75C218.403,87.699,218.399,91.449,220.816,91.449L220.816,91.449z"
				/>
		</g>
	</g>
	<circle class="st5" cx="1276.819" cy="146.084" r="3.361"/>
	<circle class="st5" cx="1071.548" cy="427.171" r="3.361"/>
	<circle class="st5" cx="440.749" cy="193.978" r="3.361"/>
	<circle class="st5" cx="602.358" cy="370.953" r="3.361"/>
</g>
<g>
	<radialGradient id="SVGID_1_" cx="1045.4413" cy="258.2377" r="174.7155" gradientUnits="userSpaceOnUse">
		<stop  offset="0" style="stop-color:#FFF100"/>
		<stop  offset="0.0897" style="stop-color:#F8EB00;stop-opacity:0.9103"/>
		<stop  offset="0.2166" style="stop-color:#E6D900;stop-opacity:0.7834"/>
		<stop  offset="0.3656" style="stop-color:#C8BD00;stop-opacity:0.6344"/>
		<stop  offset="0.5314" style="stop-color:#9D9500;stop-opacity:0.4686"/>
		<stop  offset="0.7111" style="stop-color:#676100;stop-opacity:0.2889"/>
		<stop  offset="0.8996" style="stop-color:#262400;stop-opacity:0.1004"/>
		<stop  offset="1" style="stop-color:#000000;stop-opacity:0"/>
	</radialGradient>
	<circle class="st6" cx="1045.441" cy="258.238" r="174.715"/>
	<g class="st7">
		<circle class="st8" cx="1045.441" cy="258.238" r="101.616"/>
		<path class="st9" d="M1075.327,342.01c-2.645,0.213-5.318,0.328-8.016,0.337c-56.753,0.198-102.922-45.649-103.12-102.402
			c-0.05-14.417,2.876-28.149,8.192-40.62c-13.085,15.809-20.923,36.114-20.846,58.24c0.175,50.203,41.015,90.758,91.218,90.583
			C1054.242,348.108,1065.222,345.934,1075.327,342.01z"/>
		<circle class="st9" cx="1109.655" cy="303.45" r="6.09"/>
		<circle class="st9" cx="1096.339" cy="331.725" r="2.716"/>
		<circle class="st9" cx="1060.373" cy="330.945" r="5.761"/>
		<circle class="st10" cx="1015.625" cy="341.804" r="10.081"/>
		<circle class="st11" cx="1063.177" cy="308.962" r="2.88"/>
		<circle class="st9" cx="1031.261" cy="289.898" r="8.065"/>
		<circle class="st10" cx="1008.736" cy="296.89" r="6.913"/>
		<circle class="st10" cx="1005.321" cy="308.588" r="3.456"/>
		<circle class="st11" cx="1027.491" cy="317.975" r="3.868"/>
		<circle class="st11" cx="1016.068" cy="322.705" r="2.633"/>
		<circle class="st11" cx="991.385" cy="324.438" r="4.279"/>
		<circle class="st11" cx="973.312" cy="310.099" r="6.172"/>
		<circle class="st10" cx="956.18" cy="282.26" r="3.786"/>
		<circle class="st11" cx="965.321" cy="260.502" r="5.761"/>
		<circle class="st9" cx="981.35" cy="278.715" r="5.596"/>
		<circle class="st9" cx="979.8" cy="259.134" r="4.444"/>
		<circle class="st9" cx="1001.594" cy="278.316" r="3.621"/>
		<circle class="st9" cx="1025.214" cy="266.835" r="2.099"/>
		<circle class="st10" cx="1009.351" cy="262.236" r="3.872"/>
		<circle class="st10" cx="984.454" cy="248.502" r="2.387"/>
		<circle class="st9" cx="988.384" cy="219.108" r="5.267"/>
		<circle class="st10" cx="984.698" cy="200.357" r="1.975"/>
		<circle class="st11" cx="973.418" cy="222.617" r="1.811"/>
		<circle class="st11" cx="949.688" cy="237.924" r="2.551"/>
	</g>
</g>
<linearGradient id="SVGID_2_" gradientUnits="userSpaceOnUse" x1="664.5518" y1="349.1172" x2="731.8783" y2="891.4118">
	<stop  offset="0" style="stop-color:#113457"/>
	<stop  offset="0.3186" style="stop-color:#092B49"/>
	<stop  offset="0.4905" style="stop-color:#03243F"/>
	<stop  offset="0.7834" style="stop-color:#071D2D"/>
	<stop  offset="1" style="stop-color:#071728"/>
</linearGradient>
<polygon class="st12" points="1376,112.588 1339.743,112.588 1339.743,70.284 1302.383,70.284 1302.383,3.806 1276.766,3.806 
	1276.766,111.38 1257.265,111.38 1257.265,331.185 1233.634,331.185 1233.634,211.624 1079.78,292.755 1079.78,356.806 
	1066.707,357.28 1066.707,409.944 1013.914,409.944 1013.914,269.982 947.043,269.982 915.367,314.105 915.367,350.638 
	836.429,350.638 836.429,325.966 810.284,325.966 810.284,301.295 790.173,300.821 790.173,220.639 737.38,220.639 737.38,241.515 
	691.626,241.515 691.626,300.346 628.274,300.346 628.274,360.601 612.688,360.601 612.688,456.062 598.61,456.062 598.61,385.273 
	572.465,385.273 572.465,350.638 494.532,350.163 494.532,325.492 395.985,325.966 395.985,280.419 332.131,237.719 332.131,331.66 
	320.064,331.66 320.064,191.223 286.88,191.223 286.88,136.661 275.02,129.403 275.02,191.197 257.284,191.197 135.863,111.38 
	135.863,334.096 118.128,334.096 118.128,358.557 26.721,421.638 26.721,478.283 -9.942,482.308 -7,907 1376.032,907.153 "/>
<polygon class="st13" points="1369.727,665.51 1369.727,642.252 1345.774,642.163 1345.774,614.05 1263.159,614.05 
	1263.159,642.163 1165.888,642.163 1165.888,665.51 985.994,665.51 986.02,908 1376,908 1375.974,665.51 "/>
<linearGradient id="SVGID_3_" gradientUnits="userSpaceOnUse" x1="968.5794" y1="522.5392" x2="950.5526" y2="889.0851">
	<stop  offset="0" style="stop-color:#071D2D"/>
	<stop  offset="1" style="stop-color:#071728"/>
</linearGradient>
<polygon class="st14" points="1004.841,537.834 1004.841,505.764 802.239,505.764 802.239,535.367 744.727,535.367 744.727,581.004 
	760.865,581.004 762.865,908 1172.844,908 1170.844,581.004 1186.13,580.84 1186.13,537.646 1170.844,537.834 "/>
<g>
	<path class="st15" d="M1105.819,540.253c-0.125,0.112-0.285,0.171-0.457,0.174l-30.095,0.516c-1.397,0.024-2.839,0.04-4.13-0.463
		c-1.322-0.516-2.362-1.537-3.134-2.674c-3.072-4.524-0.933-10.361-1.013-15.734c-0.092-6.114-2.288-12.516-5.763-17.677
		c-4.011-5.957-1.53-9.249,1.542-8.612c1.74,0.361,5.868,7.566,6.842,11.415c1.094,4.323,2.858,8.86,2.381,13.273
		c-0.324,2.995-0.138,6.025,0.527,8.969c0.531,2.354,0.933,3.445,1.963,4.265c1.074,0.855,5.829,1.439,4.373-2.554
		c-0.618-1.693-1.342-3.777-2.056-5.521c-1.601-3.907-2.792-10.495-2.56-14.678c0.385-6.913,0.928-14.711,1.576-21.706
		c0.849-9.163,4.496-11.457,4.29-13.858c-0.285-3.329-3.441-3.334-4.291-11.672c-0.421-4.133-0.692-9.426,0.076-13.514
		c0.097-0.517,0.253-1.111,0.758-1.333c0.331-0.146,0.719-0.083,1.073-0.002c4.279,0.978,6.294,4.671,7.302,8.731
		c0.092,0.37,1.695,0.586,2.082,0.48c3.098-0.848,6.139-0.866,8.373-0.053c0.356,0.129,0.753-0.071,0.874-0.412
		c1.027-2.884,1.397-3.689,2.501-4.763c1.533-1.491,3.006-2.395,5.116-2.857c0.393-0.086,0.788,0.183,0.835,0.562
		c0.878,7.095-1.438,14.726-2.614,18.057c-1.348,3.815-0.787,12.047,0,14.912c2.831,10.302,8.188,11.559,11.025,21.86
		c1.508,5.477,2.347,10.258,1.774,16.885c-0.226,2.615-1.669,7.562-2.629,10.024C1111.173,535.34,1106.789,539.382,1105.819,540.253
		z"/>
</g>
<polygon class="st13" points="27.856,610.073 27.856,572.87 65.398,572.728 65.398,527.758 194.89,527.758 194.89,572.728 
	347.351,572.728 347.351,610.073 629.315,610.073 629.315,908 18.064,908 18.064,610.073 "/>
</svg>
