<?xml version="1.0" encoding="utf-8"?>
<!-- Generator: Adobe Illustrator 22.1.0, SVG Export Plug-In . SVG Version: 6.00 Build 0)  -->
<svg version="1.1" id="Layer_2" xmlns="http://www.w3.org/2000/svg" xmlns:xlink="http://www.w3.org/1999/xlink" x="0px" y="0px"
	 viewBox="0 0 116.804 485.845" style="enable-background:new 0 0 116.804 485.845;" xml:space="preserve">
<style type="text/css">
	.st0{fill:#EDE8BD;}
	.st1{fill:#202019;}
</style>
<g>
	<polygon class="st0" points="19.46,73.052 101.957,73.052 86.569,155.122 35.083,155.122 	"/>
	<g>
		<g>
			<path class="st1" d="M111.207,73.26c-10.392-4.633-14.4-7.645-19.295-14.527c-1.328-1.867-3.847-5.129-6.707-6.478
				c-5.103-2.407-7.826-2.071-13.437-8.312c-3.628-4.035-4.917-9.536-6.581-14.701c-0.72-2.233-0.631-2.14-0.927-4.987
				c4.143-0.146-1.359-9.882-2.141-12.795c1.582-0.601,1.155-1.837,1.155-2.738c0-1.595-1.335-1.715-3.129-1.769
				c-1.142-0.034-2.115,0.816-2.238,1.951c-0.168,1.553,0.569,2.41,1.742,2.47c-2.299,3.52-2.791,5.379-4.812,9.587
				c-0.706,1.47,0.348,3.179,1.979,3.205c-0.381,6.783-2.567,12.01-7.039,18.121c-0.974,1.33-4.456,4.906-6.377,6.137
				c-2.787,1.786-5.525,2.338-8.334,4.089c-2.815,1.755-5.412,5.205-7.169,8.018c-3.948,6.323-9.502,9.315-18.503,13.137
				c-0.694,0.295-0.6,1.304,0.135,1.474c3.002,0.691,4.564,0.697,8.508,0.727c0,0,0.21,4.261,0.715,6.927
				c3.058,16.118,4.793,24.197,8.242,39.278c2.038,8.911,2.794,17.822,4.833,26.732c1.089,4.76,1.953,7.728,5.679,10.884
				c2.388,2.023,5.478,3.823,8.246,5.284c2.767,1.461,5.414,2.189,6.149,5.231c0.597,2.471,0.258,3.941,0.273,6.36
				c0.245,39.551-0.64,74.827-0.96,114.377c-0.057,7,1.059,69.54,1.224,79.96c0.576,36.203,0.395,65.179-1.924,96.844l23.185,8.528
				c-5.212-5.768-4.186-17.747-4.161-25.521c0.096-30.108,0.128-60.217,0.098-90.325c-0.019-18.555-0.061-37.111-0.103-55.666
				c-0.053-23.446-0.107-46.892-0.16-70.339c-0.049-21.365,0.156-39.74-0.146-61.102c-0.03-2.107,0.03-3.022,1.365-4.536
				c2.23-2.529,3.985-3.007,6.848-4.787c2.806-1.744,6.002-2.958,8.348-5.283c3.314-3.285,3.491-8.591,4.37-13.173
				c4.428-23.078,8.428-47.011,12.856-70.089c0,0,4.358-0.032,8.024-0.74C111.775,74.568,111.891,73.565,111.207,73.26z
				 M37.352,154.43c-1.071,0.039-2.016-0.695-2.221-1.747c-1.472-7.55-6.037-37.019-9.75-52.735c-1.861-7.874-2.715-13.004-3.172-21
				c1.312-0.552,4.009-1.555,5.321-0.045c1.122,1.291,1,4.706,2.36,4.412c2.236-0.128,0.991-4.748,3.204-5.095
				c1.427-0.223,3.864-0.927,4.056,0.504c2.346,17.497,3.11,37.596,5.157,55.13c0.738,6.318,1.475,13.063,2.213,19.38
				C44.518,153.235,40.316,154.323,37.352,154.43z M76.697,80.665c-2.203,24.05-3.166,48.17-6.183,72.149
				c0,0-1.685,0.385-4.356,0.448c-2.99,0.07-9.725,0.792-14.606-0.243c-0.675-2.812-1.191-8.755-1.325-10.874
				c-1.238-19.491-3.759-38.128-4.997-57.619c-0.131-2.068-0.501-5.935,0.549-7.721c0.824-1.401,3.84-1.058,6.34-1.017
				c2.606,0.043,4.347,0.256,6.179,1.982c0.417,0.393,0.274,5.755,2.319,5.941c2.652,0.242,2.315-5.576,2.743-5.957
				c2.908-2.587,5.044-1.923,8.891-1.496c0.64,0.071,3.704-0.18,4.088,0.336C76.824,77.248,76.772,79.853,76.697,80.665z
				 M85.844,153.131c-2.493,0.048-5.841-0.332-8.334-0.284c0,0,0.442-6.518,1.033-10.601c2.684-18.541,5.676-53.165,5.92-59.536
				c0.1-2.61,0.184-4.438,1.038-4.742c1.066-0.38,2.992-0.855,4.702,0c0.403,1.058,0.153,4.774,1.282,4.702
				c1.425-0.091,2.759-3.581,2.889-4.986c2.24-0.144,4.069,0.207,5.407,0.576C93.992,102.986,90.63,127.552,85.844,153.131z"/>
		</g>
	</g>
</g>
</svg>
