<?xml version="1.0" encoding="utf-8"?>
<!-- Generator: Adobe Illustrator 22.1.0, SVG Export Plug-In . SVG Version: 6.00 Build 0)  -->
<svg version="1.1" xmlns="http://www.w3.org/2000/svg" xmlns:xlink="http://www.w3.org/1999/xlink" x="0px" y="0px"
	 viewBox="0 0 461 494" style="enable-background:new 0 0 461 494;" xml:space="preserve">
<style type="text/css">
	.st0{fill:#F16B62;}
	.st1{fill:#474C9F;}
	.st2{fill:#EC384B;}
	.st3{fill:#85D4E7;}
	.st4{fill:#7D4C9E;}
	.st5{fill:#FFFFFF;}
</style>
<g id="Layer_1">
</g>
<g id="Layer_2">
	<g>
		<g id="Layer_8_2_">
			<polygon class="st0" points="246.4,214.9 357,13.5 326.2,13.5 216.6,214.8 			"/>
			<polygon class="st1" points="287,214.9 397.5,13.5 366.7,13.5 257.2,214.8 			"/>
			<polygon class="st2" points="205.8,214.9 316.4,13.5 285.6,13.5 176,214.8 			"/>
			<polygon class="st3" points="165.3,214.8 275.8,13.5 240,13.5 128.4,214.8 			"/>
			<polygon class="st4" points="327.5,214.9 438.1,13.5 407.3,13.5 297.7,214.8 			"/>
		</g>
		<g id="Layer_6_2_">
			<polygon class="st0" points="138.2,414.5 186.5,320.1 169.9,289.4 101,414.5 			"/>
			<polygon class="st1" points="177.4,414.5 205.8,359.4 188.1,326.9 143.3,414.5 			"/>
			<polygon class="st2" points="97.3,414.5 166.2,285.2 148.6,253.5 58.6,414.5 			"/>
			<polygon class="st3" points="55.2,414.5 145.5,247.1 126.1,217.1 16.7,414.5 			"/>
			<polygon class="st4" points="216.6,414.5 226,392.1 209.4,360.2 180.8,414.5 			"/>
		</g>
		<g id="Layer_2_1_">
			<path class="st5" d="M122.9,214.9"/>
			<path class="st5" d="M11.4,12.7"/>
			<polygon class="st5" points="21.9,13.5 11,13.5 122.9,214.9 13.5,414.5 23.5,414.5 129.2,223 143.6,249.1 53,414.5 63.3,414.5 
				148.8,258.1 164.3,286 93.3,414.5 103.1,414.5 169.1,294.9 183.3,320.3 135.2,414.5 145.2,414.5 188.2,329.6 203.3,356.8 
				173.7,414.5 183.4,414.5 208.2,365.7 223.5,393.1 212.8,414.5 223.2,414.5 228.5,402.8 235,414.5 245,414.5 135,214.9 245,13.5 
				234.9,13.5 227.9,26.4 221.6,13.5 211.5,13.5 222.7,35.2 207.5,62.5 182,13.5 172.5,13.5 202.4,71.8 188.1,98.5 144.1,13.5 
				133.5,13.5 182.8,108.4 168.3,134.1 102,13.5 91.4,13.5 163.5,142.6 148.3,170.6 61.8,13.5 51.6,13.5 143.1,179.6 128,206.1 			
				"/>
		</g>
		<g id="Layer_7_2_">
			<polygon class="st5" points="165.3,214.9 275.9,13.5 285.6,13.5 176,214.8 286.8,414.5 276.2,414.5 			"/>
			<polygon class="st5" points="205.8,214.9 316.4,13.5 326.2,13.5 216.6,214.8 327.3,414.5 316.8,414.5 			"/>
			<polygon class="st5" points="246.4,214.9 357,13.5 366.7,13.5 257.2,214.8 367.9,414.5 357.4,414.5 			"/>
			<polygon class="st5" points="287,214.9 397.6,13.5 407.3,13.5 297.7,214.8 408.5,414.5 397.9,414.5 			"/>
			<polygon class="st5" points="327.5,214.9 438.1,13.5 447.9,13.5 338.3,214.8 449,414.5 438.5,414.5 			"/>
		</g>
		<g id="Layer_9_2_">
			<path class="st5" d="M19.1,484.9c-0.6-0.6-0.9-1.4-0.9-2.2v-43.3c0-0.9,0.3-1.6,0.9-2.3c0.6-0.6,1.4-0.9,2.2-0.9
				c0.9,0,1.6,0.3,2.3,0.9c0.6,0.6,0.9,1.4,0.9,2.3V458h26.6v-18.7c0-0.9,0.3-1.6,0.9-2.3c0.6-0.6,1.4-0.9,2.2-0.9
				c0.9,0,1.6,0.3,2.3,0.9c0.6,0.6,0.9,1.4,0.9,2.3v43.3c0,0.9-0.3,1.6-0.9,2.2c-0.6,0.6-1.4,0.9-2.3,0.9c-0.9,0-1.6-0.3-2.2-0.9
				c-0.6-0.6-0.9-1.4-0.9-2.2V464H24.6v18.7c0,0.9-0.3,1.6-0.9,2.2c-0.6,0.6-1.4,0.9-2.3,0.9C20.5,485.8,19.7,485.5,19.1,484.9z"/>
			<path class="st5" d="M96.7,484.9c-0.6-0.6-0.9-1.4-0.9-2.2c0-0.4,0.1-0.8,0.4-1.4l17.9-42.3c0.4-0.8,0.9-1.5,1.6-2.1
				c0.7-0.5,1.5-0.8,2.5-0.8h0.7c1,0,1.8,0.3,2.5,0.8c0.7,0.5,1.2,1.2,1.6,2.1l17.9,42.3c0.2,0.6,0.4,1,0.4,1.4
				c0,0.9-0.3,1.6-0.9,2.2c-0.6,0.6-1.3,0.9-2.3,0.9c-0.7,0-1.3-0.2-1.8-0.5c-0.5-0.4-0.9-0.8-1.2-1.4l-4.6-11h-23.9l-4.6,11
				c-0.3,0.6-0.7,1.1-1.2,1.4c-0.5,0.4-1.1,0.5-1.8,0.5C98.1,485.8,97.3,485.5,96.7,484.9z M109,467.1h19l-9.5-22.8L109,467.1z"/>
			<path class="st5" d="M187.5,483.1c-3.7-2-6.6-5-8.8-8.8c-2.1-3.8-3.2-8.3-3.2-13.4c0-5.1,1.1-9.6,3.2-13.4
				c2.1-3.8,5.1-6.7,8.8-8.8c3.7-2,7.9-3.1,12.6-3.1c3.2,0,6,0.4,8.5,1.1c2.5,0.7,5,1.8,7.5,3.2c1,0.6,1.5,1.5,1.5,2.7
				c0,0.7-0.3,1.3-0.8,1.9c-0.5,0.5-1.2,0.8-2,0.8c-0.5,0-0.9-0.1-1.3-0.3c-2.1-1.1-4.1-1.9-6-2.5c-2-0.6-4.2-0.8-6.8-0.8
				c-4,0-7.5,0.8-10.3,2.5c-2.8,1.7-5,3.9-6.4,6.8c-1.4,2.9-2.1,6.1-2.1,9.8s0.7,6.9,2.1,9.8c1.4,2.9,3.6,5.2,6.4,6.8
				c2.8,1.7,6.3,2.5,10.3,2.5c2.6,0,4.8-0.3,6.8-0.8c2-0.6,4-1.4,6-2.5c0.4-0.2,0.8-0.3,1.3-0.3c0.8,0,1.5,0.3,2,0.8
				c0.5,0.5,0.8,1.1,0.8,1.9c0,1.2-0.5,2.1-1.5,2.7c-2.5,1.4-5,2.5-7.5,3.2c-2.5,0.7-5.3,1.1-8.5,1.1
				C195.4,486.2,191.2,485.2,187.5,483.1z"/>
			<path class="st5" d="M256.1,484.9c-0.6-0.6-0.9-1.4-0.9-2.2v-43.3c0-0.9,0.3-1.6,0.9-2.3c0.6-0.6,1.4-0.9,2.2-0.9
				c0.9,0,1.6,0.3,2.3,0.9c0.6,0.6,0.9,1.4,0.9,2.3v22.3l24-24.4c0.7-0.7,1.4-1.1,2.4-1.1c0.8,0,1.5,0.3,2.1,0.8
				c0.6,0.5,0.9,1.2,0.9,2c0,0.9-0.3,1.7-0.8,2.2l-16.2,16.1l18.6,23.5c0.5,0.7,0.8,1.3,0.8,2c0,0.8-0.2,1.6-0.8,2.2
				c-0.6,0.6-1.4,0.9-2.2,0.9c-1.1,0-1.9-0.4-2.5-1.3l-18.1-23.1l-8,8.1v13.1c0,0.9-0.3,1.6-0.9,2.2c-0.6,0.6-1.4,0.9-2.3,0.9
				C257.5,485.8,256.7,485.5,256.1,484.9z"/>
			<path class="st0" d="M327.5,485c-0.6-0.6-0.9-1.3-0.9-2.1c0-0.7,0.2-1.4,0.6-2l16.2-19.9l-16.1-19.8c-0.4-0.6-0.6-1.2-0.6-2
				c0-0.9,0.3-1.6,0.9-2.2c0.6-0.6,1.3-0.9,2.2-0.9c0.5,0,1,0.1,1.5,0.4c0.5,0.2,0.8,0.5,1.1,0.9l14.8,18.8l14.8-19
				c0.5-0.7,1.3-1.1,2.3-1.1c0.8,0,1.6,0.3,2.2,0.9c0.6,0.6,0.9,1.3,0.9,2.1c0,0.7-0.2,1.2-0.6,1.8l-16.2,20l16.2,19.9
				c0.4,0.5,0.6,1.1,0.6,1.8c0,0.9-0.3,1.6-0.9,2.2c-0.6,0.6-1.3,0.9-2.3,0.9c-1,0-1.9-0.4-2.5-1.3l-15-18.9l-14.8,19
				c-0.7,0.8-1.5,1.3-2.5,1.3C328.7,485.8,328.1,485.6,327.5,485z"/>
			<path class="st0" d="M404.5,485c-0.6-0.6-0.9-1.3-0.9-2.1c0-0.7,0.2-1.4,0.6-2l16.2-19.9l-16.1-19.8c-0.4-0.6-0.6-1.2-0.6-2
				c0-0.9,0.3-1.6,0.9-2.2c0.6-0.6,1.3-0.9,2.2-0.9c0.5,0,1,0.1,1.5,0.4c0.5,0.2,0.8,0.5,1.1,0.9l14.8,18.8l14.8-19
				c0.5-0.7,1.3-1.1,2.3-1.1c0.8,0,1.6,0.3,2.2,0.9c0.6,0.6,0.9,1.3,0.9,2.1c0,0.7-0.2,1.2-0.6,1.8l-16.2,20l16.2,19.9
				c0.4,0.5,0.6,1.1,0.6,1.8c0,0.9-0.3,1.6-0.9,2.2c-0.6,0.6-1.3,0.9-2.3,0.9c-1,0-1.9-0.4-2.5-1.3l-15-18.9l-14.8,19
				c-0.7,0.8-1.5,1.3-2.5,1.3C405.8,485.8,405.1,485.6,404.5,485z"/>
		</g>
	</g>
</g>
</svg>
