<?xml version="1.0" encoding="utf-8"?>
<!-- Generator: Adobe Illustrator 22.1.0, SVG Export Plug-In . SVG Version: 6.00 Build 0)  -->
<svg version="1.1" id="Layer_2_1_" xmlns="http://www.w3.org/2000/svg" xmlns:xlink="http://www.w3.org/1999/xlink" x="0px" y="0px"
	 viewBox="0 0 274.419 274.419" style="enable-background:new 0 0 274.419 274.419;" xml:space="preserve">
<style type="text/css">
	.st0{display:none;}
	.st1{display:inline;}
	.st2{fill:#FFD676;}
	.st3{fill:#101010;}
</style>
<g class="st0">
	<path class="st1" d="M799.93-6.386c-2.939,4.842-5.878,9.684-8.817,14.526c-4.256-0.898-8.602-1.801-12.923-1.302
		s-8.69,2.656-10.724,6.5c-3.616-2.905-7.232-5.81-10.847-8.715c0.218,4.912,0.435,9.825,0.653,14.737
		c0.05,1.126,0.098,2.273-0.185,3.364c-0.364,1.404-1.242,2.606-2.001,3.841c-1.618,2.636-2.75,5.57-3.32,8.61
		c-0.476,2.537-0.475,5.42,1.196,7.387c1.822,2.146,4.956,2.475,7.766,2.641c54.074,3.187,108.362,2.736,162.375-1.349
		c0.935-0.071,1.96-0.118,2.715,0.438c0.682,0.503,0.967,1.377,1.144,2.206c1.445,6.79-1.794,13.683-5.643,19.461
		s-8.487,11.256-10.393,17.932c-1.906,6.675-0.028,15.143,6.274,18.055c0.523,0.242,1.103,0.444,1.666,0.323
		c1.901-0.408,1.359-3.26,0.409-4.955c-2.115-3.771-4.051-7.994-3.373-12.264c0.97-6.113,5.759-11.043,9.705-15.811
		c5.706-6.894,8.765-15.233,8.463-24.177s-0.401-14.246-2.86-22.852c-4-14-16.679-25.502-21-29
		c-7.111-5.757-11.232-8.711-19.484-12.662c-14.689-7.034-32.161-7.603-47.592-2.395c-15.43,5.208-30.794,16.57-39.924,30.057
		C803.209,8.209,801.116-1.283,799.93-6.386z"/>
</g>
<g>
	<g>
		<rect x="54.618" y="12.094" class="st2" width="161.5" height="212"/>
		<g>
			<path class="st3" d="M159.381,149.459c2.063-8.667,4.139-17.448,3.951-26.354c-7.714,5.989-7.714,7.989-17.026,5.983
				c-2.692-0.58-5.666-1.642-6.635-4.219c-1.001-2.665,0.033-6.569-2.546-7.775c-3.498,5.236-6.59,10.899-7.727,17.093
				c-1.137,6.194-0.138,11.245,3.899,16.077c0.383,0.458,1.951,2.182,2.185,2.732c0.534,1.25-1.081,3.176-1.509,4.466
				c-1.862,5.614-2.127,11.811-0.355,17.454c0.657,2.092,1.586,4.103,2.058,6.244c0.41,1.861,0.467,3.78,0.509,5.686
				c0.178,8.055,0.132,16.115-0.137,24.168c-3.019,0.534-5.135,4.028-4.21,6.951c15.858,1.64,31.856,1.922,47.762,0.845
				c-3.379,0.887-5.328,4.331-6.84,7.481c-3.461,7.213-6.683,14.875-6.446,22.872c0.237,7.997,4.859,16.392,12.553,18.583
				c0.432,0.123,0.929,0.217,1.304-0.031c0.809-0.534,0.175-1.77-0.436-2.524c-5.186-6.396-4.696-15.849-1.601-23.478
				s8.375-14.143,12.411-21.32s6.854-15.739,4.415-23.603c-0.983-3.169-2.764-6.024-4.618-8.777
				c-4.099-6.087-8.648-11.872-13.598-17.291C170.479,163.862,159.381,149.459,159.381,149.459z"/>
		</g>
		<g>
			<rect x="60.118" y="16.594" class="st2" width="73" height="39"/>
			<rect x="140.118" y="16.594" class="st2" width="73" height="39"/>
		</g>
	</g>
	<g>
		<path class="st3" d="M228.118,223.594c-2.823-0.706-3-1-6.09-0.589c0,0-1.412-17.682-1.174-27.992
			c0.132-5.715,0.28-13.355,0.801-19.048c0.692-7.563,0.276-20.178-0.016-27.768c-0.841-21.88,0.359-36.785,0.56-58.68
			c0.242-26.411,1.634-82.645,1.634-82.645c-29.709-0.082-59.419-0.165-89.128-0.247c-6.919-0.019-13.837-0.038-20.756-0.057
			C93.073,6.511,72.16,6.455,51.368,8.331c0,0-4.472,143.999-0.004,215.348c0,0-4.321-0.422-5.262,0.72
			c-0.984,1.195,0.555,7.547,0.997,7.921c0.608,0.513,1.507,0.402,2.291,0.273c11.473-1.894,23.179-1.619,34.803-1.339
			c10.064,0.243,20.128,0.486,30.192,0.729c37.896,0.915,75.85,1.828,113.683-0.546C228.437,229.09,229.118,227.594,228.118,223.594
			z M140.174,52.614c0.117-11.49,0.235-18.98,0.352-30.47l0.031-5.77c8.908,0.464,16.816-1.073,25.724-0.609
			c15.066,0.784,43.837-0.171,46.341,0.319c0.496,3.51-0.504,27.51,1.24,39.526c-23.396,1.125-45.799,1.25-69.221,1.471
			c-1.261,0.012-2.669-0.036-3.557-0.932C140.203,55.26,140.161,53.865,140.174,52.614z M59.118,15.594
			c0,0,48.88,0.499,73.579,0.721c0.1,12.855,0.265,25.709,0.496,38.562c-23.659,0.253-47.318,0.506-70.978,0.759
			c-0.757,0.008-1.6-0.016-2.142-0.546c-0.529-0.516-0.585-1.334-0.606-2.073C59.126,41.291,58.595,27.313,59.118,15.594z
			 M137.333,214.357c-25.332-0.102-50.65,1.459-75.982,1.315c-0.892-31.569-1.392-63.15-1.5-94.732
			c-0.021-6.243-0.027-12.486-0.034-18.729c-0.01-10.089-0.019-20.188,0.669-30.254c0,0,70.594,0.947,106.654,1.329
			c9.057,0.096,38.977-0.692,45.627,0.205c-0.15,31.603,0.141,57.012-0.172,84.622c-0.201,17.789-0.478,35.481,1.887,55.19
			C187.118,215.594,163.092,214.461,137.333,214.357z"/>
	</g>
</g>
</svg>
